Merriweather35-BlackDisplayNarrow.ufo
<glyph name="numbersign" format="2">
  <advance width="1246"/>
  <unicode hex="0023"/>
  <outline>
    <contour>
      <point x="89" y="401" type="line"/>
      <point x="282" y="401" type="line"/>
      <point x="240" y="0" type="line"/>
      <point x="453" y="0" type="line"/>
      <point x="493" y="401" type="line"/>
      <point x="740" y="401" type="line"/>
      <point x="703" y="0" type="line"/>
      <point x="913" y="0" type="line"/>
      <point x="952" y="401" type="line"/>
      <point x="1185" y="401" type="line"/>
      <point x="1184" y="568" type="line"/>
      <point x="973" y="568" type="line"/>
      <point x="1003" y="907" type="line"/>
      <point x="1223" y="907" type="line"/>
      <point x="1223" y="1072" type="line"/>
      <point x="1027" y="1072" type="line"/>
      <point x="1071" y="1486" type="line"/>
      <point x="859" y="1486" type="line"/>
      <point x="817" y="1072" type="line"/>
      <point x="571" y="1072" type="line"/>
      <point x="613" y="1486" type="line"/>
      <point x="402" y="1486" type="line"/>
      <point x="360" y="1072" type="line"/>
      <point x="132" y="1072" type="line"/>
      <point x="132" y="907" type="line"/>
      <point x="335" y="907" type="line"/>
      <point x="304" y="568" type="line"/>
      <point x="88" y="568" type="line"/>
    </contour>
    <contour>
      <point x="791" y="907" type="line"/>
      <point x="757" y="568" type="line"/>
      <point x="514" y="568" type="line"/>
      <point x="545" y="907" type="line"/>
    </contour>
  </outline>
</glyph>
<glyph name="ampersand" format="2">
  <advance width="1395"/>
  <unicode hex="0026"/>
  <outline>
    <contour>
      <point x="1382" y="828" type="line"/>
      <point x="990" y="828" type="line"/>
      <point x="990" y="780" type="line"/>
      <point x="1096" y="743" type="line"/>
      <point x="1122" y="623"/>
      <point x="1101" y="471"/>
      <point x="1035" y="346" type="curve"/>
      <point x="973" y="401"/>
      <point x="935" y="445"/>
      <point x="660" y="788" type="curve"/>
      <point x="835" y="877"/>
      <point x="994" y="998"/>
      <point x="994" y="1191" type="curve" smooth="yes"/>
      <point x="994" y="1368"/>
      <point x="862" y="1505"/>
      <point x="637" y="1505" type="curve" smooth="yes"/>
      <point x="387" y="1505"/>
      <point x="193" y="1347"/>
      <point x="193" y="1120" type="curve" smooth="yes"/>
      <point x="193" y="1017"/>
      <point x="235" y="890"/>
      <point x="344" y="737" type="curve"/>
      <point x="153" y="655"/>
      <point x="31" y="522"/>
      <point x="31" y="339" type="curve" smooth="yes"/>
      <point x="31" y="140"/>
      <point x="177" y="-22"/>
      <point x="489" y="-22" type="curve" smooth="yes"/>
      <point x="677" y="-22"/>
      <point x="815" y="41"/>
      <point x="869" y="108" type="curve"/>
      <point x="952" y="22"/>
      <point x="1033" y="-14"/>
      <point x="1144" y="-14" type="curve" smooth="yes"/>
      <point x="1224" y="-14"/>
      <point x="1336" y="2"/>
      <point x="1350" y="19" type="curve"/>
      <point x="1350" y="62" type="line"/>
      <point x="1274" y="79"/>
      <point x="1128" y="234"/>
      <point x="1083" y="295" type="curve"/>
      <point x="1179" y="399"/>
      <point x="1263" y="554"/>
      <point x="1266" y="743" type="curve"/>
      <point x="1382" y="780" type="line"/>
    </contour>
    <contour>
      <point x="487" y="1206" type="curve" smooth="yes"/>
      <point x="492" y="1357"/>
      <point x="553" y="1447"/>
      <point x="642" y="1447" type="curve" smooth="yes"/>
      <point x="736" y="1447"/>
      <point x="767" y="1340"/>
      <point x="767" y="1219" type="curve" smooth="yes"/>
      <point x="767" y="1041"/>
      <point x="700" y="944"/>
      <point x="605" y="853" type="curve"/>
      <point x="515" y="987"/>
      <point x="484" y="1107"/>
    </contour>
    <contour>
      <point x="641" y="103" type="curve" smooth="yes"/>
      <point x="454" y="103"/>
      <point x="319" y="204"/>
      <point x="319" y="408" type="curve" smooth="yes"/>
      <point x="319" y="547"/>
      <point x="358" y="612"/>
      <point x="389" y="657" type="curve"/>
      <point x="549" y="425"/>
      <point x="698" y="271"/>
      <point x="834" y="144" type="curve"/>
      <point x="790" y="115"/>
      <point x="705" y="103"/>
    </contour>
  </outline>
</glyph>
<glyph name="quotesingle" format="2">
  <advance width="585"/>
  <unicode hex="0027"/>
  <outline>
    <contour>
      <point x="410" y="1682" type="line"/>
      <point x="176" y="1682" type="line"/>
      <point x="270" y="939" type="line"/>
      <point x="314" y="939" type="line"/>
    </contour>
  </outline>
</glyph>
<glyph name="zero" format="2">
  <advance width="1181"/>
  <unicode hex="0030"/>
  <outline>
    <contour>
      <point x="565" y="-21" type="curve" smooth="yes"/>
      <point x="909" y="-21"/>
      <point x="1116" y="255"/>
      <point x="1116" y="781" type="curve" smooth="yes"/>
      <point x="1116" y="1264"/>
      <point x="946" y="1505"/>
      <point x="617" y="1505" type="curve" smooth="yes"/>
      <point x="292" y="1505"/>
      <point x="66" y="1232"/>
      <point x="65" y="702" type="curve" smooth="yes"/>
      <point x="64" y="222"/>
      <point x="231" y="-21"/>
    </contour>
    <contour>
      <point x="595" y="36" type="curve" smooth="yes"/>
      <point x="462" y="36"/>
      <point x="429" y="181"/>
      <point x="429" y="722" type="curve" smooth="yes"/>
      <point x="429" y="1286"/>
      <point x="465" y="1443"/>
      <point x="589" y="1443" type="curve" smooth="yes"/>
      <point x="716" y="1443"/>
      <point x="752" y="1336"/>
      <point x="752" y="742" type="curve" smooth="yes"/>
      <point x="752" y="223"/>
      <point x="743" y="36"/>
    </contour>
  </outline>
</glyph>
<glyph name="one" format="2">
  <advance width="805"/>
  <unicode hex="0031"/>
  <outline>
    <contour>
      <point x="246" y="72" type="line"/>
      <point x="75" y="38" type="line"/>
      <point x="75" y="0" type="line"/>
      <point x="767" y="0" type="line"/>
      <point x="767" y="38" type="line"/>
      <point x="602" y="72" type="line"/>
      <point x="602" y="1486" type="line"/>
      <point x="426" y="1506" type="line"/>
      <point x="412" y="1506" type="line"/>
      <point x="341" y="1412"/>
      <point x="216" y="1282"/>
      <point x="39" y="1242" type="curve"/>
      <point x="48" y="1181" type="line"/>
      <point x="109" y="1179"/>
      <point x="209" y="1213"/>
      <point x="247" y="1230" type="curve"/>
    </contour>
  </outline>
</glyph>
<glyph name="three" format="2">
  <advance width="982"/>
  <unicode hex="0033"/>
  <outline>
    <contour>
      <point x="348" y="-36" type="curve" smooth="yes"/>
      <point x="637" y="-36"/>
      <point x="932" y="132"/>
      <point x="932" y="426" type="curve" smooth="yes"/>
      <point x="932" y="694"/>
      <point x="707" y="787"/>
      <point x="396" y="752" type="curve"/>
      <point x="616" y="811"/>
      <point x="867" y="973"/>
      <point x="867" y="1207" type="curve" smooth="yes"/>
      <point x="867" y="1406"/>
      <point x="689" y="1504"/>
      <point x="487" y="1504" type="curve" smooth="yes"/>
      <point x="300" y="1504"/>
      <point x="165" y="1441"/>
      <point x="20" y="1310" type="curve"/>
      <point x="52" y="1257" type="line"/>
      <point x="135" y="1316"/>
      <point x="213" y="1356"/>
      <point x="292" y="1356" type="curve" smooth="yes"/>
      <point x="420" y="1356"/>
      <point x="502" y="1268"/>
      <point x="502" y="1130" type="curve" smooth="yes"/>
      <point x="502" y="973"/>
      <point x="430" y="860"/>
      <point x="328" y="808" type="curve" smooth="yes"/>
      <point x="293" y="790"/>
      <point x="255" y="777"/>
      <point x="216" y="767" type="curve"/>
      <point x="221" y="695" type="line"/>
      <point x="251" y="704"/>
      <point x="295" y="717"/>
      <point x="330" y="727" type="curve"/>
      <point x="469" y="737"/>
      <point x="552" y="595"/>
      <point x="552" y="442" type="curve" smooth="yes"/>
      <point x="552" y="218"/>
      <point x="446" y="61"/>
      <point x="267" y="61" type="curve" smooth="yes"/>
      <point x="182" y="61"/>
      <point x="110" y="71"/>
      <point x="33" y="105" type="curve"/>
      <point x="20" y="37" type="line"/>
      <point x="75" y="4"/>
      <point x="202" y="-36"/>
    </contour>
  </outline>
</glyph>
<glyph name="seven" format="2">
  <advance width="942"/>
  <unicode hex="0037"/>
  <outline>
    <contour>
      <point x="560" y="0" type="line"/>
      <point x="944" y="1413" type="line"/>
      <point x="871" y="1486" type="line"/>
      <point x="82" y="1486" type="line"/>
      <point x="26" y="1022" type="line"/>
      <point x="99" y="1011" type="line"/>
      <point x="181" y="1185" type="line"/>
      <point x="804" y="1185" type="line"/>
      <point x="608" y="824"/>
      <point x="389" y="447"/>
      <point x="165" y="0" type="curve"/>
    </contour>
  </outline>
</glyph>
<glyph name="nine" format="2">
  <advance width="1117"/>
  <unicode hex="0039"/>
  <outline>
    <contour>
      <point x="575" y="1509" type="curve" smooth="yes"/>
      <point x="273" y="1509"/>
      <point x="40" y="1285"/>
      <point x="40" y="962" type="curve" smooth="yes"/>
      <point x="40" y="683"/>
      <point x="179" y="492"/>
      <point x="398" y="492" type="curve" smooth="yes"/>
      <point x="562" y="492"/>
      <point x="653" y="548"/>
      <point x="711" y="680" type="curve"/>
      <point x="681" y="383"/>
      <point x="589" y="74"/>
      <point x="223" y="-11" type="curve"/>
      <point x="244" y="-69" type="line"/>
      <point x="773" y="-51"/>
      <point x="1071" y="352"/>
      <point x="1071" y="861" type="curve" smooth="yes"/>
      <point x="1071" y="1327"/>
      <point x="846" y="1509"/>
    </contour>
    <contour>
      <point x="549" y="650" type="curve" smooth="yes"/>
      <point x="453" y="650"/>
      <point x="399" y="809"/>
      <point x="399" y="1059" type="curve" smooth="yes"/>
      <point x="399" y="1285"/>
      <point x="449" y="1449"/>
      <point x="568" y="1449" type="curve" smooth="yes"/>
      <point x="664" y="1449"/>
      <point x="713" y="1296"/>
      <point x="713" y="934" type="curve" smooth="yes"/>
      <point x="713" y="855"/>
      <point x="710" y="803"/>
      <point x="707" y="739" type="curve"/>
      <point x="668" y="694"/>
      <point x="634" y="650"/>
    </contour>
  </outline>
</glyph>
<glyph name="semicolon" format="2">
  <advance width="473"/>
  <unicode hex="003B"/>
  <outline>
    <contour>
      <point x="222" y="710" type="curve" smooth="yes"/>
      <point x="320" y="710"/>
      <point x="385" y="770"/>
      <point x="385" y="875" type="curve" smooth="yes"/>
      <point x="385" y="953"/>
      <point x="336" y="1027"/>
      <point x="247" y="1027" type="curve" smooth="yes"/>
      <point x="158" y="1027"/>
      <point x="88" y="960"/>
      <point x="88" y="862" type="curve" smooth="yes"/>
      <point x="88" y="773"/>
      <point x="151" y="710"/>
    </contour>
    <contour>
      <point x="228" y="319" type="curve"/>
      <point x="219" y="319" type="line" smooth="yes"/>
      <point x="142" y="319"/>
      <point x="94" y="262"/>
      <point x="94" y="181" type="curve" smooth="yes"/>
      <point x="94" y="42"/>
      <point x="242" y="22"/>
      <point x="242" y="-89" type="curve" smooth="yes"/>
      <point x="242" y="-195"/>
      <point x="173" y="-306"/>
      <point x="99" y="-397" type="curve"/>
      <point x="99" y="-405" type="line"/>
      <point x="131" y="-427" type="line"/>
      <point x="133" y="-426" type="line"/>
      <point x="259" y="-343"/>
      <point x="394" y="-156"/>
      <point x="394" y="65" type="curve" smooth="yes"/>
      <point x="394" y="212"/>
      <point x="324" y="319"/>
    </contour>
  </outline>
</glyph>
<glyph name="less" format="2">
  <advance width="1254"/>
  <unicode hex="003C"/>
  <outline>
    <contour>
      <point x="1046" y="1160" type="line"/>
      <point x="144" y="706" type="line"/>
      <point x="144" y="635" type="line"/>
      <point x="1046" y="186" type="line"/>
      <point x="1046" y="276" type="line"/>
      <point x="245" y="670" type="line"/>
      <point x="1046" y="1071" type="line"/>
    </contour>
  </outline>
</glyph>
<glyph name="greater" format="2">
  <advance width="1254"/>
  <unicode hex="003E"/>
  <outline>
    <contour>
      <point x="1110" y="635" type="line"/>
      <point x="1110" y="706" type="line"/>
      <point x="208" y="1160" type="line"/>
      <point x="208" y="1071" type="line"/>
      <point x="1009" y="670" type="line"/>
      <point x="208" y="276" type="line"/>
      <point x="208" y="186" type="line"/>
    </contour>
  </outline>
</glyph>
<glyph name="G" format="2">
  <advance width="1232"/>
  <unicode hex="0047"/>
  <anchor x="749" y="0" name="bottom"/>
  <anchor x="759" y="-166" name="mark0"/>
  <anchor x="809" y="1486" name="top"/>
  <outline>
    <contour>
      <point x="629" y="-22" type="curve" smooth="yes"/>
      <point x="940" y="-22"/>
      <point x="983" y="80"/>
      <point x="1153" y="80" type="curve"/>
      <point x="1153" y="621" type="line"/>
      <point x="1227" y="641" type="line"/>
      <point x="1227" y="694" type="line"/>
      <point x="714" y="694" type="line"/>
      <point x="714" y="641" type="line"/>
      <point x="846" y="621" type="line"/>
      <point x="846" y="184" type="line"/>
      <point x="819" y="88"/>
      <point x="734" y="36"/>
      <point x="655" y="36" type="curve" smooth="yes"/>
      <point x="457" y="36"/>
      <point x="411" y="385"/>
      <point x="413" y="758" type="curve" smooth="yes"/>
      <point x="416" y="1245"/>
      <point x="475" y="1452"/>
      <point x="635" y="1452" type="curve" smooth="yes"/>
      <point x="797" y="1452"/>
      <point x="810" y="1386"/>
      <point x="819" y="1321" type="curve"/>
      <point x="871" y="1006" type="line"/>
      <point x="1093" y="1006" type="line"/>
      <point x="1144" y="1442" type="line"/>
      <point x="966" y="1442"/>
      <point x="894" y="1512"/>
      <point x="656" y="1512" type="curve" smooth="yes"/>
      <point x="253" y="1512"/>
      <point x="34" y="1213"/>
      <point x="34" y="734" type="curve" smooth="yes"/>
      <point x="34" y="289"/>
      <point x="208" y="-22"/>
    </contour>
  </outline>
</glyph>
<glyph name="I" format="2">
  <advance width="647"/>
  <unicode hex="0049"/>
  <anchor x="314" y="-23" name="bottom"/>
  <anchor x="316" y="-143" name="mark0"/>
  <anchor x="588" y="20" name="ogonek"/>
  <anchor x="314" y="1486" name="top"/>
  <anchor x="47" y="1486" name="topleft"/>
  <outline>
    <contour>
      <point x="138" y="71" type="line"/>
      <point x="35" y="38" type="line"/>
      <point x="35" y="0" type="line"/>
      <point x="612" y="0" type="line"/>
      <point x="612" y="38" type="line"/>
      <point x="490" y="72" type="line"/>
      <point x="490" y="1412" type="line"/>
      <point x="611" y="1450" type="line"/>
      <point x="611" y="1486" type="line"/>
      <point x="36" y="1486" type="line"/>
      <point x="36" y="1450" type="line"/>
      <point x="138" y="1412" type="line"/>
    </contour>
  </outline>
</glyph>
<glyph name="L" format="2">
  <advance width="1059"/>
  <unicode hex="004C"/>
  <anchor x="669" y="0" name="bottom"/>
  <anchor x="640" y="744" name="center"/>
  <anchor x="687" y="-166" name="mark0"/>
  <anchor x="407" y="1486" name="top"/>
  <anchor x="988" y="1111" name="topright"/>
  <outline>
    <contour>
      <point x="152" y="78" type="line"/>
      <point x="40" y="38" type="line"/>
      <point x="40" y="0" type="line"/>
      <point x="1007" y="0" type="line"/>
      <point x="1085" y="393" type="line"/>
      <point x="929" y="429" type="line"/>
      <point x="788" y="112" type="line"/>
      <point x="502" y="66" type="line"/>
      <point x="502" y="1407" type="line"/>
      <point x="674" y="1450" type="line"/>
      <point x="674" y="1486" type="line"/>
      <point x="41" y="1486" type="line"/>
      <point x="41" y="1450" type="line"/>
      <point x="152" y="1407" type="line"/>
    </contour>
  </outline>
</glyph>
<glyph name="N" format="2">
  <advance width="1179"/>
  <unicode hex="004E"/>
  <anchor x="641" y="0" name="bottom"/>
  <anchor x="693" y="-166" name="mark0"/>
  <anchor x="673" y="1486" name="top"/>
  <outline>
    <contour>
      <point x="149" y="129" type="line"/>
      <point x="8" y="43" type="line"/>
      <point x="8" y="0" type="line"/>
      <point x="374" y="0" type="line"/>
      <point x="374" y="43" type="line"/>
      <point x="222" y="129" type="line"/>
      <point x="224" y="1138" type="line"/>
      <point x="311" y="978" type="line"/>
      <point x="824" y="0" type="line"/>
      <point x="1050" y="0" type="line"/>
      <point x="1050" y="1356" type="line"/>
      <point x="1194" y="1443" type="line"/>
      <point x="1194" y="1486" type="line"/>
      <point x="832" y="1486" type="line"/>
      <point x="832" y="1443" type="line"/>
      <point x="977" y="1356" type="line"/>
      <point x="978" y="455" type="line"/>
      <point x="878" y="669" type="line"/>
      <point x="449" y="1486" type="line"/>
      <point x="-10" y="1486" type="line"/>
      <point x="-10" y="1446" type="line"/>
      <point x="44" y="1445"/>
      <point x="151" y="1321"/>
      <point x="151" y="1235" type="curve"/>
    </contour>
  </outline>
</glyph>
<glyph name="W" format="2">
  <advance width="1637"/>
  <unicode hex="0057"/>
  <anchor x="931" y="0" name="bottom"/>
  <anchor x="826" y="-166" name="mark0"/>
  <anchor x="975" y="1486" name="top"/>
  <outline>
    <contour>
      <point x="-35" y="1452" type="line"/>
      <point x="61" y="1417" type="line"/>
      <point x="380" y="0" type="line"/>
      <point x="623" y="0" type="line"/>
      <point x="841" y="861" type="line"/>
      <point x="1016" y="0" type="line"/>
      <point x="1279" y="0" type="line"/>
      <point x="1572" y="1418" type="line"/>
      <point x="1672" y="1452" type="line"/>
      <point x="1672" y="1486" type="line"/>
      <point x="1365" y="1486" type="line"/>
      <point x="1365" y="1452" type="line"/>
      <point x="1491" y="1418" type="line"/>
      <point x="1303" y="441" type="line"/>
      <point x="1274" y="250" type="line"/>
      <point x="1246" y="441" type="line"/>
      <point x="1058" y="1418" type="line"/>
      <point x="1157" y="1452" type="line"/>
      <point x="1157" y="1486" type="line"/>
      <point x="632" y="1486" type="line"/>
      <point x="632" y="1452" type="line"/>
      <point x="713" y="1418" type="line"/>
      <point x="801" y="998" type="line"/>
      <point x="667" y="441" type="line"/>
      <point x="629" y="250" type="line"/>
      <point x="605" y="441" type="line"/>
      <point x="408" y="1418" type="line"/>
      <point x="501" y="1452" type="line"/>
      <point x="501" y="1486" type="line"/>
      <point x="-35" y="1486" type="line"/>
    </contour>
  </outline>
</glyph>
<glyph name="Z" format="2">
  <advance width="1188"/>
  <unicode hex="005A"/>
  <anchor x="655" y="0" name="bottom"/>
  <anchor x="675" y="-166" name="mark0"/>
  <anchor x="678" y="1486" name="top"/>
  <outline>
    <contour>
      <point x="681" y="1278" type="line"/>
      <point x="28" y="29" type="line"/>
      <point x="43" y="0" type="line"/>
      <point x="1119" y="0" type="line"/>
      <point x="1160" y="452" type="line"/>
      <point x="994" y="480" type="line"/>
      <point x="862" y="103" type="line"/>
      <point x="399" y="56" type="line"/>
      <point x="510" y="215" type="line"/>
      <point x="1158" y="1456" type="line"/>
      <point x="1139" y="1486" type="line"/>
      <point x="120" y="1486" type="line"/>
      <point x="103" y="1084" type="line"/>
      <point x="274" y="1059" type="line"/>
      <point x="377" y="1402" type="line"/>
      <point x="797" y="1431" type="line"/>
    </contour>
  </outline>
</glyph>
<glyph name="bracketleft" format="2">
  <advance width="735"/>
  <unicode hex="005B"/>
  <outline>
    <contour>
      <point x="137" y="1389" type="curve"/>
      <point x="137" y="-55" type="line" smooth="yes"/>
      <point x="137" y="-240"/>
      <point x="217" y="-274"/>
      <point x="353" y="-274" type="curve" smooth="yes"/>
      <point x="446" y="-274"/>
      <point x="533" y="-255"/>
      <point x="603" y="-234" type="curve"/>
      <point x="603" y="-197" type="line"/>
      <point x="432" y="-197" type="line"/>
      <point x="432" y="1533" type="line"/>
      <point x="603" y="1533" type="line"/>
      <point x="603" y="1568" type="line"/>
      <point x="532" y="1587"/>
      <point x="447" y="1608"/>
      <point x="353" y="1608" type="curve" smooth="yes"/>
      <point x="217" y="1608"/>
      <point x="137" y="1574"/>
    </contour>
  </outline>
</glyph>
<glyph name="backslash" format="2">
  <advance width="561"/>
  <unicode hex="005C"/>
  <outline>
    <contour>
      <point x="27" y="1562" type="line"/>
      <point x="467" y="-354" type="line"/>
      <point x="562" y="-354" type="line"/>
      <point x="120" y="1562" type="line"/>
    </contour>
  </outline>
</glyph>
<glyph name="bracketright" format="2">
  <advance width="735"/>
  <unicode hex="005D"/>
  <outline>
    <contour>
      <point x="598" y="1389" type="line"/>
      <point x="598" y="1574"/>
      <point x="518" y="1608"/>
      <point x="382" y="1608" type="curve" smooth="yes"/>
      <point x="288" y="1608"/>
      <point x="203" y="1587"/>
      <point x="132" y="1568" type="curve"/>
      <point x="132" y="1533" type="line"/>
      <point x="303" y="1533" type="line"/>
      <point x="303" y="-197" type="line"/>
      <point x="132" y="-197" type="line"/>
      <point x="132" y="-234" type="line"/>
      <point x="202" y="-255"/>
      <point x="289" y="-274"/>
      <point x="382" y="-274" type="curve" smooth="yes"/>
      <point x="518" y="-274"/>
      <point x="598" y="-240"/>
      <point x="598" y="-55" type="curve" smooth="yes"/>
    </contour>
  </outline>
</glyph>
<glyph name="a" format="2">
  <advance width="850"/>
  <unicode hex="0061"/>
  <anchor x="411" y="0" name="bottom"/>
  <anchor x="720" y="20" name="ogonek"/>
  <anchor x="471" y="1110" name="top"/>
  <outline>
    <contour>
      <point x="-3" y="272" type="curve" smooth="yes"/>
      <point x="-3" y="64"/>
      <point x="121" y="-23"/>
      <point x="263" y="-23" type="curve" smooth="yes"/>
      <point x="372" y="-23"/>
      <point x="455" y="31"/>
      <point x="488" y="122" type="curve"/>
      <point x="488" y="83" type="line" smooth="yes"/>
      <point x="488" y="11"/>
      <point x="532" y="-19"/>
      <point x="632" y="-19" type="curve" smooth="yes"/>
      <point x="723" y="-19"/>
      <point x="813" y="3"/>
      <point x="849" y="12" type="curve"/>
      <point x="849" y="62" type="line"/>
      <point x="797" y="62" type="line"/>
      <point x="797" y="689" type="line" smooth="yes"/>
      <point x="797" y="924"/>
      <point x="686" y="1035"/>
      <point x="478" y="1035" type="curve" smooth="yes"/>
      <point x="268" y="1035"/>
      <point x="91" y="942"/>
      <point x="46" y="904" type="curve"/>
      <point x="80" y="819" type="line"/>
      <point x="122" y="841"/>
      <point x="221" y="880"/>
      <point x="332" y="880" type="curve" smooth="yes"/>
      <point x="462" y="880"/>
      <point x="486" y="810"/>
      <point x="486" y="694" type="curve" smooth="yes"/>
      <point x="486" y="619" type="line"/>
      <point x="295" y="618"/>
      <point x="-3" y="538"/>
    </contour>
    <contour>
      <point x="407" y="131" type="curve" smooth="yes"/>
      <point x="352" y="131"/>
      <point x="312" y="200"/>
      <point x="312" y="308" type="curve" smooth="yes"/>
      <point x="312" y="450"/>
      <point x="379" y="555"/>
      <point x="486" y="556" type="curve"/>
      <point x="486" y="168" type="line"/>
      <point x="477" y="146"/>
      <point x="442" y="131"/>
    </contour>
  </outline>
</glyph>
<glyph name="c" format="2">
  <advance width="793"/>
  <unicode hex="0063"/>
  <anchor x="514" y="0" name="bottom"/>
  <anchor x="526" y="-166" name="mark0"/>
  <anchor x="523" y="1111" name="top"/>
  <outline>
    <contour>
      <point x="30" y="497" type="curve" smooth="yes"/>
      <point x="30" y="194"/>
      <point x="179" y="-22"/>
      <point x="449" y="-22" type="curve" smooth="yes"/>
      <point x="592" y="-22"/>
      <point x="743" y="64"/>
      <point x="785" y="127" type="curve"/>
      <point x="755" y="184" type="line"/>
      <point x="711" y="143"/>
      <point x="655" y="110"/>
      <point x="590" y="110" type="curve" smooth="yes"/>
      <point x="454" y="110"/>
      <point x="370" y="216"/>
      <point x="370" y="541" type="curve" smooth="yes"/>
      <point x="370" y="869"/>
      <point x="417" y="973"/>
      <point x="492" y="973" type="curve" smooth="yes"/>
      <point x="530" y="973"/>
      <point x="563" y="925"/>
      <point x="571" y="856" type="curve" smooth="yes"/>
      <point x="593" y="676" type="line"/>
      <point x="761" y="676" type="line"/>
      <point x="772" y="972" type="line"/>
      <point x="722" y="982"/>
      <point x="663" y="1037"/>
      <point x="499" y="1037" type="curve" smooth="yes"/>
      <point x="253" y="1037"/>
      <point x="30" y="852"/>
    </contour>
  </outline>
</glyph>
<glyph name="l" format="2">
  <advance width="517"/>
  <unicode hex="006C"/>
  <anchor x="257" y="0" name="bottom"/>
  <anchor x="242" y="-166" name="mark0"/>
  <anchor x="246" y="1634" name="top"/>
  <anchor x="542" y="1111" name="topright"/>
  <outline>
    <contour>
      <point x="93" y="73" type="line"/>
      <point x="-13" y="38" type="line"/>
      <point x="-13" y="0" type="line"/>
      <point x="511" y="0" type="line"/>
      <point x="511" y="38" type="line"/>
      <point x="405" y="72" type="line"/>
      <point x="405" y="1609" type="line"/>
      <point x="386" y="1634" type="line"/>
      <point x="333" y="1634" type="line"/>
      <point x="-18" y="1519" type="line"/>
      <point x="-18" y="1480" type="line"/>
      <point x="93" y="1433" type="line"/>
    </contour>
  </outline>
</glyph>
<glyph name="n" format="2">
  <advance width="1043"/>
  <unicode hex="006E"/>
  <anchor x="528" y="0" name="bottom"/>
  <anchor x="518" y="-166" name="mark0"/>
  <anchor x="507" y="1111" name="top"/>
  <outline>
    <contour>
      <point x="108" y="71" type="line"/>
      <point x="32" y="38" type="line"/>
      <point x="32" y="0" type="line"/>
      <point x="511" y="0" type="line"/>
      <point x="511" y="38" type="line"/>
      <point x="424" y="72" type="line"/>
      <point x="424" y="807" type="line"/>
      <point x="449" y="834"/>
      <point x="498" y="870"/>
      <point x="543" y="870" type="curve" smooth="yes"/>
      <point x="615" y="870"/>
      <point x="632" y="790"/>
      <point x="632" y="628" type="curve" smooth="yes"/>
      <point x="632" y="72" type="line"/>
      <point x="570" y="38" type="line"/>
      <point x="570" y="0" type="line"/>
      <point x="1033" y="0" type="line"/>
      <point x="1033" y="38" type="line"/>
      <point x="950" y="72" type="line"/>
      <point x="950" y="639" type="line" smooth="yes"/>
      <point x="950" y="913"/>
      <point x="887" y="1039"/>
      <point x="699" y="1039" type="curve" smooth="yes"/>
      <point x="586" y="1039"/>
      <point x="462" y="950"/>
      <point x="424" y="868" type="curve"/>
      <point x="425" y="927" type="line"/>
      <point x="425" y="1000" type="line"/>
      <point x="389" y="1035" type="line"/>
      <point x="318" y="1035" type="line"/>
      <point x="2" y="918" type="line"/>
      <point x="2" y="881" type="line"/>
      <point x="108" y="834" type="line"/>
    </contour>
  </outline>
</glyph>
<glyph name="o" format="2">
  <advance width="968"/>
  <unicode hex="006F"/>
  <anchor x="484" y="0" name="bottom"/>
  <anchor x="484" y="503" name="center"/>
  <anchor x="543" y="10" name="ogonek"/>
  <anchor x="485" y="1110" name="top"/>
  <anchor x="742" y="1005" name="topright"/>
  <outline>
    <contour>
      <point x="33" y="500" type="curve" smooth="yes"/>
      <point x="33" y="137"/>
      <point x="196" y="-24"/>
      <point x="472" y="-24" type="curve" smooth="yes"/>
      <point x="712" y="-24"/>
      <point x="935" y="124"/>
      <point x="935" y="514" type="curve" smooth="yes"/>
      <point x="935" y="867"/>
      <point x="772" y="1039"/>
      <point x="495" y="1039" type="curve" smooth="yes"/>
      <point x="256" y="1039"/>
      <point x="33" y="871"/>
    </contour>
    <contour>
      <point x="487" y="32" type="curve" smooth="yes"/>
      <point x="403" y="32"/>
      <point x="377" y="181"/>
      <point x="377" y="522" type="curve" smooth="yes"/>
      <point x="377" y="866"/>
      <point x="412" y="983"/>
      <point x="488" y="983" type="curve" smooth="yes"/>
      <point x="573" y="983"/>
      <point x="588" y="830"/>
      <point x="588" y="490" type="curve" smooth="yes"/>
      <point x="588" y="151"/>
      <point x="563" y="32"/>
    </contour>
  </outline>
</glyph>
<glyph name="s" format="2">
  <advance width="777"/>
  <unicode hex="0073"/>
  <anchor x="376" y="-8" name="bottom"/>
  <anchor x="391" y="-175" name="mark0"/>
  <anchor x="388" y="1111" name="top"/>
  <outline>
    <contour>
      <point x="246" y="309" type="line"/>
      <point x="50" y="309" type="line"/>
      <point x="42" y="34" type="line"/>
      <point x="110" y="34"/>
      <point x="212" y="-25"/>
      <point x="370" y="-25" type="curve" smooth="yes"/>
      <point x="666" y="-25"/>
      <point x="755" y="123"/>
      <point x="755" y="287" type="curve" smooth="yes"/>
      <point x="755" y="489"/>
      <point x="605" y="566"/>
      <point x="474" y="644" type="curve" smooth="yes"/>
      <point x="373" y="704"/>
      <point x="273" y="767"/>
      <point x="273" y="870" type="curve" smooth="yes"/>
      <point x="273" y="952"/>
      <point x="340" y="984"/>
      <point x="394" y="984" type="curve" smooth="yes"/>
      <point x="463" y="984"/>
      <point x="489" y="926"/>
      <point x="499" y="893" type="curve"/>
      <point x="528" y="730" type="line"/>
      <point x="700" y="730" type="line"/>
      <point x="711" y="991" type="line"/>
      <point x="655" y="999"/>
      <point x="553" y="1040"/>
      <point x="415" y="1040" type="curve" smooth="yes"/>
      <point x="161" y="1040"/>
      <point x="33" y="917"/>
      <point x="33" y="736" type="curve" smooth="yes"/>
      <point x="33" y="538"/>
      <point x="196" y="451"/>
      <point x="314" y="384" type="curve" smooth="yes"/>
      <point x="446" y="309"/>
      <point x="519" y="244"/>
      <point x="519" y="168" type="curve" smooth="yes"/>
      <point x="519" y="77"/>
      <point x="467" y="32"/>
      <point x="398" y="32" type="curve" smooth="yes"/>
      <point x="327" y="32"/>
      <point x="295" y="89"/>
      <point x="286" y="132" type="curve"/>
    </contour>
  </outline>
</glyph>
<glyph name="braceright" format="2">
  <advance width="869"/>
  <unicode hex="007D"/>
  <outline>
    <contour>
      <point x="357" y="-282" type="curve" smooth="yes"/>
      <point x="575" y="-282"/>
      <point x="680" y="-181"/>
      <point x="680" y="-14" type="curve" smooth="yes"/>
      <point x="680" y="168"/>
      <point x="560" y="332"/>
      <point x="560" y="471" type="curve" smooth="yes"/>
      <point x="560" y="568"/>
      <point x="598" y="652"/>
      <point x="762" y="652" type="curve"/>
      <point x="762" y="704" type="line"/>
      <point x="598" y="704"/>
      <point x="560" y="770"/>
      <point x="560" y="865" type="curve" smooth="yes"/>
      <point x="560" y="1005"/>
      <point x="680" y="1168"/>
      <point x="680" y="1351" type="curve" smooth="yes"/>
      <point x="680" y="1519"/>
      <point x="571" y="1620"/>
      <point x="354" y="1620" type="curve" smooth="yes"/>
      <point x="259" y="1620"/>
      <point x="186" y="1602"/>
      <point x="106" y="1576" type="curve"/>
      <point x="106" y="1538" type="line"/>
      <point x="142" y="1539"/>
      <point x="173" y="1540"/>
      <point x="209" y="1540" type="curve" smooth="yes"/>
      <point x="293" y="1540"/>
      <point x="349" y="1490"/>
      <point x="349" y="1365" type="curve" smooth="yes"/>
      <point x="349" y="1255"/>
      <point x="284" y="1064"/>
      <point x="284" y="929" type="curve" smooth="yes"/>
      <point x="284" y="737"/>
      <point x="451" y="695"/>
      <point x="611" y="672" type="curve"/>
      <point x="451" y="650"/>
      <point x="284" y="599"/>
      <point x="284" y="407" type="curve" smooth="yes"/>
      <point x="284" y="274"/>
      <point x="349" y="88"/>
      <point x="349" y="-23" type="curve" smooth="yes"/>
      <point x="349" y="-150"/>
      <point x="287" y="-198"/>
      <point x="202" y="-198" type="curve" smooth="yes"/>
      <point x="168" y="-198"/>
      <point x="142" y="-197"/>
      <point x="106" y="-196" type="curve"/>
      <point x="106" y="-238" type="line"/>
      <point x="177" y="-261"/>
      <point x="263" y="-282"/>
    </contour>
  </outline>
</glyph>
<glyph name="asciitilde" format="2">
  <advance width="1185"/>
  <unicode hex="007E"/>
  <outline>
    <contour>
      <point x="180" y="618" type="curve"/>
      <point x="217" y="561" type="line"/>
      <point x="265" y="632"/>
      <point x="333" y="682"/>
      <point x="409" y="682" type="curve" smooth="yes"/>
      <point x="556" y="682"/>
      <point x="580" y="498"/>
      <point x="755" y="498" type="curve" smooth="yes"/>
      <point x="861" y="498"/>
      <point x="956" y="566"/>
      <point x="1005" y="653" type="curve"/>
      <point x="962" y="717" type="line"/>
      <point x="916" y="648"/>
      <point x="842" y="589"/>
      <point x="763" y="589" type="curve" smooth="yes"/>
      <point x="624" y="589"/>
      <point x="589" y="773"/>
      <point x="425" y="773" type="curve" smooth="yes"/>
      <point x="322" y="773"/>
      <point x="224" y="701"/>
    </contour>
  </outline>
</glyph>
<glyph name="exclamdown" format="2">
  <advance width="510"/>
  <unicode hex="00A1"/>
  <outline>
    <contour>
      <point x="86" y="-482" type="line"/>
      <point x="420" y="-482" type="line"/>
      <point x="282" y="805" type="line"/>
      <point x="223" y="805" type="line"/>
    </contour>
    <contour>
      <point x="267" y="1291" type="curve" smooth="yes"/>
      <point x="170" y="1291"/>
      <point x="104" y="1231"/>
      <point x="104" y="1126" type="curve" smooth="yes"/>
      <point x="104" y="1048"/>
      <point x="153" y="974"/>
      <point x="242" y="974" type="curve" smooth="yes"/>
      <point x="331" y="974"/>
      <point x="401" y="1041"/>
      <point x="401" y="1139" type="curve" smooth="yes"/>
      <point x="401" y="1228"/>
      <point x="338" y="1291"/>
    </contour>
  </outline>
</glyph>
<glyph name="cent" format="2">
  <advance width="892"/>
  <unicode hex="00A2"/>
  <outline>
    <contour>
      <point x="70" y="497" type="curve" smooth="yes"/>
      <point x="70" y="225"/>
      <point x="190" y="22"/>
      <point x="411" y="-16" type="curve"/>
      <point x="396" y="-238" type="line"/>
      <point x="487" y="-238" type="line"/>
      <point x="501" y="-22" type="line"/>
      <point x="640" y="-17"/>
      <point x="784" y="66"/>
      <point x="825" y="127" type="curve"/>
      <point x="795" y="184" type="line"/>
      <point x="751" y="143"/>
      <point x="695" y="110"/>
      <point x="630" y="110" type="curve" smooth="yes"/>
      <point x="494" y="110"/>
      <point x="410" y="216"/>
      <point x="410" y="541" type="curve" smooth="yes"/>
      <point x="410" y="869"/>
      <point x="457" y="973"/>
      <point x="532" y="973" type="curve" smooth="yes"/>
      <point x="570" y="973"/>
      <point x="603" y="925"/>
      <point x="611" y="856" type="curve" smooth="yes"/>
      <point x="633" y="676" type="line"/>
      <point x="801" y="676" type="line"/>
      <point x="812" y="972" type="line"/>
      <point x="765" y="981"/>
      <point x="711" y="1030"/>
      <point x="570" y="1036" type="curve"/>
      <point x="596" y="1370" type="line"/>
      <point x="518" y="1370" type="line"/>
      <point x="491" y="1035" type="line"/>
      <point x="265" y="1012"/>
      <point x="70" y="829"/>
    </contour>
  </outline>
</glyph>
<glyph name="brokenbar" format="2">
  <advance width="617"/>
  <unicode hex="00A6"/>
  <outline>
    <contour>
      <point x="357" y="1738" type="line"/>
      <point x="260" y="1738" type="line"/>
      <point x="260" y="928" type="line"/>
      <point x="357" y="928" type="line"/>
    </contour>
    <contour>
      <point x="357" y="626" type="line"/>
      <point x="260" y="626" type="line"/>
      <point x="260" y="-182" type="line"/>
      <point x="357" y="-182" type="line"/>
    </contour>
  </outline>
</glyph>
<glyph name="copyright" format="2">
  <advance width="2045"/>
  <unicode hex="00A9"/>
  <outline>
    <contour>
      <point x="173" y="979" type="curve" smooth="yes"/>
      <point x="173" y="503"/>
      <point x="554" y="119"/>
      <point x="1024" y="119" type="curve" smooth="yes"/>
      <point x="1497" y="119"/>
      <point x="1872" y="503"/>
      <point x="1872" y="979" type="curve" smooth="yes"/>
      <point x="1872" y="1453"/>
      <point x="1497" y="1836"/>
      <point x="1024" y="1836" type="curve" smooth="yes"/>
      <point x="552" y="1836"/>
      <point x="173" y="1457"/>
    </contour>
    <contour>
      <point x="275" y="978" type="curve" smooth="yes"/>
      <point x="275" y="1409"/>
      <point x="602" y="1748"/>
      <point x="1024" y="1748" type="curve" smooth="yes"/>
      <point x="1442" y="1748"/>
      <point x="1770" y="1405"/>
      <point x="1770" y="979" type="curve" smooth="yes"/>
      <point x="1770" y="551"/>
      <point x="1438" y="210"/>
      <point x="1024" y="210" type="curve" smooth="yes"/>
      <point x="603" y="210"/>
      <point x="275" y="547"/>
    </contour>
    <contour>
      <point x="1034" y="503" type="curve" smooth="yes"/>
      <point x="1176" y="503"/>
      <point x="1305" y="583"/>
      <point x="1360" y="653" type="curve"/>
      <point x="1335" y="709" type="line"/>
      <point x="1282" y="662"/>
      <point x="1195" y="627"/>
      <point x="1108" y="627" type="curve" smooth="yes"/>
      <point x="930" y="627"/>
      <point x="813" y="780"/>
      <point x="813" y="1012" type="curve" smooth="yes"/>
      <point x="813" y="1233"/>
      <point x="912" y="1399"/>
      <point x="1044" y="1399" type="curve" smooth="yes"/>
      <point x="1093" y="1399"/>
      <point x="1146" y="1386"/>
      <point x="1167" y="1368" type="curve"/>
      <point x="1211" y="1154" type="line"/>
      <point x="1341" y="1154" type="line"/>
      <point x="1345" y="1405" type="line"/>
      <point x="1307" y="1443"/>
      <point x="1180" y="1464"/>
      <point x="1094" y="1464" type="curve" smooth="yes"/>
      <point x="802" y="1464"/>
      <point x="598" y="1253"/>
      <point x="598" y="976" type="curve" smooth="yes"/>
      <point x="598" y="703"/>
      <point x="742" y="503"/>
    </contour>
  </outline>
</glyph>
<glyph name="guillemetleft" format="2">
  <advance width="1065"/>
  <unicode hex="00AB"/>
  <outline>
    <contour>
      <point x="493" y="1005" type="line"/>
      <point x="68" y="559" type="line"/>
      <point x="68" y="494" type="line"/>
      <point x="493" y="57" type="line"/>
      <point x="538" y="81" type="line"/>
      <point x="331" y="526" type="line"/>
      <point x="538" y="984" type="line"/>
    </contour>
    <contour>
      <point x="926" y="1005" type="line"/>
      <point x="479" y="559" type="line"/>
      <point x="479" y="494" type="line"/>
      <point x="926" y="57" type="line"/>
      <point x="973" y="81" type="line"/>
      <point x="742" y="526" type="line"/>
      <point x="973" y="984" type="line"/>
    </contour>
  </outline>
</glyph>
<glyph name="micro" format="2">
  <advance width="1187"/>
  <unicode hex="00B5"/>
  <outline>
    <contour>
      <point x="170" y="-362" type="line"/>
      <point x="465" y="-362" type="line"/>
      <point x="465" y="48" type="line"/>
      <point x="503" y="3"/>
      <point x="540" y="-18"/>
      <point x="581" y="-18" type="curve" smooth="yes"/>
      <point x="647" y="-18"/>
      <point x="718" y="52"/>
      <point x="740" y="177" type="curve"/>
      <point x="740" y="71" type="line" smooth="yes"/>
      <point x="740" y="38"/>
      <point x="740" y="-21"/>
      <point x="880" y="-21" type="curve" smooth="yes"/>
      <point x="975" y="-21"/>
      <point x="1095" y="6"/>
      <point x="1116" y="10" type="curve"/>
      <point x="1116" y="48" type="line"/>
      <point x="1044" y="68" type="line"/>
      <point x="1044" y="992" type="line"/>
      <point x="988" y="1035" type="line"/>
      <point x="624" y="921" type="line"/>
      <point x="625" y="880" type="line"/>
      <point x="717" y="833" type="line"/>
      <point x="717" y="208" type="line"/>
      <point x="682" y="173"/>
      <point x="642" y="156"/>
      <point x="611" y="156" type="curve" smooth="yes"/>
      <point x="551" y="156"/>
      <point x="482" y="222"/>
      <point x="482" y="336" type="curve" smooth="yes"/>
      <point x="482" y="992" type="line"/>
      <point x="433" y="1035" type="line"/>
      <point x="81" y="921" type="line"/>
      <point x="81" y="880" type="line"/>
      <point x="170" y="833" type="line"/>
    </contour>
  </outline>
</glyph>
<glyph name="guillemetright" format="2">
  <advance width="1065"/>
  <unicode hex="00BB"/>
  <outline>
    <contour>
      <point x="572" y="1005" type="line"/>
      <point x="527" y="984" type="line"/>
      <point x="734" y="526" type="line"/>
      <point x="527" y="81" type="line"/>
      <point x="572" y="57" type="line"/>
      <point x="997" y="494" type="line"/>
      <point x="997" y="559" type="line"/>
    </contour>
    <contour>
      <point x="139" y="1005" type="line"/>
      <point x="92" y="984" type="line"/>
      <point x="323" y="526" type="line"/>
      <point x="92" y="81" type="line"/>
      <point x="139" y="57" type="line"/>
      <point x="586" y="494" type="line"/>
      <point x="586" y="559" type="line"/>
    </contour>
  </outline>
</glyph>
<glyph name="questiondown" format="2">
  <advance width="808"/>
  <unicode hex="00BF"/>
  <outline>
    <contour>
      <point x="498" y="805" type="curve"/>
      <point x="440" y="805" type="line"/>
      <point x="454" y="719"/>
      <point x="467" y="607"/>
      <point x="467" y="532" type="curve" smooth="yes"/>
      <point x="467" y="500"/>
      <point x="462" y="468"/>
      <point x="452" y="449" type="curve"/>
      <point x="405" y="360"/>
      <point x="31" y="283"/>
      <point x="24" y="-46" type="curve" smooth="yes"/>
      <point x="18" y="-310"/>
      <point x="218" y="-501"/>
      <point x="518" y="-501" type="curve" smooth="yes"/>
      <point x="652" y="-501"/>
      <point x="743" y="-462"/>
      <point x="790" y="-433" type="curve"/>
      <point x="760" y="-362" type="line"/>
      <point x="725" y="-382"/>
      <point x="680" y="-397"/>
      <point x="624" y="-397" type="curve" smooth="yes"/>
      <point x="436" y="-397"/>
      <point x="327" y="-224"/>
      <point x="327" y="44" type="curve" smooth="yes"/>
      <point x="327" y="114"/>
      <point x="337" y="212"/>
      <point x="354" y="268" type="curve"/>
      <point x="532" y="355"/>
      <point x="586" y="413"/>
      <point x="586" y="507" type="curve"/>
      <point x="586" y="586"/>
      <point x="526" y="746"/>
    </contour>
    <contour>
      <point x="487" y="1291" type="curve" smooth="yes"/>
      <point x="390" y="1291"/>
      <point x="324" y="1231"/>
      <point x="324" y="1126" type="curve" smooth="yes"/>
      <point x="324" y="1048"/>
      <point x="373" y="974"/>
      <point x="463" y="974" type="curve" smooth="yes"/>
      <point x="551" y="974"/>
      <point x="622" y="1041"/>
      <point x="622" y="1139" type="curve" smooth="yes"/>
      <point x="622" y="1228"/>
      <point x="558" y="1291"/>
    </contour>
  </outline>
</glyph>
<glyph name="Eth" format="2">
  <advance width="1222"/>
  <unicode hex="00D0"/>
  <anchor x="734" y="0" name="bottom"/>
  <anchor x="734" y="744" name="center"/>
  <anchor x="767" y="-166" name="mark0"/>
  <anchor x="734" y="1486" name="top"/>
  <outline>
    <contour>
      <point x="84" y="700" type="line"/>
      <point x="679" y="700" type="line"/>
      <point x="679" y="838" type="line"/>
      <point x="84" y="838" type="line"/>
    </contour>
    <component base="D"/>
  </outline>
</glyph>
<glyph name="Thorn" format="2">
  <advance width="1218"/>
  <unicode hex="00DE"/>
  <outline>
    <contour>
      <point x="152" y="73" type="line"/>
      <point x="18" y="37" type="line"/>
      <point x="18" y="0" type="line"/>
      <point x="680" y="0" type="line"/>
      <point x="680" y="38" type="line"/>
      <point x="530" y="71" type="line"/>
      <point x="530" y="351" type="line"/>
      <point x="556" y="347"/>
      <point x="563" y="343"/>
      <point x="707" y="343" type="curve" smooth="yes"/>
      <point x="1049" y="343"/>
      <point x="1179" y="520"/>
      <point x="1179" y="768" type="curve" smooth="yes"/>
      <point x="1179" y="1037"/>
      <point x="1055" y="1154"/>
      <point x="747" y="1154" type="curve" smooth="yes"/>
      <point x="711" y="1154"/>
      <point x="566" y="1141"/>
      <point x="530" y="1137" type="curve"/>
      <point x="530" y="1412" type="line"/>
      <point x="680" y="1450" type="line"/>
      <point x="680" y="1487" type="line"/>
      <point x="19" y="1487" type="line"/>
      <point x="19" y="1450" type="line"/>
      <point x="152" y="1412" type="line"/>
    </contour>
    <contour>
      <point x="635" y="401" type="curve" smooth="yes"/>
      <point x="587" y="401"/>
      <point x="539" y="404"/>
      <point x="530" y="415" type="curve"/>
      <point x="530" y="1077" type="line"/>
      <point x="561" y="1082"/>
      <point x="579" y="1089"/>
      <point x="633" y="1089" type="curve" smooth="yes"/>
      <point x="770" y="1089"/>
      <point x="837" y="954"/>
      <point x="837" y="756" type="curve" smooth="yes"/>
      <point x="837" y="555"/>
      <point x="777" y="401"/>
    </contour>
  </outline>
</glyph>
<glyph name="ae" format="2">
  <advance width="1506"/>
  <unicode hex="00E6"/>
  <anchor x="750" y="0" name="bottom"/>
  <anchor x="790" y="1111" name="top"/>
  <outline>
    <contour>
      <point x="275" y="-23" type="curve" smooth="yes"/>
      <point x="417" y="-23"/>
      <point x="557" y="34"/>
      <point x="620" y="191" type="curve"/>
      <point x="694" y="54"/>
      <point x="835" y="-24"/>
      <point x="1056" y="-24" type="curve" smooth="yes"/>
      <point x="1229" y="-24"/>
      <point x="1396" y="65"/>
      <point x="1451" y="126" type="curve"/>
      <point x="1425" y="182" type="line"/>
      <point x="1369" y="139"/>
      <point x="1261" y="116"/>
      <point x="1190" y="116" type="curve" smooth="yes"/>
      <point x="1019" y="116"/>
      <point x="927" y="225"/>
      <point x="917" y="502" type="curve"/>
      <point x="1466" y="502" type="line"/>
      <point x="1476" y="527"/>
      <point x="1482" y="584"/>
      <point x="1482" y="675" type="curve"/>
      <point x="1478" y="913"/>
      <point x="1325" y="1042"/>
      <point x="1067" y="1042" type="curve" smooth="yes"/>
      <point x="956" y="1042"/>
      <point x="858" y="1014"/>
      <point x="778" y="961" type="curve"/>
      <point x="712" y="1014"/>
      <point x="621" y="1037"/>
      <point x="514" y="1037" type="curve" smooth="yes"/>
      <point x="309" y="1037"/>
      <point x="127" y="945"/>
      <point x="59" y="893" type="curve"/>
      <point x="94" y="820" type="line"/>
      <point x="147" y="839"/>
      <point x="251" y="870"/>
      <point x="370" y="870" type="curve" smooth="yes"/>
      <point x="485" y="870"/>
      <point x="554" y="809"/>
      <point x="554" y="721" type="curve"/>
      <point x="554" y="600" type="line"/>
      <point x="329" y="600"/>
      <point x="-3" y="518"/>
      <point x="-3" y="261" type="curve" smooth="yes"/>
      <point x="-3" y="92"/>
      <point x="101" y="-23"/>
    </contour>
    <contour>
      <point x="915" y="556" type="line"/>
      <point x="925" y="902"/>
      <point x="980" y="986"/>
      <point x="1047" y="986" type="curve" smooth="yes"/>
      <point x="1122" y="986"/>
      <point x="1134" y="888"/>
      <point x="1134" y="689" type="curve" smooth="yes"/>
      <point x="1134" y="663"/>
      <point x="1132" y="595"/>
      <point x="1132" y="569" type="curve"/>
    </contour>
    <contour>
      <point x="451" y="135" type="curve" smooth="yes"/>
      <point x="383" y="135"/>
      <point x="334" y="208"/>
      <point x="334" y="310" type="curve" smooth="yes"/>
      <point x="334" y="444"/>
      <point x="405" y="542"/>
      <point x="554" y="543" type="curve"/>
      <point x="554" y="419"/>
      <point x="557" y="332"/>
      <point x="602" y="227" type="curve"/>
      <point x="573" y="185"/>
      <point x="525" y="135"/>
    </contour>
  </outline>
</glyph>
<glyph name="eth" format="2">
  <advance width="1208"/>
  <unicode hex="00F0"/>
  <outline>
    <contour>
      <point x="544" y="-22" type="curve" smooth="yes"/>
      <point x="924" y="-22"/>
      <point x="1041" y="352"/>
      <point x="1041" y="662" type="curve" smooth="yes"/>
      <point x="1041" y="1142"/>
      <point x="790" y="1469"/>
      <point x="514" y="1650" type="curve"/>
      <point x="487" y="1478" type="line"/>
      <point x="715" y="1727" type="line"/>
      <point x="612" y="1828" type="line"/>
      <point x="373" y="1563" type="line"/>
      <point x="575" y="1609" type="line"/>
      <point x="422" y="1717"/>
      <point x="305" y="1747"/>
      <point x="213" y="1772" type="curve"/>
      <point x="162" y="1635" type="line"/>
      <point x="224" y="1618"/>
      <point x="358" y="1547"/>
      <point x="450" y="1462" type="curve"/>
      <point x="461" y="1652" type="line"/>
      <point x="222" y="1390" type="line"/>
      <point x="331" y="1291" type="line"/>
      <point x="565" y="1559" type="line"/>
      <point x="384" y="1506" type="line"/>
      <point x="539" y="1411"/>
      <point x="648" y="1282"/>
      <point x="692" y="1108" type="curve"/>
      <point x="655" y="1126"/>
      <point x="597" y="1140"/>
      <point x="527" y="1140" type="curve" smooth="yes"/>
      <point x="297" y="1140"/>
      <point x="65" y="950"/>
      <point x="65" y="536" type="curve" smooth="yes"/>
      <point x="65" y="214"/>
      <point x="232" y="-22"/>
    </contour>
    <contour>
      <point x="558" y="120" type="curve" smooth="yes"/>
      <point x="430" y="120"/>
      <point x="385" y="351"/>
      <point x="385" y="570" type="curve" smooth="yes"/>
      <point x="385" y="880"/>
      <point x="451" y="1006"/>
      <point x="559" y="1006" type="curve" smooth="yes"/>
      <point x="635" y="1006"/>
      <point x="692" y="969"/>
      <point x="708" y="953" type="curve"/>
      <point x="721" y="903"/>
      <point x="733" y="765"/>
      <point x="733" y="616" type="curve" smooth="yes"/>
      <point x="733" y="270"/>
      <point x="671" y="120"/>
    </contour>
  </outline>
</glyph>
<glyph name="thorn" format="2">
  <advance width="1000"/>
  <unicode hex="00FE"/>
  <outline>
    <contour>
      <point x="10" y="-466" type="line"/>
      <point x="519" y="-466" type="line"/>
      <point x="519" y="-428" type="line"/>
      <point x="403" y="-394" type="line"/>
      <point x="403" y="-164" type="line"/>
      <point x="403" y="-2" type="line"/>
      <point x="422" y="-11"/>
      <point x="460" y="-24"/>
      <point x="496" y="-24" type="curve" smooth="yes"/>
      <point x="761" y="-24"/>
      <point x="965" y="177"/>
      <point x="965" y="576" type="curve" smooth="yes"/>
      <point x="965" y="864"/>
      <point x="854" y="1042"/>
      <point x="656" y="1042" type="curve" smooth="yes"/>
      <point x="536" y="1042"/>
      <point x="411" y="952"/>
      <point x="400" y="895" type="curve"/>
      <point x="400" y="1605" type="line"/>
      <point x="368" y="1639" type="line"/>
      <point x="300" y="1639" type="line"/>
      <point x="-18" y="1524" type="line"/>
      <point x="-18" y="1485" type="line"/>
      <point x="85" y="1438" type="line"/>
      <point x="86" y="-394" type="line"/>
      <point x="10" y="-428" type="line"/>
    </contour>
    <contour>
      <point x="491" y="41" type="curve" smooth="yes"/>
      <point x="449" y="41"/>
      <point x="418" y="69"/>
      <point x="402" y="113" type="curve"/>
      <point x="400" y="819" type="line"/>
      <point x="409" y="840"/>
      <point x="436" y="898"/>
      <point x="492" y="898" type="curve" smooth="yes"/>
      <point x="558" y="898"/>
      <point x="620" y="819"/>
      <point x="620" y="500" type="curve" smooth="yes"/>
      <point x="620" y="223"/>
      <point x="594" y="41"/>
    </contour>
  </outline>
</glyph>
<glyph name="iogonek" format="2">
  <advance width="515"/>
  <unicode hex="012F"/>
  <anchor x="269" y="0" name="bottom"/>
  <anchor x="359" y="-166" name="mark0"/>
  <anchor x="387" y="20" name="ogonek"/>
  <anchor x="271" y="1548" name="top"/>
  <outline>
    <contour>
      <point x="265" y="-483" type="curve" smooth="yes"/>
      <point x="354" y="-483"/>
      <point x="442" y="-449"/>
      <point x="490" y="-408" type="curve"/>
      <point x="491" y="-269" type="line"/>
      <point x="454" y="-286"/>
      <point x="425" y="-307"/>
      <point x="375" y="-307" type="curve" smooth="yes"/>
      <point x="307" y="-307"/>
      <point x="268" y="-265"/>
      <point x="268" y="-201" type="curve" smooth="yes"/>
      <point x="268" y="-138"/>
      <point x="312" y="-53"/>
      <point x="408" y="0" type="curve"/>
      <point x="315" y="38" type="line"/>
      <point x="242" y="0" type="line"/>
      <point x="108" y="-69"/>
      <point x="41" y="-185"/>
      <point x="41" y="-284" type="curve" smooth="yes"/>
      <point x="41" y="-423"/>
      <point x="163" y="-483"/>
    </contour>
    <component base="i"/>
  </outline>
</glyph>
<glyph name="idotless" format="2">
  <advance width="515"/>
  <unicode hex="0131"/>
  <anchor x="269" y="0" name="bottom"/>
  <anchor x="359" y="-166" name="mark0"/>
  <anchor x="387" y="20" name="ogonek"/>
  <anchor x="271" y="1110" name="top"/>
  <outline>
    <contour>
      <point x="112" y="73" type="line"/>
      <point x="35" y="38" type="line"/>
      <point x="35" y="0" type="line"/>
      <point x="517" y="0" type="line"/>
      <point x="517" y="38" type="line"/>
      <point x="428" y="70" type="line"/>
      <point x="428" y="990" type="line"/>
      <point x="393" y="1033" type="line"/>
      <point x="322" y="1035" type="line"/>
      <point x="6" y="918" type="line"/>
      <point x="6" y="881" type="line"/>
      <point x="112" y="834" type="line"/>
    </contour>
  </outline>
</glyph>
<glyph name="lslash" format="2">
  <advance width="823"/>
  <unicode hex="0142"/>
  <anchor x="412" y="0" name="bottom"/>
  <anchor x="397" y="-166" name="mark0"/>
  <anchor x="401" y="1634" name="top"/>
  <anchor x="697" y="1111" name="topright"/>
  <outline>
    <contour>
      <point x="252" y="890" type="line"/>
      <point x="65" y="805" type="line"/>
      <point x="65" y="652" type="line"/>
      <point x="252" y="735" type="line"/>
      <point x="536" y="860" type="line"/>
      <point x="741" y="953" type="line"/>
      <point x="741" y="1116" type="line"/>
      <point x="536" y="1019" type="line"/>
    </contour>
    <component base="l" xOffset="155"/>
  </outline>
</glyph>
<glyph name="OE" format="2">
  <advance width="2077"/>
  <unicode hex="0152"/>
  <outline>
    <contour>
      <point x="939" y="43" type="curve"/>
      <point x="939" y="0" type="line"/>
      <point x="1975" y="0" type="line"/>
      <point x="2042" y="372" type="line"/>
      <point x="1880" y="418" type="line"/>
      <point x="1740" y="165" type="line"/>
      <point x="1289" y="138" type="line"/>
      <point x="1289" y="682" type="line"/>
      <point x="1535" y="676" type="line"/>
      <point x="1568" y="502" type="line"/>
      <point x="1715" y="502" type="line"/>
      <point x="1715" y="1003" type="line"/>
      <point x="1568" y="1003" type="line"/>
      <point x="1535" y="842" type="line"/>
      <point x="1289" y="835" type="line"/>
      <point x="1289" y="1355" type="line"/>
      <point x="1688" y="1333" type="line"/>
      <point x="1755" y="1131" type="line"/>
      <point x="1914" y="1131" type="line"/>
      <point x="1886" y="1486" type="line"/>
      <point x="939" y="1486" type="line"/>
      <point x="939" y="1471" type="line"/>
      <point x="875" y="1497"/>
      <point x="804" y="1509"/>
      <point x="727" y="1509" type="curve" smooth="yes"/>
      <point x="297" y="1505"/>
      <point x="34" y="1207"/>
      <point x="34" y="741" type="curve" smooth="yes"/>
      <point x="34" y="293"/>
      <point x="245" y="-18"/>
      <point x="706" y="-16" type="curve"/>
      <point x="791" y="-15"/>
      <point x="868" y="4"/>
    </contour>
    <contour>
      <point x="715" y="113" type="curve" smooth="yes"/>
      <point x="524" y="113"/>
      <point x="409" y="318"/>
      <point x="409" y="743" type="curve" smooth="yes"/>
      <point x="409" y="1164"/>
      <point x="519" y="1377"/>
      <point x="712" y="1377" type="curve" smooth="yes"/>
      <point x="820" y="1377"/>
      <point x="895" y="1334"/>
      <point x="939" y="1192" type="curve"/>
      <point x="939" y="341" type="line"/>
      <point x="894" y="201"/>
      <point x="821" y="113"/>
    </contour>
  </outline>
</glyph>
<glyph name="oe" format="2">
  <advance width="1687"/>
  <unicode hex="0153"/>
  <anchor x="1041" y="-166" name="mark0"/>
  <outline>
    <contour>
      <point x="533" y="-24" type="curve" smooth="yes"/>
      <point x="666" y="-24"/>
      <point x="792" y="10"/>
      <point x="888" y="85" type="curve"/>
      <point x="967" y="15"/>
      <point x="1081" y="-24"/>
      <point x="1237" y="-24" type="curve" smooth="yes"/>
      <point x="1410" y="-24"/>
      <point x="1577" y="65"/>
      <point x="1632" y="126" type="curve"/>
      <point x="1606" y="182" type="line"/>
      <point x="1550" y="139"/>
      <point x="1442" y="116"/>
      <point x="1371" y="116" type="curve" smooth="yes"/>
      <point x="1200" y="116"/>
      <point x="1108" y="225"/>
      <point x="1098" y="502" type="curve"/>
      <point x="1647" y="502" type="line"/>
      <point x="1657" y="527"/>
      <point x="1663" y="584"/>
      <point x="1663" y="675" type="curve" smooth="yes"/>
      <point x="1659" y="913"/>
      <point x="1506" y="1042"/>
      <point x="1248" y="1042" type="curve" smooth="yes"/>
      <point x="1117" y="1042"/>
      <point x="1006" y="1002"/>
      <point x="922" y="929" type="curve"/>
      <point x="841" y="1002"/>
      <point x="726" y="1039"/>
      <point x="580" y="1039" type="curve" smooth="yes"/>
      <point x="297" y="1039"/>
      <point x="33" y="869"/>
      <point x="33" y="498" type="curve" smooth="yes"/>
      <point x="33" y="150"/>
      <point x="212" y="-24"/>
    </contour>
    <contour>
      <point x="415" y="522" type="curve" smooth="yes"/>
      <point x="415" y="835"/>
      <point x="459" y="983"/>
      <point x="561" y="983" type="curve" smooth="yes"/>
      <point x="676" y="983"/>
      <point x="700" y="809"/>
      <point x="700" y="489" type="curve" smooth="yes"/>
      <point x="700" y="168"/>
      <point x="662" y="32"/>
      <point x="560" y="32" type="curve" smooth="yes"/>
      <point x="446" y="32"/>
      <point x="415" y="193"/>
    </contour>
    <contour>
      <point x="1096" y="556" type="line"/>
      <point x="1106" y="902"/>
      <point x="1161" y="986"/>
      <point x="1228" y="986" type="curve" smooth="yes"/>
      <point x="1303" y="986"/>
      <point x="1315" y="888"/>
      <point x="1315" y="689" type="curve" smooth="yes"/>
      <point x="1315" y="663"/>
      <point x="1313" y="595"/>
      <point x="1313" y="569" type="curve"/>
    </contour>
  </outline>
</glyph>
<glyph name="ezh" format="2">
  <advance width="892"/>
  <unicode hex="0292"/>
  <anchor x="453" y="1110" name="top"/>
  <outline>
    <contour>
      <point x="518" y="375" type="curve"/>
      <point x="887" y="951" type="line"/>
      <point x="865" y="1005" type="line"/>
      <point x="67" y="1005" type="line"/>
      <point x="53" y="652" type="line"/>
      <point x="220" y="652" type="line"/>
      <point x="282" y="936" type="line"/>
      <point x="580" y="951" type="line"/>
      <point x="196" y="363" type="line"/>
      <point x="246" y="324" type="line"/>
      <point x="575" y="364"/>
      <point x="561" y="160"/>
      <point x="561" y="-10" type="curve" smooth="yes"/>
      <point x="561" y="-226"/>
      <point x="464" y="-370"/>
      <point x="360" y="-370" type="curve" smooth="yes"/>
      <point x="305" y="-370"/>
      <point x="252" y="-347"/>
      <point x="228" y="-313" type="curve"/>
      <point x="166" y="-28" type="line"/>
      <point x="10" y="-28" type="line"/>
      <point x="25" y="-347" type="line"/>
      <point x="80" y="-347"/>
      <point x="207" y="-421"/>
      <point x="349" y="-421" type="curve" smooth="yes"/>
      <point x="685" y="-421"/>
      <point x="890" y="-271"/>
      <point x="890" y="23" type="curve" smooth="yes"/>
      <point x="890" y="247"/>
      <point x="724" y="388"/>
    </contour>
  </outline>
</glyph>
<glyph name="ringhalfleft" format="2">
  <unicode hex="02BF"/>
  <anchor x="0" y="1110" name="_top"/>
  <anchor x="0" y="1700" name="top"/>
  <outline>
    <contour>
      <point x="0" y="1122" type="curve"/>
      <point x="0" y="1179" type="line"/>
      <point x="-56" y="1184"/>
      <point x="-87" y="1246"/>
      <point x="-87" y="1375" type="curve" smooth="yes"/>
      <point x="-87" y="1498"/>
      <point x="-56" y="1576"/>
      <point x="0" y="1581" type="curve"/>
      <point x="0" y="1638" type="line"/>
      <point x="-119" y="1638"/>
      <point x="-263" y="1534"/>
      <point x="-263" y="1360" type="curve" smooth="yes"/>
      <point x="-263" y="1205"/>
      <point x="-162" y="1122"/>
    </contour>
  </outline>
</glyph>
<glyph name="acutecomb" format="2">
  <unicode hex="0301"/>
  <anchor x="0" y="1110" name="_top"/>
  <anchor x="0" y="1603" name="top"/>
  <outline>
    <contour>
      <point x="-130" y="1120" type="line"/>
      <point x="8" y="1178"/>
      <point x="189" y="1318"/>
      <point x="288" y="1449" type="curve"/>
      <point x="77" y="1601" type="line"/>
      <point x="-171" y="1153" type="line"/>
      <point x="-132" y="1120" type="line"/>
    </contour>
  </outline>
</glyph>
<glyph name="tildecomb" format="2">
  <unicode hex="0303"/>
  <anchor x="0" y="1110" name="_top"/>
  <anchor x="0" y="1562" name="top"/>
  <outline>
    <contour>
      <point x="-298" y="1193" type="curve"/>
      <point x="-249" y="1177" type="line"/>
      <point x="-221" y="1266"/>
      <point x="-193" y="1286"/>
      <point x="-148" y="1286" type="curve" smooth="yes"/>
      <point x="-70" y="1286"/>
      <point x="-21" y="1140"/>
      <point x="101" y="1140" type="curve" smooth="yes"/>
      <point x="222" y="1140"/>
      <point x="292" y="1270"/>
      <point x="298" y="1447" type="curve"/>
      <point x="249" y="1463" type="line"/>
      <point x="221" y="1374"/>
      <point x="193" y="1354"/>
      <point x="148" y="1354" type="curve" smooth="yes"/>
      <point x="70" y="1354"/>
      <point x="21" y="1500"/>
      <point x="-101" y="1500" type="curve" smooth="yes"/>
      <point x="-222" y="1500"/>
      <point x="-292" y="1370"/>
    </contour>
  </outline>
</glyph>
<glyph name="brevecomb" format="2">
  <unicode hex="0306"/>
  <anchor x="0" y="1110" name="_top"/>
  <anchor x="0" y="1738" name="top"/>
  <outline>
    <contour>
      <point x="0" y="1240" type="curve" smooth="yes"/>
      <point x="162" y="1240"/>
      <point x="271" y="1382"/>
      <point x="271" y="1578" type="curve" smooth="yes"/>
      <point x="271" y="1608"/>
      <point x="270" y="1624"/>
      <point x="267" y="1645" type="curve"/>
      <point x="207" y="1645" type="line"/>
      <point x="207" y="1632"/>
      <point x="206" y="1615"/>
      <point x="202" y="1596" type="curve" smooth="yes"/>
      <point x="182" y="1500"/>
      <point x="105" y="1450"/>
      <point x="0" y="1450" type="curve" smooth="yes"/>
      <point x="-105" y="1450"/>
      <point x="-182" y="1500"/>
      <point x="-202" y="1596" type="curve" smooth="yes"/>
      <point x="-206" y="1615"/>
      <point x="-207" y="1632"/>
      <point x="-207" y="1645" type="curve"/>
      <point x="-267" y="1645" type="line"/>
      <point x="-270" y="1624"/>
      <point x="-271" y="1608"/>
      <point x="-271" y="1578" type="curve" smooth="yes"/>
      <point x="-271" y="1382"/>
      <point x="-162" y="1240"/>
    </contour>
  </outline>
</glyph>
<glyph name="dieresiscomb" format="2">
  <unicode hex="0308"/>
  <anchor x="0" y="1110" name="_top"/>
  <anchor x="0" y="1504" name="top"/>
  <outline>
    <contour>
      <point x="-199" y="1140" type="curve" smooth="yes"/>
      <point x="-197" y="1140" type="line" smooth="yes"/>
      <point x="-104" y="1140"/>
      <point x="-41" y="1237"/>
      <point x="-41" y="1332" type="curve" smooth="yes"/>
      <point x="-41" y="1428"/>
      <point x="-94" y="1486"/>
      <point x="-182" y="1486" type="curve" smooth="yes"/>
      <point x="-184" y="1486" type="line" smooth="yes"/>
      <point x="-275" y="1486"/>
      <point x="-340" y="1398"/>
      <point x="-340" y="1294" type="curve" smooth="yes"/>
      <point x="-340" y="1198"/>
      <point x="-287" y="1140"/>
    </contour>
    <contour>
      <point x="182" y="1140" type="curve" smooth="yes"/>
      <point x="184" y="1140" type="line" smooth="yes"/>
      <point x="277" y="1140"/>
      <point x="340" y="1237"/>
      <point x="340" y="1332" type="curve" smooth="yes"/>
      <point x="340" y="1428"/>
      <point x="287" y="1486"/>
      <point x="199" y="1486" type="curve" smooth="yes"/>
      <point x="197" y="1486" type="line" smooth="yes"/>
      <point x="106" y="1486"/>
      <point x="41" y="1398"/>
      <point x="41" y="1294" type="curve" smooth="yes"/>
      <point x="41" y="1198"/>
      <point x="94" y="1140"/>
    </contour>
  </outline>
</glyph>
<glyph name="hookabovecomb" format="2">
  <unicode hex="0309"/>
  <anchor x="0" y="1110" name="_top"/>
  <anchor x="0" y="1576" name="top"/>
  <outline>
    <contour>
      <point x="-31" y="1140" type="curve"/>
      <point x="23" y="1140" type="line"/>
      <point x="6" y="1221"/>
      <point x="13" y="1244"/>
      <point x="63" y="1282" type="curve" smooth="yes"/>
      <point x="146" y="1345"/>
      <point x="202" y="1392"/>
      <point x="202" y="1486" type="curve" smooth="yes"/>
      <point x="202" y="1604"/>
      <point x="88" y="1688"/>
      <point x="-51" y="1688" type="curve" smooth="yes"/>
      <point x="-100" y="1688"/>
      <point x="-148" y="1679"/>
      <point x="-183" y="1664" type="curve"/>
      <point x="-183" y="1488" type="line"/>
      <point x="-162" y="1499"/>
      <point x="-133" y="1504"/>
      <point x="-106" y="1504" type="curve" smooth="yes"/>
      <point x="-63" y="1504"/>
      <point x="-6" y="1481"/>
      <point x="-6" y="1422" type="curve" smooth="yes"/>
      <point x="-6" y="1345"/>
      <point x="-72" y="1315"/>
      <point x="-72" y="1243" type="curve" smooth="yes"/>
      <point x="-72" y="1199"/>
      <point x="-54" y="1171"/>
    </contour>
  </outline>
</glyph>
<glyph name="caroncomb" format="2">
  <unicode hex="030C"/>
  <anchor x="0" y="1110" name="_top"/>
  <anchor x="0" y="1770" name="top"/>
  <outline>
    <contour>
      <point x="-277" y="1597" type="line"/>
      <point x="-315" y="1564" type="line"/>
      <point x="-81" y="1168" type="line"/>
      <point x="81" y="1168" type="line"/>
      <point x="315" y="1564" type="line"/>
      <point x="277" y="1597" type="line"/>
      <point x="0" y="1384" type="line"/>
    </contour>
  </outline>
</glyph>
<glyph name="dblgravecomb" format="2">
  <unicode hex="030F"/>
  <anchor x="0" y="1110" name="_top"/>
  <anchor x="0" y="1742" name="top"/>
  <outline>
    <contour>
      <point x="226" y="1120" type="curve"/>
      <point x="228" y="1120" type="line"/>
      <point x="267" y="1153" type="line"/>
      <point x="107" y="1601" type="line"/>
      <point x="-108" y="1479" type="line"/>
      <point x="-35" y="1352"/>
      <point x="121" y="1193"/>
    </contour>
    <contour>
      <point x="-116" y="1120" type="curve"/>
      <point x="-114" y="1120" type="line"/>
      <point x="-75" y="1153" type="line"/>
      <point x="-235" y="1601" type="line"/>
      <point x="-450" y="1479" type="line"/>
      <point x="-377" y="1352"/>
      <point x="-221" y="1193"/>
    </contour>
  </outline>
</glyph>
<glyph name="commaturnedabovecomb" format="2">
  <unicode hex="0312"/>
  <anchor x="0" y="1110" name="_top"/>
  <anchor x="0" y="1729" name="top"/>
  <outline>
    <contour>
      <point x="6" y="1140" type="curve" smooth="yes"/>
      <point x="13" y="1140" type="line" smooth="yes"/>
      <point x="74" y="1140"/>
      <point x="143" y="1185"/>
      <point x="143" y="1268" type="curve" smooth="yes"/>
      <point x="143" y="1308"/>
      <point x="128" y="1336"/>
      <point x="93" y="1363" type="curve" smooth="yes"/>
      <point x="48" y="1397"/>
      <point x="32" y="1409"/>
      <point x="32" y="1450" type="curve" smooth="yes"/>
      <point x="32" y="1484"/>
      <point x="48" y="1526"/>
      <point x="83" y="1561" type="curve"/>
      <point x="83" y="1569" type="line"/>
      <point x="47" y="1593" type="line"/>
      <point x="45" y="1593" type="line"/>
      <point x="-28" y="1548"/>
      <point x="-143" y="1438"/>
      <point x="-143" y="1306" type="curve" smooth="yes"/>
      <point x="-143" y="1209"/>
      <point x="-81" y="1140"/>
    </contour>
  </outline>
</glyph>
<glyph name="commaaccentcomb" format="2">
  <unicode hex="0326"/>
  <anchor x="0" y="0" name="_bottom"/>
  <anchor x="0" y="-545" name="bottom"/>
  <outline>
    <contour>
      <point x="143" y="-295" type="curve" smooth="yes"/>
      <point x="143" y="-198"/>
      <point x="81" y="-129"/>
      <point x="-6" y="-129" type="curve" smooth="yes"/>
      <point x="-13" y="-129" type="line" smooth="yes"/>
      <point x="-74" y="-129"/>
      <point x="-143" y="-174"/>
      <point x="-143" y="-257" type="curve" smooth="yes"/>
      <point x="-143" y="-297"/>
      <point x="-128" y="-325"/>
      <point x="-93" y="-352" type="curve" smooth="yes"/>
      <point x="-48" y="-386"/>
      <point x="-32" y="-398"/>
      <point x="-32" y="-439" type="curve" smooth="yes"/>
      <point x="-32" y="-473"/>
      <point x="-48" y="-515"/>
      <point x="-83" y="-550" type="curve"/>
      <point x="-83" y="-558" type="line"/>
      <point x="-47" y="-582" type="line"/>
      <point x="-45" y="-582" type="line"/>
      <point x="28" y="-537"/>
      <point x="143" y="-427"/>
    </contour>
  </outline>
</glyph>
<glyph name="pi" format="2">
  <advance width="1351"/>
  <unicode hex="03C0"/>
  <outline>
    <contour>
      <point x="141" y="100" type="curve"/>
      <point x="316" y="-20" type="line"/>
      <point x="464" y="-20"/>
      <point x="536" y="117"/>
      <point x="560" y="359" type="curve" smooth="yes"/>
      <point x="593" y="702" type="line"/>
      <point x="847" y="702" type="line"/>
      <point x="785" y="560"/>
      <point x="731" y="359"/>
      <point x="731" y="207" type="curve"/>
      <point x="731" y="74"/>
      <point x="815" y="-20"/>
      <point x="922" y="-20" type="curve" smooth="yes"/>
      <point x="1088" y="-20"/>
      <point x="1161" y="143"/>
      <point x="1201" y="351" type="curve"/>
      <point x="1157" y="351" type="line"/>
      <point x="1128" y="244"/>
      <point x="1077" y="202"/>
      <point x="1023" y="202" type="curve" smooth="yes"/>
      <point x="975" y="202"/>
      <point x="896" y="244"/>
      <point x="896" y="415" type="curve"/>
      <point x="896" y="546"/>
      <point x="885" y="591"/>
      <point x="901" y="702" type="curve"/>
      <point x="1033" y="702" type="line" smooth="yes"/>
      <point x="1179" y="702"/>
      <point x="1241" y="877"/>
      <point x="1241" y="1122" type="curve"/>
      <point x="1160" y="1122" type="line"/>
      <point x="1149" y="1044"/>
      <point x="1120" y="1024"/>
      <point x="1045" y="1024" type="curve" smooth="yes"/>
      <point x="453" y="1024" type="line" smooth="yes"/>
      <point x="244" y="1024"/>
      <point x="163" y="879"/>
      <point x="163" y="595" type="curve"/>
      <point x="243" y="588" type="line"/>
      <point x="252" y="667"/>
      <point x="290" y="702"/>
      <point x="358" y="702" type="curve" smooth="yes"/>
      <point x="541" y="702" type="line"/>
      <point x="490" y="507" type="line" smooth="yes"/>
      <point x="445" y="332"/>
      <point x="347" y="152"/>
    </contour>
  </outline>
</glyph>
<glyph name="Yi-cy" format="2">
  <advance width="657"/>
  <unicode hex="0407"/>
  <anchor x="314" y="-23" name="bottom"/>
  <anchor x="316" y="-143" name="mark0"/>
  <anchor x="588" y="20" name="ogonek"/>
  <anchor x="314" y="1486" name="top"/>
  <anchor x="47" y="1486" name="topleft"/>
  <outline>
    <contour>
      <point x="127" y="1589" type="curve" smooth="yes"/>
      <point x="129" y="1589" type="line" smooth="yes"/>
      <point x="222" y="1589"/>
      <point x="285" y="1686"/>
      <point x="285" y="1781" type="curve" smooth="yes"/>
      <point x="285" y="1877"/>
      <point x="232" y="1935"/>
      <point x="144" y="1935" type="curve" smooth="yes"/>
      <point x="142" y="1935" type="line" smooth="yes"/>
      <point x="51" y="1935"/>
      <point x="-14" y="1847"/>
      <point x="-14" y="1743" type="curve" smooth="yes"/>
      <point x="-14" y="1647"/>
      <point x="39" y="1589"/>
    </contour>
    <contour>
      <point x="484" y="1589" type="curve" smooth="yes"/>
      <point x="486" y="1589" type="line" smooth="yes"/>
      <point x="579" y="1589"/>
      <point x="642" y="1686"/>
      <point x="642" y="1781" type="curve" smooth="yes"/>
      <point x="642" y="1877"/>
      <point x="589" y="1935"/>
      <point x="501" y="1935" type="curve" smooth="yes"/>
      <point x="499" y="1935" type="line" smooth="yes"/>
      <point x="408" y="1935"/>
      <point x="343" y="1847"/>
      <point x="343" y="1743" type="curve" smooth="yes"/>
      <point x="343" y="1647"/>
      <point x="396" y="1589"/>
    </contour>
    <component base="I"/>
  </outline>
</glyph>
<glyph name="Dzhe-cy" format="2">
  <advance width="1328"/>
  <unicode hex="040F"/>
  <outline>
    <contour>
      <point x="580" y="-410" type="curve"/>
      <point x="750" y="-410" type="line"/>
      <point x="752" y="-274"/>
      <point x="785" y="-51"/>
      <point x="802" y="0" type="curve"/>
      <point x="1288" y="0" type="line"/>
      <point x="1288" y="37" type="line"/>
      <point x="1174" y="72" type="line"/>
      <point x="1174" y="1414" type="line"/>
      <point x="1286" y="1449" type="line"/>
      <point x="1286" y="1486" type="line"/>
      <point x="702" y="1486" type="line"/>
      <point x="702" y="1449" type="line"/>
      <point x="824" y="1414" type="line"/>
      <point x="824" y="66" type="line"/>
      <point x="506" y="66" type="line"/>
      <point x="506" y="1414" type="line"/>
      <point x="629" y="1449" type="line"/>
      <point x="629" y="1486" type="line"/>
      <point x="41" y="1486" type="line"/>
      <point x="41" y="1449" type="line"/>
      <point x="156" y="1414" type="line"/>
      <point x="156" y="72" type="line"/>
      <point x="40" y="37" type="line"/>
      <point x="40" y="0" type="line"/>
      <point x="523" y="0" type="line"/>
      <point x="536" y="-19"/>
      <point x="580" y="-304"/>
    </contour>
  </outline>
</glyph>
<glyph name="Ge-cy" format="2">
  <advance width="1019"/>
  <unicode hex="0413"/>
  <anchor x="409" y="0" name="bottomright"/>
  <anchor x="568" y="744" name="center"/>
  <anchor x="534" y="1486" name="top"/>
  <outline>
    <contour>
      <point x="40" y="0" type="line"/>
      <point x="663" y="0" type="line"/>
      <point x="663" y="37" type="line"/>
      <point x="506" y="72" type="line"/>
      <point x="506" y="1432" type="line"/>
      <point x="719" y="1399" type="line"/>
      <point x="862" y="900" type="line"/>
      <point x="999" y="900" type="line"/>
      <point x="959" y="1486" type="line"/>
      <point x="41" y="1486" type="line"/>
      <point x="41" y="1449" type="line"/>
      <point x="152" y="1414" type="line"/>
      <point x="152" y="72" type="line"/>
      <point x="40" y="37" type="line"/>
    </contour>
  </outline>
</glyph>
<glyph name="Ze-cy" format="2">
  <advance width="1195"/>
  <unicode hex="0417"/>
  <anchor x="597" y="0" name="bottom"/>
  <anchor x="567" y="1486" name="top"/>
  <outline>
    <contour>
      <point x="522" y="-20" type="curve" smooth="yes"/>
      <point x="889" y="-20"/>
      <point x="1155" y="137"/>
      <point x="1155" y="405" type="curve" smooth="yes"/>
      <point x="1155" y="631"/>
      <point x="966" y="769"/>
      <point x="641" y="784" type="curve"/>
      <point x="846" y="815"/>
      <point x="1080" y="934"/>
      <point x="1080" y="1165" type="curve" smooth="yes"/>
      <point x="1080" y="1377"/>
      <point x="890" y="1502"/>
      <point x="571" y="1502" type="curve" smooth="yes"/>
      <point x="362" y="1502"/>
      <point x="305" y="1446"/>
      <point x="99" y="1441" type="curve"/>
      <point x="85" y="1053" type="line"/>
      <point x="313" y="1053" type="line"/>
      <point x="375" y="1385" type="line"/>
      <point x="390" y="1413"/>
      <point x="429" y="1444"/>
      <point x="507" y="1444" type="curve" smooth="yes"/>
      <point x="601" y="1444"/>
      <point x="661" y="1358"/>
      <point x="661" y="1149" type="curve" smooth="yes"/>
      <point x="661" y="898"/>
      <point x="573" y="806"/>
      <point x="477" y="806" type="curve"/>
      <point x="365" y="820" type="line"/>
      <point x="365" y="719" type="line"/>
      <point x="497" y="743" type="line"/>
      <point x="661" y="743"/>
      <point x="719" y="606"/>
      <point x="719" y="397" type="curve" smooth="yes"/>
      <point x="719" y="191"/>
      <point x="657" y="38"/>
      <point x="523" y="38" type="curve" smooth="yes"/>
      <point x="449" y="38"/>
      <point x="378" y="54"/>
      <point x="326" y="113" type="curve"/>
      <point x="246" y="460" type="line"/>
      <point x="78" y="472" type="line"/>
      <point x="70" y="63" type="line"/>
      <point x="170" y="49"/>
      <point x="265" y="-20"/>
    </contour>
  </outline>
</glyph>
<glyph name="Ii-cy" format="2">
  <advance width="1371"/>
  <unicode hex="0418"/>
  <anchor x="1302" y="0" name="bottomright"/>
  <anchor x="685" y="1486" name="top"/>
  <outline>
    <contour>
      <point x="40" y="0" type="line"/>
      <point x="626" y="0" type="line"/>
      <point x="626" y="37" type="line"/>
      <point x="502" y="72" type="line"/>
      <point x="502" y="182" type="line"/>
      <point x="815" y="964" type="line"/>
      <point x="868" y="1113" type="line"/>
      <point x="868" y="72" type="line"/>
      <point x="744" y="37" type="line"/>
      <point x="744" y="0" type="line"/>
      <point x="1331" y="0" type="line"/>
      <point x="1331" y="37" type="line"/>
      <point x="1218" y="72" type="line"/>
      <point x="1218" y="1414" type="line"/>
      <point x="1330" y="1449" type="line"/>
      <point x="1330" y="1486" type="line"/>
      <point x="744" y="1486" type="line"/>
      <point x="744" y="1449" type="line"/>
      <point x="868" y="1414" type="line"/>
      <point x="868" y="1250" type="line"/>
      <point x="582" y="524" type="line"/>
      <point x="502" y="317" type="line"/>
      <point x="502" y="1414" type="line"/>
      <point x="626" y="1449" type="line"/>
      <point x="626" y="1486" type="line"/>
      <point x="40" y="1486" type="line"/>
      <point x="40" y="1449" type="line"/>
      <point x="152" y="1414" type="line"/>
      <point x="152" y="72" type="line"/>
      <point x="40" y="37" type="line"/>
    </contour>
  </outline>
</glyph>
<glyph name="de-cy" format="2">
  <advance width="945"/>
  <unicode hex="0434"/>
  <outline>
    <contour>
      <point x="933" y="62" type="curve"/>
      <point x="835" y="62" type="line"/>
      <point x="835" y="934" type="line"/>
      <point x="927" y="967" type="line"/>
      <point x="927" y="1005" type="line"/>
      <point x="165" y="1005" type="line"/>
      <point x="165" y="967" type="line"/>
      <point x="291" y="934" type="line"/>
      <point x="291" y="458"/>
      <point x="206" y="181"/>
      <point x="99" y="67" type="curve"/>
      <point x="10" y="67" type="line"/>
      <point x="9" y="-76"/>
      <point x="4" y="-295"/>
      <point x="0" y="-405" type="curve"/>
      <point x="72" y="-405" type="line"/>
      <point x="97" y="-333"/>
      <point x="205" y="-68"/>
      <point x="239" y="0" type="curve"/>
      <point x="679" y="0" type="line"/>
      <point x="709" y="-64"/>
      <point x="773" y="-307"/>
      <point x="791" y="-409" type="curve"/>
      <point x="863" y="-409" type="line"/>
      <point x="877" y="-301"/>
      <point x="911" y="-70"/>
    </contour>
    <contour>
      <point x="354" y="870" type="curve" smooth="yes"/>
      <point x="354" y="941" type="line"/>
      <point x="523" y="941" type="line"/>
      <point x="523" y="62" type="line"/>
      <point x="178" y="62" type="line"/>
      <point x="261" y="176"/>
      <point x="354" y="446"/>
    </contour>
  </outline>
</glyph>
<glyph name="ze-cy" format="2">
  <advance width="837"/>
  <unicode hex="0437"/>
  <anchor x="363" y="0" name="bottom"/>
  <anchor x="407" y="1111" name="top"/>
  <outline>
    <contour>
      <point x="356" y="-21" type="curve" smooth="yes"/>
      <point x="691" y="-21"/>
      <point x="817" y="120"/>
      <point x="817" y="278" type="curve" smooth="yes"/>
      <point x="817" y="474"/>
      <point x="606" y="570"/>
      <point x="397" y="524" type="curve"/>
      <point x="489" y="508" type="line"/>
      <point x="667" y="552"/>
      <point x="783" y="636"/>
      <point x="783" y="796" type="curve" smooth="yes"/>
      <point x="783" y="959"/>
      <point x="658" y="1036"/>
      <point x="409" y="1036" type="curve" smooth="yes"/>
      <point x="212" y="1036"/>
      <point x="166" y="981"/>
      <point x="51" y="981" type="curve"/>
      <point x="55" y="691" type="line"/>
      <point x="223" y="691" type="line"/>
      <point x="265" y="914" type="line"/>
      <point x="269" y="945"/>
      <point x="294" y="974"/>
      <point x="373" y="974" type="curve" smooth="yes"/>
      <point x="414" y="974"/>
      <point x="463" y="919"/>
      <point x="463" y="777" type="curve" smooth="yes"/>
      <point x="463" y="648"/>
      <point x="446" y="576"/>
      <point x="390" y="559" type="curve" smooth="yes"/>
      <point x="321" y="538" type="line"/>
      <point x="321" y="470" type="line"/>
      <point x="342" y="474"/>
      <point x="364" y="493"/>
      <point x="400" y="493" type="curve" smooth="yes"/>
      <point x="465" y="493"/>
      <point x="469" y="389"/>
      <point x="469" y="251" type="curve" smooth="yes"/>
      <point x="469" y="84"/>
      <point x="410" y="41"/>
      <point x="374" y="41" type="curve" smooth="yes"/>
      <point x="344" y="41"/>
      <point x="263" y="73"/>
      <point x="251" y="107" type="curve"/>
      <point x="197" y="324" type="line"/>
      <point x="50" y="324" type="line"/>
      <point x="66" y="46" type="line"/>
      <point x="116" y="13"/>
      <point x="212" y="-21"/>
    </contour>
  </outline>
</glyph>
<glyph name="ii-cy" format="2">
  <advance width="1138"/>
  <unicode hex="0438"/>
  <anchor x="1090" y="0" name="bottomright"/>
  <anchor x="569" y="1111" name="top"/>
  <outline>
    <contour>
      <point x="30" y="0" type="line"/>
      <point x="511" y="0" type="line"/>
      <point x="511" y="38" type="line"/>
      <point x="439" y="71" type="line"/>
      <point x="439" y="127" type="line"/>
      <point x="637" y="558" type="line"/>
      <point x="701" y="730" type="line"/>
      <point x="701" y="71" type="line"/>
      <point x="623" y="38" type="line"/>
      <point x="623" y="0" type="line"/>
      <point x="1108" y="0" type="line"/>
      <point x="1108" y="38" type="line"/>
      <point x="1011" y="71" type="line"/>
      <point x="1011" y="934" type="line"/>
      <point x="1104" y="967" type="line"/>
      <point x="1104" y="1005" type="line"/>
      <point x="625" y="1005" type="line"/>
      <point x="625" y="967" type="line"/>
      <point x="701" y="934" type="line"/>
      <point x="701" y="878" type="line"/>
      <point x="499" y="433" type="line"/>
      <point x="439" y="275" type="line"/>
      <point x="439" y="934" type="line"/>
      <point x="513" y="967" type="line"/>
      <point x="513" y="1005" type="line"/>
      <point x="34" y="1005" type="line"/>
      <point x="34" y="967" type="line"/>
      <point x="127" y="934" type="line"/>
      <point x="127" y="71" type="line"/>
      <point x="30" y="38" type="line"/>
    </contour>
  </outline>
</glyph>
<glyph name="en-cy" format="2">
  <advance width="1110"/>
  <unicode hex="043D"/>
  <anchor x="1068" y="0" name="bottomright"/>
  <outline>
    <contour>
      <point x="34" y="1005" type="line"/>
      <point x="34" y="967" type="line"/>
      <point x="127" y="934" type="line"/>
      <point x="127" y="71" type="line"/>
      <point x="30" y="38" type="line"/>
      <point x="30" y="0" type="line"/>
      <point x="522" y="0" type="line"/>
      <point x="522" y="38" type="line"/>
      <point x="441" y="71" type="line"/>
      <point x="441" y="487" type="line"/>
      <point x="667" y="487" type="line"/>
      <point x="667" y="71" type="line"/>
      <point x="586" y="38" type="line"/>
      <point x="586" y="0" type="line"/>
      <point x="1080" y="0" type="line"/>
      <point x="1080" y="38" type="line"/>
      <point x="983" y="71" type="line"/>
      <point x="983" y="934" type="line"/>
      <point x="1076" y="967" type="line"/>
      <point x="1076" y="1005" type="line"/>
      <point x="586" y="1005" type="line"/>
      <point x="586" y="967" type="line"/>
      <point x="667" y="934" type="line"/>
      <point x="667" y="549" type="line"/>
      <point x="441" y="549" type="line"/>
      <point x="441" y="934" type="line"/>
      <point x="522" y="967" type="line"/>
      <point x="522" y="1005" type="line"/>
    </contour>
  </outline>
</glyph>
<glyph name="te-cy" format="2">
  <advance width="962"/>
  <unicode hex="0442"/>
  <anchor x="558" y="-166" name="mark0"/>
  <outline>
    <contour>
      <point x="24" y="1005" type="line"/>
      <point x="12" y="593" type="line"/>
      <point x="196" y="593" type="line"/>
      <point x="236" y="955" type="line"/>
      <point x="324" y="959" type="line"/>
      <point x="324" y="71" type="line"/>
      <point x="204" y="38" type="line"/>
      <point x="204" y="0" type="line"/>
      <point x="758" y="0" type="line"/>
      <point x="758" y="38" type="line"/>
      <point x="638" y="71" type="line"/>
      <point x="638" y="959" type="line"/>
      <point x="726" y="955" type="line"/>
      <point x="766" y="593" type="line"/>
      <point x="950" y="593" type="line"/>
      <point x="938" y="1005" type="line"/>
    </contour>
  </outline>
</glyph>
<glyph name="ef-cy" format="2">
  <advance width="1442"/>
  <unicode hex="0444"/>
  <outline>
    <contour>
      <point x="580" y="111" type="curve"/>
      <point x="573" y="-92" type="line"/>
      <point x="573" y="-375" type="line"/>
      <point x="457" y="-409" type="line"/>
      <point x="457" y="-447" type="line"/>
      <point x="985" y="-447" type="line"/>
      <point x="985" y="-409" type="line"/>
      <point x="869" y="-375" type="line"/>
      <point x="869" y="-92" type="line"/>
      <point x="864" y="35" type="line"/>
      <point x="895" y="1"/>
      <point x="937" y="-22"/>
      <point x="1014" y="-22" type="curve" smooth="yes"/>
      <point x="1274" y="-22"/>
      <point x="1409" y="202"/>
      <point x="1409" y="532" type="curve" smooth="yes"/>
      <point x="1409" y="873"/>
      <point x="1264" y="1039"/>
      <point x="1086" y="1039" type="curve" smooth="yes"/>
      <point x="954" y="1039"/>
      <point x="881" y="960"/>
      <point x="863" y="905" type="curve"/>
      <point x="869" y="1146" type="line"/>
      <point x="869" y="1603" type="line"/>
      <point x="826" y="1634" type="line"/>
      <point x="777" y="1634" type="line"/>
      <point x="473" y="1544" type="line"/>
      <point x="473" y="1515" type="line"/>
      <point x="573" y="1487" type="line"/>
      <point x="573" y="1146" type="line"/>
      <point x="579" y="982" type="line"/>
      <point x="548" y="1016"/>
      <point x="500" y="1039"/>
      <point x="427" y="1039" type="curve" smooth="yes"/>
      <point x="167" y="1039"/>
      <point x="33" y="815"/>
      <point x="33" y="485" type="curve" smooth="yes"/>
      <point x="33" y="144"/>
      <point x="178" y="-22"/>
      <point x="357" y="-22" type="curve" smooth="yes"/>
      <point x="489" y="-22"/>
      <point x="561" y="57"/>
    </contour>
    <contour>
      <point x="573" y="888" type="curve"/>
      <point x="573" y="160" type="line"/>
      <point x="562" y="130"/>
      <point x="533" y="92"/>
      <point x="495" y="92" type="curve" smooth="yes"/>
      <point x="428" y="92"/>
      <point x="365" y="213"/>
      <point x="365" y="543" type="curve" smooth="yes"/>
      <point x="365" y="812"/>
      <point x="411" y="975"/>
      <point x="488" y="975" type="curve" smooth="yes"/>
      <point x="524" y="975"/>
      <point x="556" y="938"/>
    </contour>
    <contour>
      <point x="869" y="128" type="curve"/>
      <point x="869" y="857" type="line"/>
      <point x="884" y="893"/>
      <point x="912" y="925"/>
      <point x="947" y="925" type="curve" smooth="yes"/>
      <point x="1014" y="925"/>
      <point x="1077" y="805"/>
      <point x="1077" y="474" type="curve" smooth="yes"/>
      <point x="1077" y="204"/>
      <point x="1031" y="42"/>
      <point x="954" y="42" type="curve" smooth="yes"/>
      <point x="919" y="42"/>
      <point x="887" y="77"/>
    </contour>
  </outline>
</glyph>
<glyph name="che-cy" format="2">
  <advance width="1029"/>
  <unicode hex="0447"/>
  <anchor x="1087" y="0" name="bottomright"/>
  <anchor x="584" y="556" name="center"/>
  <anchor x="488" y="1111" name="top"/>
  <outline>
    <contour>
      <point x="588" y="449" type="curve"/>
      <point x="588" y="71" type="line"/>
      <point x="472" y="39" type="line"/>
      <point x="472" y="0" type="line"/>
      <point x="999" y="0" type="line"/>
      <point x="999" y="39" type="line"/>
      <point x="902" y="71" type="line"/>
      <point x="902" y="937" type="line"/>
      <point x="996" y="969" type="line"/>
      <point x="996" y="1005" type="line"/>
      <point x="522" y="1005" type="line"/>
      <point x="522" y="969" type="line"/>
      <point x="588" y="935" type="line"/>
      <point x="588" y="505" type="line"/>
      <point x="566" y="482"/>
      <point x="540" y="463"/>
      <point x="495" y="463" type="curve" smooth="yes"/>
      <point x="390" y="463"/>
      <point x="388" y="567"/>
      <point x="388" y="736" type="curve" smooth="yes"/>
      <point x="388" y="935" type="line"/>
      <point x="454" y="969" type="line"/>
      <point x="454" y="1005" type="line"/>
      <point x="-16" y="1005" type="line"/>
      <point x="-16" y="969" type="line"/>
      <point x="71" y="937" type="line"/>
      <point x="71" y="708" type="line" smooth="yes"/>
      <point x="71" y="513"/>
      <point x="133" y="365"/>
      <point x="366" y="365" type="curve" smooth="yes"/>
      <point x="477" y="365"/>
      <point x="552" y="400"/>
    </contour>
  </outline>
</glyph>
<glyph name="hardsign-cy" format="2">
  <advance width="1132"/>
  <unicode hex="044A"/>
  <outline>
    <contour>
      <point x="188" y="0" type="line"/>
      <point x="467" y="0" type="line" smooth="yes"/>
      <point x="532" y="0"/>
      <point x="738" y="-6"/>
      <point x="787" y="-6" type="curve" smooth="yes"/>
      <point x="1012" y="-6"/>
      <point x="1126" y="114"/>
      <point x="1126" y="344" type="curve" smooth="yes"/>
      <point x="1126" y="560"/>
      <point x="1007" y="644"/>
      <point x="816" y="644" type="curve" smooth="yes"/>
      <point x="735" y="644"/>
      <point x="684" y="629"/>
      <point x="640" y="610" type="curve"/>
      <point x="640" y="933" type="line"/>
      <point x="770" y="967" type="line"/>
      <point x="770" y="1005" type="line"/>
      <point x="24" y="1005" type="line"/>
      <point x="12" y="593" type="line"/>
      <point x="196" y="593" type="line"/>
      <point x="236" y="955" type="line"/>
      <point x="324" y="959" type="line"/>
      <point x="324" y="72" type="line"/>
      <point x="188" y="38" type="line"/>
    </contour>
    <contour>
      <point x="675" y="52" type="curve" smooth="yes"/>
      <point x="660" y="52"/>
      <point x="649" y="56"/>
      <point x="640" y="61" type="curve"/>
      <point x="640" y="568" type="line"/>
      <point x="648" y="573"/>
      <point x="666" y="578"/>
      <point x="686" y="578" type="curve" smooth="yes"/>
      <point x="747" y="578"/>
      <point x="804" y="507"/>
      <point x="804" y="329" type="curve" smooth="yes"/>
      <point x="804" y="144"/>
      <point x="742" y="52"/>
    </contour>
  </outline>
</glyph>
<glyph name="softsign-cy" format="2">
  <advance width="932"/>
  <unicode hex="044C"/>
  <outline>
    <contour>
      <point x="30" y="0" type="line"/>
      <point x="250" y="0" type="line" smooth="yes"/>
      <point x="315" y="0"/>
      <point x="520" y="-6"/>
      <point x="569" y="-6" type="curve" smooth="yes"/>
      <point x="789" y="-6"/>
      <point x="908" y="124"/>
      <point x="908" y="344" type="curve" smooth="yes"/>
      <point x="908" y="570"/>
      <point x="781" y="645"/>
      <point x="599" y="645" type="curve" smooth="yes"/>
      <point x="514" y="645"/>
      <point x="464" y="629"/>
      <point x="422" y="611" type="curve"/>
      <point x="422" y="933" type="line"/>
      <point x="532" y="967" type="line"/>
      <point x="532" y="1005" type="line"/>
      <point x="34" y="1005" type="line"/>
      <point x="34" y="967" type="line"/>
      <point x="106" y="933" type="line"/>
      <point x="106" y="72" type="line"/>
      <point x="30" y="38" type="line"/>
    </contour>
    <contour>
      <point x="457" y="52" type="curve" smooth="yes"/>
      <point x="445" y="52"/>
      <point x="430" y="57"/>
      <point x="422" y="62" type="curve"/>
      <point x="422" y="569" type="line"/>
      <point x="430" y="574"/>
      <point x="450" y="579"/>
      <point x="468" y="579" type="curve" smooth="yes"/>
      <point x="526" y="579"/>
      <point x="586" y="506"/>
      <point x="586" y="328" type="curve" smooth="yes"/>
      <point x="586" y="142"/>
      <point x="522" y="52"/>
    </contour>
  </outline>
</glyph>
<glyph name="dje-cy" format="2">
  <advance width="1348"/>
  <unicode hex="0452"/>
  <outline>
    <contour>
      <point x="524" y="-485" type="curve"/>
      <point x="734" y="-485"/>
      <point x="937" y="-318"/>
      <point x="937" y="53" type="curve"/>
      <point x="937" y="640" type="line"/>
      <point x="937" y="914"/>
      <point x="862" y="1032"/>
      <point x="679" y="1032" type="curve"/>
      <point x="550" y="1032"/>
      <point x="450" y="950"/>
      <point x="406" y="869" type="curve"/>
      <point x="406" y="1146" type="line"/>
      <point x="406" y="1244" type="line"/>
      <point x="679" y="1244" type="line"/>
      <point x="679" y="1304" type="line"/>
      <point x="407" y="1304" type="line"/>
      <point x="408" y="1608" type="line"/>
      <point x="388" y="1634" type="line"/>
      <point x="335" y="1634" type="line"/>
      <point x="-18" y="1519" type="line"/>
      <point x="-18" y="1480" type="line"/>
      <point x="91" y="1433" type="line"/>
      <point x="91" y="1304" type="line"/>
      <point x="-20" y="1304" type="line"/>
      <point x="-20" y="1244" type="line"/>
      <point x="91" y="1244" type="line"/>
      <point x="91" y="72" type="line"/>
      <point x="14" y="38" type="line"/>
      <point x="14" y="0" type="line"/>
      <point x="494" y="0" type="line" smooth="yes"/>
      <point x="494" y="38" type="line" smooth="yes"/>
      <point x="406" y="72" type="line" smooth="yes"/>
      <point x="406" y="807" type="line" smooth="yes"/>
      <point x="435" y="843"/>
      <point x="476" y="870"/>
      <point x="524" y="870" type="curve"/>
      <point x="598" y="870"/>
      <point x="619" y="790"/>
      <point x="619" y="626" type="curve"/>
      <point x="619" y="-7" type="line"/>
      <point x="619" y="-233"/>
      <point x="590" y="-331"/>
      <point x="503" y="-375" type="curve" smooth="yes"/>
      <point x="463" y="-395"/>
      <point x="416" y="-399"/>
      <point x="383" y="-399" type="curve" smooth="yes"/>
      <point x="398" y="-469" type="line" smooth="yes"/>
      <point x="416" y="-476"/>
      <point x="464" y="-485"/>
    </contour>
  </outline>
</glyph>
<glyph name="dzhe-cy" format="2">
  <advance width="1045"/>
  <unicode hex="045F"/>
  <outline>
    <contour>
      <point x="30" y="0" type="line"/>
      <point x="402" y="0" type="line"/>
      <point x="423" y="-78"/>
      <point x="467" y="-268"/>
      <point x="495" y="-412" type="curve"/>
      <point x="567" y="-412" type="line"/>
      <point x="589" y="-262"/>
      <point x="622" y="-80"/>
      <point x="638" y="0" type="curve"/>
      <point x="1007" y="0" type="line"/>
      <point x="1007" y="38" type="line"/>
      <point x="935" y="71" type="line"/>
      <point x="935" y="934" type="line"/>
      <point x="1015" y="967" type="line"/>
      <point x="1015" y="1005" type="line"/>
      <point x="542" y="1005" type="line"/>
      <point x="542" y="967" type="line"/>
      <point x="618" y="934" type="line"/>
      <point x="618" y="64" type="line"/>
      <point x="422" y="64" type="line"/>
      <point x="422" y="934" type="line"/>
      <point x="498" y="967" type="line"/>
      <point x="498" y="1005" type="line"/>
      <point x="32" y="1005" type="line"/>
      <point x="32" y="967" type="line"/>
      <point x="106" y="934" type="line"/>
      <point x="106" y="71" type="line"/>
      <point x="30" y="38" type="line"/>
    </contour>
  </outline>
</glyph>
<glyph name="yat-cy" format="2">
  <advance width="1141"/>
  <unicode hex="0463"/>
  <outline>
    <contour>
      <point x="766" y="-12" type="curve" smooth="yes"/>
      <point x="985" y="-12"/>
      <point x="1135" y="103"/>
      <point x="1135" y="323" type="curve"/>
      <point x="1135" y="531"/>
      <point x="1002" y="605"/>
      <point x="821" y="605" type="curve"/>
      <point x="740" y="605"/>
      <point x="676" y="590"/>
      <point x="635" y="570" type="curve"/>
      <point x="635" y="977" type="line"/>
      <point x="726" y="973" type="line"/>
      <point x="766" y="701" type="line"/>
      <point x="950" y="701" type="line"/>
      <point x="938" y="1023" type="line"/>
      <point x="635" y="1023" type="line"/>
      <point x="635" y="1609" type="line"/>
      <point x="616" y="1634" type="line"/>
      <point x="563" y="1634" type="line"/>
      <point x="208" y="1519" type="line"/>
      <point x="208" y="1480" type="line"/>
      <point x="319" y="1433" type="line"/>
      <point x="319" y="1023" type="line"/>
      <point x="24" y="1023" type="line"/>
      <point x="12" y="701" type="line"/>
      <point x="196" y="701" type="line"/>
      <point x="236" y="973" type="line"/>
      <point x="319" y="977" type="line"/>
      <point x="319" y="71" type="line"/>
      <point x="207" y="38" type="line" smooth="yes"/>
      <point x="207" y="0" type="line" smooth="yes"/>
      <point x="456" y="0" type="line" smooth="yes"/>
      <point x="539" y="0"/>
      <point x="699" y="-12"/>
    </contour>
    <contour>
      <point x="679" y="46" type="curve" smooth="yes"/>
      <point x="662" y="46"/>
      <point x="644" y="53"/>
      <point x="635" y="62" type="curve"/>
      <point x="635" y="527" type="line"/>
      <point x="642" y="533"/>
      <point x="665" y="539"/>
      <point x="684" y="539" type="curve" smooth="yes"/>
      <point x="747" y="539"/>
      <point x="813" y="478"/>
      <point x="813" y="307" type="curve" smooth="yes"/>
      <point x="813" y="129"/>
      <point x="744" y="46"/>
    </contour>
  </outline>
</glyph>
<glyph name="yusbig-cy" format="2">
  <advance width="1578"/>
  <unicode hex="046B"/>
  <outline>
    <contour>
      <point x="604" y="498" type="curve" smooth="yes"/>
      <point x="635" y="498" type="line"/>
      <point x="635" y="72" type="line"/>
      <point x="543" y="38" type="line"/>
      <point x="543" y="0" type="line"/>
      <point x="1039" y="0" type="line"/>
      <point x="1039" y="38" type="line"/>
      <point x="947" y="72" type="line"/>
      <point x="947" y="498" type="line"/>
      <point x="974" y="498" type="line" smooth="yes"/>
      <point x="1130" y="498"/>
      <point x="1100" y="0"/>
      <point x="1292" y="0" type="curve" smooth="yes"/>
      <point x="1578" y="0" type="line"/>
      <point x="1578" y="38" type="line"/>
      <point x="1538" y="56" type="line" smooth="yes"/>
      <point x="1398" y="119"/>
      <point x="1468" y="562"/>
      <point x="1094" y="562" type="curve" smooth="yes"/>
      <point x="976" y="562" type="line"/>
      <point x="1228" y="939" type="line"/>
      <point x="1224" y="1005" type="line"/>
      <point x="348" y="1005" type="line"/>
      <point x="344" y="939" type="line"/>
      <point x="605" y="562" type="line"/>
      <point x="490" y="562" type="line" smooth="yes"/>
      <point x="110" y="562"/>
      <point x="180" y="119"/>
      <point x="40" y="56" type="curve" smooth="yes"/>
      <point x="0" y="38" type="line"/>
      <point x="0" y="0" type="line"/>
      <point x="286" y="0" type="line" smooth="yes"/>
      <point x="482" y="0"/>
      <point x="452" y="498"/>
    </contour>
    <contour>
      <point x="645" y="939" type="line"/>
      <point x="1163" y="939" type="line"/>
      <point x="911" y="558" type="line"/>
      <point x="903" y="558" type="line"/>
    </contour>
  </outline>
</glyph>
<glyph name="Iishorttail-cy" format="2">
  <advance width="1412"/>
  <unicode hex="048A"/>
  <anchor x="1486" y="0" name="bottomright"/>
  <anchor x="685" y="1486" name="top"/>
  <outline>
    <contour>
      <point x="937" y="-406" type="curve"/>
      <point x="1099" y="-406" type="line"/>
      <point x="1117" y="-383"/>
      <point x="1326" y="-28"/>
      <point x="1372" y="71" type="curve"/>
      <point x="1137" y="71" type="line"/>
      <point x="1067" y="0" type="line"/>
      <point x="1067" y="-49"/>
      <point x="963" y="-345"/>
    </contour>
    <component base="Iishort-cy"/>
  </outline>
</glyph>
<glyph name="ertick-cy" format="2">
  <advance width="1019"/>
  <unicode hex="048F"/>
  <anchor x="548" y="-166" name="mark0"/>
  <anchor x="606" y="1112" name="top"/>
  <outline>
    <contour>
      <point x="624" y="95" type="line"/>
      <point x="680" y="140" type="line"/>
      <point x="532" y="328" type="line"/>
      <point x="473" y="280" type="line"/>
    </contour>
    <contour>
      <point x="803" y="-125" type="line"/>
      <point x="862" y="-77" type="line"/>
      <point x="712" y="108" type="line"/>
      <point x="656" y="63" type="line"/>
    </contour>
    <component base="p"/>
  </outline>
</glyph>
<glyph name="gheupturn-cy" format="2">
  <advance width="763"/>
  <unicode hex="0491"/>
  <anchor x="303" y="-166" name="mark0"/>
  <outline>
    <contour>
      <point x="659" y="1371" type="line"/>
      <point x="511" y="1005" type="line"/>
      <point x="33" y="1005" type="line"/>
      <point x="33" y="967" type="line"/>
      <point x="127" y="933" type="line"/>
      <point x="127" y="72" type="line"/>
      <point x="30" y="38" type="line"/>
      <point x="30" y="0" type="line"/>
      <point x="585" y="0" type="line"/>
      <point x="585" y="38" type="line"/>
      <point x="443" y="72" type="line"/>
      <point x="443" y="957" type="line"/>
      <point x="751" y="932" type="line"/>
      <point x="731" y="1371" type="line"/>
    </contour>
  </outline>
</glyph>
<glyph name="enghe-cy" format="2">
  <advance width="1275"/>
  <unicode hex="04A5"/>
  <outline>
    <contour>
      <point x="8" y="0" type="line"/>
      <point x="476" y="0" type="line"/>
      <point x="476" y="38" type="line"/>
      <point x="398" y="71" type="line"/>
      <point x="398" y="487" type="line"/>
      <point x="618" y="487" type="line"/>
      <point x="618" y="71" type="line"/>
      <point x="540" y="38" type="line"/>
      <point x="540" y="0" type="line"/>
      <point x="1034" y="0" type="line"/>
      <point x="1034" y="38" type="line"/>
      <point x="934" y="71" type="line"/>
      <point x="934" y="959" type="line"/>
      <point x="1026" y="955" type="line"/>
      <point x="1079" y="585" type="line"/>
      <point x="1263" y="585" type="line"/>
      <point x="1251" y="1005" type="line"/>
      <point x="542" y="1005" type="line"/>
      <point x="542" y="967" type="line"/>
      <point x="618" y="933" type="line"/>
      <point x="618" y="549" type="line"/>
      <point x="398" y="549" type="line"/>
      <point x="398" y="934" type="line"/>
      <point x="476" y="967" type="line"/>
      <point x="476" y="1005" type="line"/>
      <point x="10" y="1005" type="line"/>
      <point x="10" y="967" type="line"/>
      <point x="84" y="934" type="line"/>
      <point x="84" y="71" type="line"/>
      <point x="8" y="38" type="line"/>
    </contour>
  </outline>
</glyph>
<glyph name="ustraitstroke-cy" format="2">
  <advance width="939"/>
  <unicode hex="04B1"/>
  <anchor x="523" y="22" name="center"/>
  <outline>
    <contour>
      <point x="98" y="0" type="line"/>
      <point x="853" y="0" type="line"/>
      <point x="853" y="64" type="line"/>
      <point x="98" y="64" type="line"/>
    </contour>
    <component base="ustrait-cy"/>
  </outline>
</glyph>
<glyph name="Tetse-cy" format="2">
  <advance width="1887"/>
  <unicode hex="04B4"/>
  <outline>
    <contour>
      <point x="1612" y="-406" type="curve"/>
      <point x="1783" y="-406" type="line"/>
      <point x="1795" y="-340"/>
      <point x="1847" y="-29"/>
      <point x="1847" y="72" type="curve"/>
      <point x="1659" y="72" type="line"/>
      <point x="1659" y="1414" type="line"/>
      <point x="1786" y="1449" type="line"/>
      <point x="1786" y="1486" type="line"/>
      <point x="1199" y="1486" type="line"/>
      <point x="1199" y="1449" type="line"/>
      <point x="1306" y="1414" type="line"/>
      <point x="1306" y="66" type="line"/>
      <point x="753" y="66" type="line"/>
      <point x="753" y="1434" type="line"/>
      <point x="836" y="1416" type="line"/>
      <point x="980" y="924" type="line"/>
      <point x="1142" y="924" type="line"/>
      <point x="1110" y="1486" type="line"/>
      <point x="52" y="1486" type="line"/>
      <point x="20" y="924" type="line"/>
      <point x="180" y="924" type="line"/>
      <point x="327" y="1416" type="line"/>
      <point x="409" y="1434" type="line"/>
      <point x="409" y="83" type="line"/>
      <point x="204" y="38" type="line"/>
      <point x="204" y="0" type="line"/>
      <point x="1566" y="0" type="line"/>
      <point x="1586" y="-52"/>
      <point x="1612" y="-342"/>
    </contour>
  </outline>
</glyph>
<glyph name="Kahook-cy" format="2">
  <advance width="1299"/>
  <unicode hex="04C3"/>
  <outline>
    <contour>
      <point x="704" y="-410" type="curve" smooth="yes"/>
      <point x="1028" y="-410"/>
      <point x="1236" y="-141"/>
      <point x="1236" y="286" type="curve" smooth="yes"/>
      <point x="1236" y="667"/>
      <point x="1075" y="857"/>
      <point x="749" y="860" type="curve"/>
      <point x="1115" y="1412" type="line"/>
      <point x="1264" y="1450" type="line"/>
      <point x="1264" y="1486" type="line"/>
      <point x="852" y="1486" type="line"/>
      <point x="852" y="1450" type="line"/>
      <point x="1005" y="1412" type="line"/>
      <point x="662" y="854" type="line"/>
      <point x="601" y="845"/>
      <point x="544" y="826"/>
      <point x="504" y="802" type="curve"/>
      <point x="504" y="1412" type="line"/>
      <point x="624" y="1450" type="line"/>
      <point x="624" y="1486" type="line"/>
      <point x="41" y="1486" type="line"/>
      <point x="41" y="1450" type="line"/>
      <point x="155" y="1412" type="line"/>
      <point x="155" y="72" type="line"/>
      <point x="40" y="38" type="line"/>
      <point x="40" y="0" type="line"/>
      <point x="625" y="0" type="line"/>
      <point x="625" y="38" type="line"/>
      <point x="504" y="72" type="line"/>
      <point x="504" y="739" type="line"/>
      <point x="530" y="761"/>
      <point x="573" y="782"/>
      <point x="630" y="782" type="curve" smooth="yes"/>
      <point x="790" y="782"/>
      <point x="883" y="603"/>
      <point x="883" y="292" type="curve" smooth="yes"/>
      <point x="883" y="-128"/>
      <point x="797" y="-348"/>
      <point x="614" y="-348" type="curve" smooth="yes"/>
      <point x="555" y="-348"/>
      <point x="533" y="-342"/>
      <point x="520" y="-338" type="curve"/>
      <point x="520" y="-378" type="line"/>
      <point x="548" y="-390"/>
      <point x="612" y="-410"/>
    </contour>
  </outline>
</glyph>
<glyph name="Eltail-cy" format="2">
  <advance width="1405"/>
  <unicode hex="04C5"/>
  <outline>
    <contour>
      <point x="977" y="-410" type="curve"/>
      <point x="1161" y="-410" type="line"/>
      <point x="1190" y="-364"/>
      <point x="1319" y="-84"/>
      <point x="1365" y="0" type="curve"/>
      <point x="1365" y="71" type="line"/>
      <point x="1153" y="71" type="line"/>
      <point x="1102" y="0" type="line"/>
      <point x="1090" y="-56"/>
      <point x="1018" y="-304"/>
    </contour>
    <component base="El-cy"/>
  </outline>
</glyph>
<glyph name="enhook-cy" format="2">
  <advance width="1040"/>
  <unicode hex="04C8"/>
  <anchor x="841" y="-166" name="mark0"/>
  <outline>
    <contour>
      <point x="537" y="-388" type="curve" smooth="yes"/>
      <point x="765" y="-388"/>
      <point x="956" y="-247"/>
      <point x="956" y="153" type="curve"/>
      <point x="956" y="934" type="line"/>
      <point x="1030" y="967" type="line"/>
      <point x="1030" y="1005" type="line"/>
      <point x="562" y="1005" type="line"/>
      <point x="562" y="967" type="line"/>
      <point x="640" y="934" type="line"/>
      <point x="640" y="549" type="line"/>
      <point x="420" y="549" type="line"/>
      <point x="420" y="934" type="line"/>
      <point x="498" y="967" type="line"/>
      <point x="498" y="1005" type="line"/>
      <point x="32" y="1005" type="line"/>
      <point x="32" y="967" type="line"/>
      <point x="106" y="934" type="line"/>
      <point x="106" y="71" type="line"/>
      <point x="30" y="38" type="line"/>
      <point x="30" y="0" type="line"/>
      <point x="498" y="0" type="line"/>
      <point x="498" y="38" type="line"/>
      <point x="420" y="71" type="line"/>
      <point x="420" y="487" type="line"/>
      <point x="640" y="487" type="line" smooth="yes"/>
      <point x="640" y="209" type="line" smooth="yes"/>
      <point x="640" y="-185"/>
      <point x="625" y="-324"/>
      <point x="469" y="-324" type="curve"/>
      <point x="443" y="-324"/>
      <point x="414" y="-320"/>
      <point x="397" y="-316" type="curve"/>
      <point x="397" y="-374" type="line" smooth="yes"/>
      <point x="425" y="-380"/>
      <point x="483" y="-388"/>
    </contour>
  </outline>
</glyph>
<glyph name="emtail-cy" format="2">
  <advance width="1354"/>
  <unicode hex="04CE"/>
  <outline>
    <contour>
      <point x="1057" y="-416" type="line"/>
      <point x="1127" y="-416" type="line"/>
      <point x="1179" y="-316"/>
      <point x="1270" y="-140"/>
      <point x="1338" y="0" type="curve"/>
      <point x="1338" y="71" type="line"/>
      <point x="1126" y="71" type="line"/>
      <point x="1126" y="0" type="line"/>
    </contour>
    <component base="em-cy"/>
  </outline>
</glyph>
<glyph name="gedescender-cy" format="2">
  <advance width="793"/>
  <unicode hex="04F7"/>
  <anchor x="233" y="0" name="bottomright"/>
  <anchor x="549" y="556" name="center"/>
  <anchor x="422" y="1111" name="top"/>
  <outline>
    <contour>
      <point x="449" y="-416" type="curve"/>
      <point x="521" y="-416" type="line"/>
      <point x="536" y="-310"/>
      <point x="575" y="-67"/>
      <point x="598" y="64" type="curve"/>
      <point x="342" y="64" type="line"/>
      <point x="342" y="0" type="line"/>
      <point x="372" y="-66"/>
      <point x="437" y="-319"/>
    </contour>
    <component base="ge-cy" xOffset="15"/>
  </outline>
</glyph>
<glyph name="Komidje-cy" format="2">
  <advance width="1736"/>
  <unicode hex="0502"/>
  <outline>
    <contour>
      <point x="492" y="-16" type="curve" smooth="yes"/>
      <point x="599" y="-16"/>
      <point x="694" y="9"/>
      <point x="761" y="53" type="curve"/>
      <point x="834" y="4"/>
      <point x="950" y="-16"/>
      <point x="1121" y="-16" type="curve" smooth="yes"/>
      <point x="1461" y="-16"/>
      <point x="1583" y="63"/>
      <point x="1583" y="282" type="curve" smooth="yes"/>
      <point x="1583" y="766" type="line"/>
      <point x="1716" y="804" type="line"/>
      <point x="1716" y="840" type="line"/>
      <point x="1120" y="840" type="line"/>
      <point x="1120" y="804" type="line"/>
      <point x="1233" y="766" type="line"/>
      <point x="1233" y="282" type="line" smooth="yes"/>
      <point x="1233" y="109"/>
      <point x="1203" y="46"/>
      <point x="1121" y="46" type="curve" smooth="yes"/>
      <point x="1039" y="46"/>
      <point x="1010" y="109"/>
      <point x="1010" y="282" type="curve" smooth="yes"/>
      <point x="1010" y="1414" type="line"/>
      <point x="1117" y="1449" type="line"/>
      <point x="1117" y="1486" type="line"/>
      <point x="534" y="1486" type="line"/>
      <point x="534" y="1449" type="line"/>
      <point x="660" y="1414" type="line"/>
      <point x="660" y="881" type="line"/>
      <point x="614" y="888"/>
      <point x="550" y="895"/>
      <point x="511" y="895" type="curve" smooth="yes"/>
      <point x="189" y="895"/>
      <point x="35" y="719"/>
      <point x="35" y="438" type="curve" smooth="yes"/>
      <point x="35" y="151"/>
      <point x="236" y="-16"/>
    </contour>
    <contour>
      <point x="611" y="53" type="curve" smooth="yes"/>
      <point x="444" y="53"/>
      <point x="388" y="235"/>
      <point x="388" y="450" type="curve" smooth="yes"/>
      <point x="388" y="709"/>
      <point x="458" y="829"/>
      <point x="603" y="829" type="curve" smooth="yes"/>
      <point x="625" y="829"/>
      <point x="645" y="825"/>
      <point x="660" y="820" type="curve"/>
      <point x="660" y="282" type="line" smooth="yes"/>
      <point x="660" y="196"/>
      <point x="679" y="131"/>
      <point x="723" y="85" type="curve"/>
      <point x="691" y="64"/>
      <point x="652" y="53"/>
    </contour>
  </outline>
</glyph>
<glyph name="Komisje-cy" format="2">
  <advance width="1242"/>
  <unicode hex="050C"/>
  <outline>
    <contour>
      <point x="664" y="-22" type="curve" smooth="yes"/>
      <point x="959" y="-22"/>
      <point x="1153" y="138"/>
      <point x="1153" y="380" type="curve" smooth="yes"/>
      <point x="1153" y="767" type="line"/>
      <point x="1237" y="787" type="line"/>
      <point x="1237" y="840" type="line"/>
      <point x="669" y="840" type="line"/>
      <point x="669" y="787" type="line"/>
      <point x="845" y="767" type="line"/>
      <point x="845" y="334" type="line" smooth="yes"/>
      <point x="845" y="155"/>
      <point x="777" y="36"/>
      <point x="673" y="36" type="curve" smooth="yes"/>
      <point x="467" y="36"/>
      <point x="412" y="385"/>
      <point x="414" y="758" type="curve" smooth="yes"/>
      <point x="417" y="1245"/>
      <point x="489" y="1447"/>
      <point x="661" y="1447" type="curve" smooth="yes"/>
      <point x="785" y="1447"/>
      <point x="809" y="1381"/>
      <point x="819" y="1316" type="curve"/>
      <point x="871" y="1006" type="line"/>
      <point x="1090" y="1006" type="line"/>
      <point x="1144" y="1437" type="line"/>
      <point x="984" y="1437"/>
      <point x="918" y="1507"/>
      <point x="675" y="1507" type="curve" smooth="yes"/>
      <point x="267" y="1507"/>
      <point x="34" y="1213"/>
      <point x="34" y="734" type="curve" smooth="yes"/>
      <point x="34" y="289"/>
      <point x="226" y="-22"/>
    </contour>
  </outline>
</glyph>
<glyph name="komitje-cy" format="2">
  <advance width="1245"/>
  <unicode hex="050F"/>
  <outline>
    <contour>
      <point x="717" y="-17" type="curve" smooth="yes"/>
      <point x="991" y="-17"/>
      <point x="1120" y="56"/>
      <point x="1120" y="253" type="curve"/>
      <point x="1120" y="526" type="line"/>
      <point x="1190" y="559" type="line"/>
      <point x="1190" y="597" type="line"/>
      <point x="732" y="597" type="line"/>
      <point x="732" y="559" type="line"/>
      <point x="808" y="526" type="line"/>
      <point x="808" y="257" type="line"/>
      <point x="808" y="106"/>
      <point x="789" y="45"/>
      <point x="721" y="45" type="curve"/>
      <point x="653" y="45"/>
      <point x="634" y="106"/>
      <point x="634" y="257" type="curve"/>
      <point x="634" y="959" type="line" smooth="yes"/>
      <point x="722" y="955" type="line" smooth="yes"/>
      <point x="760" y="695" type="line" smooth="yes"/>
      <point x="944" y="695" type="line"/>
      <point x="932" y="1005" type="line"/>
      <point x="22" y="1005" type="line"/>
      <point x="10" y="695" type="line"/>
      <point x="194" y="695" type="line"/>
      <point x="232" y="955" type="line"/>
      <point x="320" y="959" type="line" smooth="yes"/>
      <point x="320" y="253" type="line" smooth="yes"/>
      <point x="320" y="56"/>
      <point x="453" y="-17"/>
    </contour>
  </outline>
</glyph>
<glyph name="Elhook-cy" format="2">
  <advance width="1381"/>
  <unicode hex="0512"/>
  <outline>
    <contour>
      <point x="678" y="-387" type="line"/>
      <point x="940" y="-357"/>
      <point x="1124" y="-194"/>
      <point x="1189" y="29" type="curve" smooth="yes"/>
      <point x="1216" y="122"/>
      <point x="1218" y="298"/>
      <point x="1218" y="550" type="curve" smooth="yes"/>
      <point x="1218" y="1412" type="line"/>
      <point x="1346" y="1450" type="line"/>
      <point x="1346" y="1486" type="line"/>
      <point x="277" y="1486" type="line"/>
      <point x="277" y="1450" type="line"/>
      <point x="501" y="1412" type="line"/>
      <point x="501" y="1224" type="line" smooth="yes"/>
      <point x="501" y="721"/>
      <point x="425" y="528"/>
      <point x="368" y="418" type="curve"/>
      <point x="310" y="286"/>
      <point x="233" y="284"/>
      <point x="156" y="284" type="curve" smooth="yes"/>
      <point x="92" y="284"/>
      <point x="56" y="286"/>
      <point x="10" y="290" type="curve"/>
      <point x="32" y="0" type="line"/>
      <point x="59" y="-8"/>
      <point x="97" y="-13"/>
      <point x="143" y="-13" type="curve" smooth="yes"/>
      <point x="270" y="-13"/>
      <point x="336" y="59"/>
      <point x="409" y="201" type="curve" smooth="yes"/>
      <point x="492" y="388"/>
      <point x="560" y="755"/>
      <point x="560" y="1175" type="curve" smooth="yes"/>
      <point x="560" y="1412" type="line"/>
      <point x="869" y="1412" type="line"/>
      <point x="869" y="318" type="line" smooth="yes"/>
      <point x="869" y="107"/>
      <point x="854" y="-19"/>
      <point x="827" y="-99" type="curve" smooth="yes"/>
      <point x="779" y="-242"/>
      <point x="745" y="-286"/>
      <point x="646" y="-330" type="curve"/>
    </contour>
  </outline>
</glyph>
<glyph name="EnLeftHook-cy" format="2">
  <advance width="1276"/>
  <unicode hex="0528"/>
  <outline>
    <contour>
      <point x="-113" y="-387" type="line"/>
      <point x="149" y="-357"/>
      <point x="338" y="-195"/>
      <point x="399" y="29" type="curve" smooth="yes"/>
      <point x="426" y="122"/>
      <point x="428" y="298"/>
      <point x="428" y="550" type="curve" smooth="yes"/>
      <point x="428" y="734" type="line"/>
      <point x="773" y="734" type="line"/>
      <point x="773" y="76" type="line"/>
      <point x="651" y="37" type="line"/>
      <point x="651" y="0" type="line"/>
      <point x="1236" y="0" type="line"/>
      <point x="1236" y="37" type="line"/>
      <point x="1123" y="76" type="line"/>
      <point x="1123" y="1412" type="line"/>
      <point x="1235" y="1450" type="line"/>
      <point x="1235" y="1486" type="line"/>
      <point x="651" y="1486" type="line"/>
      <point x="651" y="1450" type="line"/>
      <point x="773" y="1412" type="line"/>
      <point x="773" y="800" type="line"/>
      <point x="428" y="800" type="line"/>
      <point x="428" y="1412" type="line"/>
      <point x="551" y="1450" type="line"/>
      <point x="551" y="1486" type="line"/>
      <point x="-34" y="1486" type="line"/>
      <point x="-34" y="1450" type="line"/>
      <point x="78" y="1412" type="line"/>
      <point x="78" y="318" type="line" smooth="yes"/>
      <point x="78" y="107"/>
      <point x="63" y="-19"/>
      <point x="36" y="-99" type="curve"/>
      <point x="-12" y="-242"/>
      <point x="-46" y="-286"/>
      <point x="-145" y="-330" type="curve"/>
    </contour>
  </outline>
</glyph>
<glyph name="Germandbls" format="2">
  <advance width="1323"/>
  <unicode hex="1E9E"/>
  <outline>
    <contour>
      <point x="10" y="36" type="line"/>
      <point x="10" y="0" type="line"/>
      <point x="473" y="0" type="line"/>
      <point x="472" y="910" type="line" smooth="yes"/>
      <point x="472" y="1274"/>
      <point x="557" y="1459"/>
      <point x="730" y="1459" type="curve" smooth="yes"/>
      <point x="826" y="1459"/>
      <point x="870" y="1418"/>
      <point x="901" y="1376" type="curve"/>
      <point x="631" y="807" type="line"/>
      <point x="631" y="767" type="line"/>
      <point x="872" y="767"/>
      <point x="978" y="641"/>
      <point x="978" y="378" type="curve" smooth="yes"/>
      <point x="978" y="243"/>
      <point x="954" y="32"/>
      <point x="859" y="32" type="curve" smooth="yes"/>
      <point x="806" y="32"/>
      <point x="775" y="71"/>
      <point x="754" y="142" type="curve"/>
      <point x="712" y="372" type="line"/>
      <point x="537" y="372" type="line"/>
      <point x="526" y="30" type="line"/>
      <point x="606" y="30"/>
      <point x="684" y="-21"/>
      <point x="859" y="-21" type="curve" smooth="yes"/>
      <point x="1158" y="-21"/>
      <point x="1297" y="175"/>
      <point x="1297" y="427" type="curve" smooth="yes"/>
      <point x="1297" y="601"/>
      <point x="1192" y="760"/>
      <point x="970" y="790" type="curve"/>
      <point x="1254" y="1310" type="line"/>
      <point x="1254" y="1351" type="line"/>
      <point x="1190" y="1351"/>
      <point x="1003" y="1509"/>
      <point x="730" y="1509" type="curve" smooth="yes"/>
      <point x="369" y="1509"/>
      <point x="122" y="1276"/>
      <point x="122" y="874" type="curve" smooth="yes"/>
      <point x="122" y="75" type="line"/>
    </contour>
  </outline>
</glyph>
<glyph name="emdash" format="2">
  <advance width="2022"/>
  <unicode hex="2014"/>
  <outline>
    <contour>
      <point x="1882" y="638" type="line"/>
      <point x="140" y="638" type="line"/>
      <point x="140" y="500" type="line"/>
      <point x="1882" y="500" type="line"/>
    </contour>
  </outline>
</glyph>
<glyph name="quoteright" format="2">
  <advance width="554"/>
  <unicode hex="2019"/>
  <outline>
    <contour>
      <point x="165" y="927" type="line"/>
      <point x="299" y="1028"/>
      <point x="436" y="1201"/>
      <point x="436" y="1411" type="curve" smooth="yes"/>
      <point x="436" y="1577"/>
      <point x="348" y="1693"/>
      <point x="252" y="1693" type="curve" smooth="yes"/>
      <point x="192" y="1693"/>
      <point x="139" y="1644"/>
      <point x="139" y="1571" type="curve" smooth="yes"/>
      <point x="139" y="1430"/>
      <point x="291" y="1423"/>
      <point x="291" y="1319" type="curve" smooth="yes"/>
      <point x="291" y="1176"/>
      <point x="205" y="1043"/>
      <point x="131" y="957" type="curve"/>
      <point x="131" y="951" type="line"/>
    </contour>
  </outline>
</glyph>
<glyph name="quotedblright" format="2">
  <advance width="1002"/>
  <unicode hex="201D"/>
  <outline>
    <contour>
      <point x="195" y="927" type="line"/>
      <point x="283" y="984"/>
      <point x="469" y="1172"/>
      <point x="469" y="1407" type="curve" smooth="yes"/>
      <point x="469" y="1565"/>
      <point x="381" y="1693"/>
      <point x="277" y="1693" type="curve" smooth="yes"/>
      <point x="211" y="1693"/>
      <point x="168" y="1646"/>
      <point x="168" y="1572" type="curve" smooth="yes"/>
      <point x="168" y="1443"/>
      <point x="328" y="1429"/>
      <point x="328" y="1303" type="curve" smooth="yes"/>
      <point x="328" y="1194"/>
      <point x="233" y="1032"/>
      <point x="164" y="956" type="curve"/>
      <point x="164" y="950" type="line"/>
    </contour>
    <contour>
      <point x="590" y="927" type="line"/>
      <point x="678" y="984"/>
      <point x="864" y="1172"/>
      <point x="864" y="1407" type="curve" smooth="yes"/>
      <point x="864" y="1565"/>
      <point x="776" y="1693"/>
      <point x="672" y="1693" type="curve" smooth="yes"/>
      <point x="606" y="1693"/>
      <point x="563" y="1646"/>
      <point x="563" y="1572" type="curve" smooth="yes"/>
      <point x="563" y="1443"/>
      <point x="723" y="1429"/>
      <point x="723" y="1303" type="curve" smooth="yes"/>
      <point x="723" y="1194"/>
      <point x="628" y="1032"/>
      <point x="559" y="956" type="curve"/>
      <point x="559" y="950" type="line"/>
    </contour>
  </outline>
</glyph>
<glyph name="dagger" format="2">
  <advance width="1021"/>
  <unicode hex="2020"/>
  <outline>
    <contour>
      <point x="485" y="1189" type="line"/>
      <point x="412" y="848" type="line"/>
      <point x="476" y="74" type="line"/>
      <point x="547" y="74" type="line"/>
      <point x="611" y="848" type="line"/>
      <point x="540" y="1189" type="line"/>
      <point x="853" y="1110" type="line"/>
      <point x="853" y="1319" type="line"/>
      <point x="540" y="1240" type="line"/>
      <point x="605" y="1542" type="line"/>
      <point x="605" y="1620" type="line"/>
      <point x="418" y="1620" type="line"/>
      <point x="418" y="1542" type="line"/>
      <point x="485" y="1240" type="line"/>
      <point x="169" y="1319" type="line"/>
      <point x="169" y="1110" type="line"/>
    </contour>
  </outline>
</glyph>
<glyph name="daggerdbl" format="2">
  <advance width="1021"/>
  <unicode hex="2021"/>
  <outline>
    <contour>
      <point x="485" y="670" type="line"/>
      <point x="169" y="749" type="line"/>
      <point x="169" y="540" type="line"/>
      <point x="485" y="619" type="line"/>
      <point x="413" y="278" type="line"/>
      <point x="477" y="-441" type="line"/>
      <point x="548" y="-441" type="line"/>
      <point x="612" y="278" type="line"/>
      <point x="540" y="619" type="line"/>
      <point x="853" y="540" type="line"/>
      <point x="853" y="749" type="line"/>
      <point x="540" y="670" type="line"/>
      <point x="600" y="972" type="line"/>
      <point x="540" y="1189" type="line"/>
      <point x="853" y="1110" type="line"/>
      <point x="853" y="1319" type="line"/>
      <point x="540" y="1240" type="line"/>
      <point x="605" y="1542" type="line"/>
      <point x="605" y="1620" type="line"/>
      <point x="418" y="1620" type="line"/>
      <point x="418" y="1542" type="line"/>
      <point x="485" y="1240" type="line"/>
      <point x="169" y="1319" type="line"/>
      <point x="169" y="1110" type="line"/>
      <point x="485" y="1189" type="line"/>
      <point x="425" y="972" type="line"/>
    </contour>
  </outline>
</glyph>
<glyph name="ellipsis" format="2">
  <advance width="1275"/>
  <unicode hex="2026"/>
  <outline>
    <contour>
      <point x="198" y="-16" type="curve" smooth="yes"/>
      <point x="296" y="-16"/>
      <point x="361" y="44"/>
      <point x="361" y="149" type="curve" smooth="yes"/>
      <point x="361" y="227"/>
      <point x="312" y="301"/>
      <point x="223" y="301" type="curve" smooth="yes"/>
      <point x="134" y="301"/>
      <point x="64" y="234"/>
      <point x="64" y="136" type="curve" smooth="yes"/>
      <point x="64" y="47"/>
      <point x="127" y="-16"/>
    </contour>
    <contour>
      <point x="623" y="-16" type="curve" smooth="yes"/>
      <point x="721" y="-16"/>
      <point x="786" y="44"/>
      <point x="786" y="149" type="curve" smooth="yes"/>
      <point x="786" y="227"/>
      <point x="737" y="301"/>
      <point x="648" y="301" type="curve" smooth="yes"/>
      <point x="559" y="301"/>
      <point x="489" y="234"/>
      <point x="489" y="136" type="curve" smooth="yes"/>
      <point x="489" y="47"/>
      <point x="552" y="-16"/>
    </contour>
    <contour>
      <point x="1048" y="-16" type="curve" smooth="yes"/>
      <point x="1146" y="-16"/>
      <point x="1211" y="44"/>
      <point x="1211" y="149" type="curve" smooth="yes"/>
      <point x="1211" y="227"/>
      <point x="1162" y="301"/>
      <point x="1073" y="301" type="curve" smooth="yes"/>
      <point x="984" y="301"/>
      <point x="914" y="234"/>
      <point x="914" y="136" type="curve" smooth="yes"/>
      <point x="914" y="47"/>
      <point x="977" y="-16"/>
    </contour>
  </outline>
</glyph>
<glyph name="minute" format="2">
  <advance width="490"/>
  <unicode hex="2032"/>
  <outline>
    <contour>
      <point x="256" y="1750" type="line"/>
      <point x="156" y="1005" type="line"/>
      <point x="233" y="1005" type="line"/>
      <point x="425" y="1750" type="line"/>
    </contour>
  </outline>
</glyph>
<glyph name="guilsinglleft" format="2">
  <advance width="654"/>
  <unicode hex="2039"/>
  <outline>
    <contour>
      <point x="515" y="1005" type="line"/>
      <point x="68" y="559" type="line"/>
      <point x="68" y="494" type="line"/>
      <point x="515" y="57" type="line"/>
      <point x="562" y="81" type="line"/>
      <point x="331" y="526" type="line"/>
      <point x="562" y="984" type="line"/>
    </contour>
  </outline>
</glyph>
<glyph name="guilsinglright" format="2">
  <advance width="654"/>
  <unicode hex="203A"/>
  <outline>
    <contour>
      <point x="139" y="1005" type="line"/>
      <point x="92" y="984" type="line"/>
      <point x="323" y="526" type="line"/>
      <point x="92" y="81" type="line"/>
      <point x="139" y="57" type="line"/>
      <point x="586" y="494" type="line"/>
      <point x="586" y="559" type="line"/>
    </contour>
  </outline>
</glyph>
<glyph name="peseta" format="2">
  <advance width="1390"/>
  <unicode hex="20A7"/>
  <anchor x="638" y="0" name="bottom"/>
  <anchor x="810" y="-166" name="mark0"/>
  <anchor x="884" y="1486" name="top"/>
  <outline>
    <contour>
      <point x="112" y="1047" type="line"/>
      <point x="112" y="973" type="line"/>
      <point x="1382" y="973" type="line"/>
      <point x="1382" y="1041" type="line"/>
    </contour>
    <component base="P" xOffset="116"/>
  </outline>
</glyph>
<glyph name="dong" format="2">
  <advance width="1166"/>
  <unicode hex="20AB"/>
  <outline>
    <contour>
      <point x="665" y="1351" type="line"/>
      <point x="420" y="1351" type="line"/>
      <point x="420" y="1284" type="line"/>
      <point x="665" y="1284" type="line"/>
      <point x="665" y="1086" type="line"/>
      <point x="633" y="1115"/>
      <point x="575" y="1134"/>
      <point x="495" y="1134" type="curve" smooth="yes"/>
      <point x="289" y="1134"/>
      <point x="112" y="1010"/>
      <point x="112" y="685" type="curve" smooth="yes"/>
      <point x="112" y="376"/>
      <point x="271" y="270"/>
      <point x="430" y="270" type="curve" smooth="yes"/>
      <point x="580" y="270"/>
      <point x="647" y="369"/>
      <point x="672" y="431" type="curve"/>
      <point x="672" y="352" type="line" smooth="yes"/>
      <point x="672" y="293"/>
      <point x="671" y="261"/>
      <point x="765" y="261" type="curve" smooth="yes"/>
      <point x="827" y="261"/>
      <point x="961" y="275"/>
      <point x="1042" y="297" type="curve"/>
      <point x="1042" y="343" type="line"/>
      <point x="944" y="343" type="line"/>
      <point x="944" y="1284" type="line"/>
      <point x="1101" y="1284" type="line"/>
      <point x="1101" y="1351" type="line"/>
      <point x="944" y="1351" type="line"/>
      <point x="944" y="1637" type="line"/>
      <point x="923" y="1663" type="line"/>
      <point x="869" y="1663" type="line"/>
      <point x="557" y="1568" type="line"/>
      <point x="557" y="1539" type="line"/>
      <point x="665" y="1512" type="line"/>
    </contour>
    <contour>
      <point x="545" y="408" type="curve" smooth="yes"/>
      <point x="444" y="408"/>
      <point x="409" y="518"/>
      <point x="409" y="724" type="curve" smooth="yes"/>
      <point x="409" y="939"/>
      <point x="448" y="1071"/>
      <point x="562" y="1071" type="curve" smooth="yes"/>
      <point x="611" y="1071"/>
      <point x="642" y="1046"/>
      <point x="665" y="997" type="curve"/>
      <point x="665" y="488" type="line"/>
      <point x="656" y="470"/>
      <point x="622" y="408"/>
    </contour>
    <contour>
      <point x="1076" y="77" type="line"/>
      <point x="143" y="77" type="line"/>
      <point x="143" y="0" type="line"/>
      <point x="1076" y="0" type="line"/>
    </contour>
  </outline>
</glyph>
<glyph name="euro" format="2">
  <advance width="1323"/>
  <unicode hex="20AC"/>
  <outline>
    <contour>
      <point x="797" y="-28" type="curve" smooth="yes"/>
      <point x="1011" y="-28"/>
      <point x="1109" y="59"/>
      <point x="1191" y="59" type="curve"/>
      <point x="1217" y="437" type="line"/>
      <point x="1061" y="445" type="line"/>
      <point x="983" y="183" type="line"/>
      <point x="954" y="86"/>
      <point x="896" y="29"/>
      <point x="822" y="29" type="curve" smooth="yes"/>
      <point x="655" y="29"/>
      <point x="597" y="316"/>
      <point x="582" y="577" type="curve"/>
      <point x="840" y="577" type="line"/>
      <point x="856" y="644" type="line"/>
      <point x="579" y="644" type="line"/>
      <point x="577" y="677"/>
      <point x="577" y="709"/>
      <point x="577" y="739" type="curve" smooth="yes"/>
      <point x="577" y="762"/>
      <point x="578" y="785"/>
      <point x="578" y="808" type="curve"/>
      <point x="914" y="808" type="line"/>
      <point x="931" y="875" type="line"/>
      <point x="580" y="875" type="line"/>
      <point x="594" y="1164"/>
      <point x="658" y="1452"/>
      <point x="843" y="1452" type="curve" smooth="yes"/>
      <point x="922" y="1452"/>
      <point x="968" y="1400"/>
      <point x="973" y="1321" type="curve"/>
      <point x="1006" y="1051" type="line"/>
      <point x="1184" y="1051" type="line"/>
      <point x="1219" y="1428" type="line"/>
      <point x="1119" y="1428"/>
      <point x="1016" y="1512"/>
      <point x="817" y="1512" type="curve" smooth="yes"/>
      <point x="461" y="1512"/>
      <point x="270" y="1244"/>
      <point x="220" y="875" type="curve"/>
      <point x="68" y="875" type="line"/>
      <point x="50" y="808" type="line"/>
      <point x="213" y="808" type="line"/>
      <point x="210" y="772"/>
      <point x="210" y="737"/>
      <point x="210" y="690" type="curve"/>
      <point x="210" y="644" type="line"/>
      <point x="68" y="644" type="line"/>
      <point x="50" y="577" type="line"/>
      <point x="216" y="577" type="line"/>
      <point x="252" y="195"/>
      <point x="456" y="-28"/>
    </contour>
  </outline>
</glyph>
<glyph name="kip" format="2">
  <advance width="1334"/>
  <unicode hex="20AD"/>
  <outline>
    <contour>
      <point x="51" y="0" type="line"/>
      <point x="641" y="0" type="line"/>
      <point x="641" y="38" type="line"/>
      <point x="512" y="71" type="line"/>
      <point x="512" y="775" type="line"/>
      <point x="576" y="775" type="line"/>
      <point x="637" y="689"/>
      <point x="799" y="0"/>
      <point x="872" y="0" type="curve"/>
      <point x="1309" y="1" type="line"/>
      <point x="1309" y="39" type="line"/>
      <point x="1242" y="66" type="line"/>
      <point x="1174" y="113"/>
      <point x="994" y="574"/>
      <point x="843" y="801" type="curve"/>
      <point x="712" y="801" type="line"/>
      <point x="1092" y="1409" type="line"/>
      <point x="1256" y="1447" type="line"/>
      <point x="1256" y="1487" type="line"/>
      <point x="825" y="1486" type="line"/>
      <point x="825" y="1449" type="line"/>
      <point x="989" y="1412" type="line"/>
      <point x="631" y="812" type="line"/>
      <point x="512" y="812" type="line"/>
      <point x="512" y="1412" type="line"/>
      <point x="640" y="1450" type="line"/>
      <point x="640" y="1486" type="line"/>
      <point x="51" y="1486" type="line"/>
      <point x="51" y="1450" type="line"/>
      <point x="176" y="1412" type="line"/>
      <point x="176" y="71" type="line"/>
      <point x="51" y="38" type="line"/>
    </contour>
    <contour>
      <point x="37" y="765" type="line"/>
      <point x="1273" y="765" type="line"/>
      <point x="1273" y="832" type="line"/>
      <point x="37" y="832" type="line"/>
    </contour>
  </outline>
</glyph>
<glyph name="peso" format="2">
  <advance width="1386"/>
  <unicode hex="20B1"/>
  <outline>
    <contour>
      <point x="99" y="0" type="line"/>
      <point x="757" y="0" type="line"/>
      <point x="757" y="37" type="line"/>
      <point x="583" y="73" type="line"/>
      <point x="583" y="429" type="line"/>
      <point x="600" y="426"/>
      <point x="648" y="421"/>
      <point x="701" y="421" type="curve" smooth="yes"/>
      <point x="984" y="421"/>
      <point x="1165" y="562"/>
      <point x="1221" y="803" type="curve"/>
      <point x="1376" y="803" type="line"/>
      <point x="1376" y="873" type="line"/>
      <point x="1234" y="873" type="line"/>
      <point x="1238" y="906"/>
      <point x="1240" y="940"/>
      <point x="1240" y="976" type="curve" smooth="yes"/>
      <point x="1240" y="999"/>
      <point x="1239" y="1022"/>
      <point x="1238" y="1044" type="curve"/>
      <point x="1386" y="1044" type="line"/>
      <point x="1386" y="1114" type="line"/>
      <point x="1229" y="1114" type="line"/>
      <point x="1188" y="1366"/>
      <point x="1023" y="1493"/>
      <point x="735" y="1499" type="curve" smooth="yes"/>
      <point x="637" y="1501"/>
      <point x="504" y="1486"/>
      <point x="403" y="1486" type="curve" smooth="yes"/>
      <point x="99" y="1486" type="line"/>
      <point x="99" y="1450" type="line"/>
      <point x="225" y="1412" type="line"/>
      <point x="225" y="1114" type="line"/>
      <point x="35" y="1114" type="line"/>
      <point x="35" y="1044" type="line"/>
      <point x="225" y="1044" type="line"/>
      <point x="225" y="873" type="line"/>
      <point x="33" y="873" type="line"/>
      <point x="33" y="803" type="line"/>
      <point x="225" y="803" type="line"/>
      <point x="225" y="73" type="line"/>
      <point x="99" y="37" type="line"/>
    </contour>
    <contour>
      <point x="582" y="1114" type="line"/>
      <point x="582" y="1427" type="line"/>
      <point x="601" y="1436"/>
      <point x="640" y="1444"/>
      <point x="672" y="1444" type="curve" smooth="yes"/>
      <point x="793" y="1444"/>
      <point x="837" y="1264"/>
      <point x="852" y="1114" type="curve"/>
    </contour>
    <contour>
      <point x="582" y="497" type="curve"/>
      <point x="582" y="803" type="line"/>
      <point x="851" y="803" type="line"/>
      <point x="833" y="639"/>
      <point x="783" y="497"/>
      <point x="672" y="488" type="curve" smooth="yes"/>
      <point x="636" y="485"/>
      <point x="595" y="491"/>
    </contour>
    <contour>
      <point x="582" y="873" type="line"/>
      <point x="582" y="1044" type="line"/>
      <point x="857" y="1044" type="line"/>
      <point x="858" y="1016"/>
      <point x="859" y="989"/>
      <point x="859" y="963" type="curve" smooth="yes"/>
      <point x="859" y="933"/>
      <point x="858" y="903"/>
      <point x="857" y="873" type="curve"/>
    </contour>
  </outline>
</glyph>
<glyph name="hryvnia" format="2">
  <advance width="1283"/>
  <unicode hex="20B4"/>
  <outline>
    <contour>
      <point x="593" y="-22" type="curve" smooth="yes"/>
      <point x="855" y="-22"/>
      <point x="1057" y="65"/>
      <point x="1123" y="71" type="curve"/>
      <point x="1124" y="372" type="line"/>
      <point x="954" y="375" type="line"/>
      <point x="890" y="125" type="line"/>
      <point x="876" y="69"/>
      <point x="751" y="36"/>
      <point x="676" y="36" type="curve" smooth="yes"/>
      <point x="554" y="36"/>
      <point x="433" y="121"/>
      <point x="433" y="244" type="curve" smooth="yes"/>
      <point x="433" y="368"/>
      <point x="557" y="486"/>
      <point x="681" y="586" type="curve"/>
      <point x="1212" y="586" type="line"/>
      <point x="1212" y="656" type="line"/>
      <point x="769" y="656" type="line"/>
      <point x="862" y="729"/>
      <point x="925" y="783"/>
      <point x="1000" y="875" type="curve"/>
      <point x="1212" y="875" type="line"/>
      <point x="1212" y="945" type="line"/>
      <point x="1051" y="945" type="line"/>
      <point x="1101" y="1021"/>
      <point x="1130" y="1101"/>
      <point x="1130" y="1191" type="curve" smooth="yes"/>
      <point x="1130" y="1356"/>
      <point x="1031" y="1505"/>
      <point x="665" y="1505" type="curve" smooth="yes"/>
      <point x="443" y="1505"/>
      <point x="243" y="1450"/>
      <point x="194" y="1445" type="curve"/>
      <point x="235" y="1131" type="line"/>
      <point x="407" y="1131" type="line"/>
      <point x="471" y="1394" type="line"/>
      <point x="477" y="1420"/>
      <point x="553" y="1446"/>
      <point x="617" y="1446" type="curve" smooth="yes"/>
      <point x="737" y="1446"/>
      <point x="809" y="1356"/>
      <point x="809" y="1227" type="curve" smooth="yes"/>
      <point x="809" y="1112"/>
      <point x="751" y="1026"/>
      <point x="669" y="945" type="curve"/>
      <point x="80" y="945" type="line"/>
      <point x="80" y="875" type="line"/>
      <point x="592" y="875" type="line"/>
      <point x="555" y="844"/>
      <point x="384" y="706"/>
      <point x="328" y="656" type="curve"/>
      <point x="80" y="656" type="line"/>
      <point x="80" y="586" type="line"/>
      <point x="257" y="586" type="line"/>
      <point x="183" y="506"/>
      <point x="131" y="421"/>
      <point x="131" y="307" type="curve" smooth="yes"/>
      <point x="131" y="198"/>
      <point x="177" y="-22"/>
    </contour>
  </outline>
</glyph>
<glyph name="ruble" format="2">
  <advance width="1193"/>
  <unicode hex="20BD"/>
  <outline>
    <contour>
      <point x="83" y="0" type="line"/>
      <point x="733" y="0" type="line"/>
      <point x="733" y="37" type="line"/>
      <point x="564" y="73" type="line"/>
      <point x="564" y="355" type="line"/>
      <point x="879" y="355" type="line"/>
      <point x="879" y="421" type="line"/>
      <point x="564" y="421" type="line"/>
      <point x="564" y="611" type="line"/>
      <point x="575" y="609"/>
      <point x="606" y="608"/>
      <point x="631" y="608" type="curve" smooth="yes"/>
      <point x="961" y="608"/>
      <point x="1144" y="785"/>
      <point x="1144" y="1102" type="curve" smooth="yes"/>
      <point x="1144" y="1344"/>
      <point x="1037" y="1497"/>
      <point x="652" y="1497" type="curve" smooth="yes"/>
      <point x="549" y="1497"/>
      <point x="427" y="1486"/>
      <point x="380" y="1486" type="curve" smooth="yes"/>
      <point x="87" y="1486" type="line"/>
      <point x="87" y="1450" type="line"/>
      <point x="217" y="1412" type="line"/>
      <point x="217" y="680" type="line"/>
      <point x="19" y="680" type="line"/>
      <point x="19" y="613" type="line"/>
      <point x="217" y="613" type="line"/>
      <point x="217" y="421" type="line"/>
      <point x="19" y="421" type="line"/>
      <point x="19" y="355" type="line"/>
      <point x="217" y="355" type="line"/>
      <point x="217" y="73" type="line"/>
      <point x="83" y="37" type="line"/>
    </contour>
    <contour>
      <point x="611" y="675" type="curve" smooth="yes"/>
      <point x="595" y="675"/>
      <point x="606" y="677"/>
      <point x="563" y="680" type="curve"/>
      <point x="563" y="1430" type="line"/>
      <point x="562" y="1432"/>
      <point x="606" y="1442"/>
      <point x="640" y="1442" type="curve" smooth="yes"/>
      <point x="753" y="1442"/>
      <point x="802" y="1333"/>
      <point x="802" y="1083" type="curve" smooth="yes"/>
      <point x="802" y="798"/>
      <point x="738" y="675"/>
    </contour>
  </outline>
</glyph>
<glyph name="bitcoin" format="2">
  <advance width="1288"/>
  <unicode hex="20BF"/>
  <anchor x="617" y="0" name="bottom"/>
  <anchor x="628" y="-166" name="mark0"/>
  <anchor x="617" y="1486" name="top"/>
  <outline>
    <contour>
      <point x="501" y="1738" type="line"/>
      <point x="404" y="1738" type="line"/>
      <point x="404" y="1460" type="line"/>
      <point x="501" y="1460" type="line"/>
    </contour>
    <contour>
      <point x="821" y="1738" type="line"/>
      <point x="724" y="1738" type="line"/>
      <point x="724" y="1460" type="line"/>
      <point x="821" y="1460" type="line"/>
    </contour>
    <contour>
      <point x="501" y="38" type="line"/>
      <point x="404" y="38" type="line"/>
      <point x="404" y="-260" type="line"/>
      <point x="501" y="-260" type="line"/>
    </contour>
    <contour>
      <point x="821" y="38" type="line"/>
      <point x="724" y="38" type="line"/>
      <point x="724" y="-260" type="line"/>
      <point x="821" y="-260" type="line"/>
    </contour>
    <component base="B" xOffset="10"/>
  </outline>
</glyph>
<glyph name="addressedtothesubject" format="2">
  <advance width="2151"/>
  <unicode hex="2101"/>
  <outline>
    <contour>
      <point x="1694" y="-12" type="curve" smooth="yes"/>
      <point x="1943" y="-12"/>
      <point x="2058" y="116"/>
      <point x="2058" y="279" type="curve" smooth="yes"/>
      <point x="2058" y="445"/>
      <point x="1937" y="516"/>
      <point x="1804" y="584" type="curve"/>
      <point x="1673" y="651"/>
      <point x="1572" y="694"/>
      <point x="1572" y="805" type="curve" smooth="yes"/>
      <point x="1572" y="878"/>
      <point x="1616" y="937"/>
      <point x="1699" y="937" type="curve" smooth="yes"/>
      <point x="1778" y="937"/>
      <point x="1835" y="884"/>
      <point x="1847" y="798" type="curve"/>
      <point x="1873" y="665" type="line"/>
      <point x="2007" y="665" type="line"/>
      <point x="2017" y="932" type="line"/>
      <point x="1959" y="939"/>
      <point x="1883" y="990"/>
      <point x="1716" y="990" type="curve" smooth="yes"/>
      <point x="1451" y="990"/>
      <point x="1329" y="862"/>
      <point x="1329" y="691" type="curve" smooth="yes"/>
      <point x="1329" y="511"/>
      <point x="1464" y="433"/>
      <point x="1579" y="373" type="curve"/>
      <point x="1701" y="309"/>
      <point x="1839" y="248"/>
      <point x="1839" y="153" type="curve" smooth="yes"/>
      <point x="1839" y="94"/>
      <point x="1786" y="44"/>
      <point x="1698" y="44" type="curve" smooth="yes"/>
      <point x="1611" y="44"/>
      <point x="1542" y="92"/>
      <point x="1525" y="207" type="curve"/>
      <point x="1511" y="320" type="line"/>
      <point x="1342" y="320" type="line"/>
      <point x="1334" y="53" type="line"/>
      <point x="1397" y="52"/>
      <point x="1518" y="-12"/>
    </contour>
    <contour>
      <point x="1442" y="1767" type="line"/>
      <point x="1347" y="1767" type="line"/>
      <point x="878" y="-120" type="line"/>
      <point x="973" y="-120" type="line"/>
    </contour>
    <contour>
      <point x="64" y="841" type="curve" smooth="yes"/>
      <point x="64" y="680"/>
      <point x="165" y="576"/>
      <point x="329" y="576" type="curve" smooth="yes"/>
      <point x="422" y="576"/>
      <point x="493" y="644"/>
      <point x="533" y="733" type="curve"/>
      <point x="533" y="668" type="line" smooth="yes"/>
      <point x="533" y="634"/>
      <point x="530" y="579"/>
      <point x="667" y="579" type="curve" smooth="yes"/>
      <point x="764" y="579"/>
      <point x="892" y="607"/>
      <point x="905" y="611" type="curve"/>
      <point x="905" y="647" type="line"/>
      <point x="826" y="667" type="line"/>
      <point x="826" y="1243" type="line" smooth="yes"/>
      <point x="826" y="1330"/>
      <point x="826" y="1582"/>
      <point x="525" y="1582" type="curve" smooth="yes"/>
      <point x="379" y="1582"/>
      <point x="215" y="1523"/>
      <point x="121" y="1446" type="curve"/>
      <point x="156" y="1377" type="line"/>
      <point x="204" y="1402"/>
      <point x="304" y="1423"/>
      <point x="369" y="1423" type="curve" smooth="yes"/>
      <point x="533" y="1423"/>
      <point x="529" y="1289"/>
      <point x="529" y="1231" type="curve" smooth="yes"/>
      <point x="529" y="1173" type="line"/>
      <point x="310" y="1173"/>
      <point x="64" y="1094"/>
    </contour>
    <contour>
      <point x="458" y="724" type="curve" smooth="yes"/>
      <point x="396" y="724"/>
      <point x="339" y="788"/>
      <point x="339" y="894" type="curve" smooth="yes"/>
      <point x="339" y="1000"/>
      <point x="397" y="1116"/>
      <point x="529" y="1117" type="curve"/>
      <point x="529" y="765" type="line"/>
      <point x="516" y="739"/>
      <point x="488" y="724"/>
    </contour>
  </outline>
</glyph>
<glyph name="careof" format="2">
  <advance width="1885"/>
  <unicode hex="2105"/>
  <outline>
    <contour>
      <point x="587" y="0" type="line"/>
      <point x="677" y="0" type="line"/>
      <point x="1261" y="1502" type="line"/>
      <point x="1170" y="1502" type="line"/>
    </contour>
    <contour>
      <point x="445" y="617" type="curve" smooth="yes"/>
      <point x="577" y="617"/>
      <point x="669" y="676"/>
      <point x="726" y="732" type="curve"/>
      <point x="698" y="785" type="line"/>
      <point x="653" y="752"/>
      <point x="606" y="736"/>
      <point x="556" y="736" type="curve" smooth="yes"/>
      <point x="432" y="736"/>
      <point x="344" y="837"/>
      <point x="344" y="1116" type="curve" smooth="yes"/>
      <point x="344" y="1285"/>
      <point x="376" y="1431"/>
      <point x="469" y="1431" type="curve" smooth="yes"/>
      <point x="526" y="1431"/>
      <point x="537" y="1376"/>
      <point x="546" y="1331" type="curve"/>
      <point x="577" y="1174" type="line"/>
      <point x="720" y="1174" type="line"/>
      <point x="729" y="1432" type="line"/>
      <point x="665" y="1444"/>
      <point x="611" y="1492"/>
      <point x="486" y="1492" type="curve" smooth="yes"/>
      <point x="226" y="1492"/>
      <point x="87" y="1282"/>
      <point x="87" y="1039" type="curve"/>
      <point x="87" y="780"/>
      <point x="228" y="617"/>
    </contour>
    <contour>
      <point x="1424" y="20" type="curve" smooth="yes"/>
      <point x="1637" y="20"/>
      <point x="1812" y="172"/>
      <point x="1812" y="471" type="curve" smooth="yes"/>
      <point x="1812" y="690"/>
      <point x="1720" y="892"/>
      <point x="1462" y="892" type="curve" smooth="yes"/>
      <point x="1232" y="892"/>
      <point x="1065" y="732"/>
      <point x="1065" y="452" type="curve" smooth="yes"/>
      <point x="1065" y="217"/>
      <point x="1182" y="20"/>
    </contour>
    <contour>
      <point x="1439" y="78" type="curve" smooth="yes"/>
      <point x="1345" y="78"/>
      <point x="1312" y="193"/>
      <point x="1312" y="455" type="curve" smooth="yes"/>
      <point x="1312" y="724"/>
      <point x="1346" y="836"/>
      <point x="1439" y="836" type="curve" smooth="yes"/>
      <point x="1533" y="836"/>
      <point x="1565" y="721"/>
      <point x="1565" y="456" type="curve" smooth="yes"/>
      <point x="1565" y="191"/>
      <point x="1533" y="78"/>
    </contour>
  </outline>
</glyph>
<glyph name="literSign" format="2">
  <advance width="1091"/>
  <unicode hex="2113"/>
  <outline>
    <contour>
      <point x="29" y="86" type="curve"/>
      <point x="114" y="22" type="line"/>
      <point x="169" y="52"/>
      <point x="223" y="88"/>
      <point x="279" y="132" type="curve"/>
      <point x="337" y="37"/>
      <point x="420" y="-23"/>
      <point x="531" y="-23" type="curve" smooth="yes"/>
      <point x="779" y="-23"/>
      <point x="896" y="256"/>
      <point x="943" y="436" type="curve"/>
      <point x="882" y="449" type="line"/>
      <point x="814" y="295"/>
      <point x="700" y="187"/>
      <point x="589" y="187" type="curve" smooth="yes"/>
      <point x="522" y="187"/>
      <point x="485" y="225"/>
      <point x="454" y="291" type="curve"/>
      <point x="775" y="581"/>
      <point x="980" y="1024"/>
      <point x="980" y="1320" type="curve" smooth="yes"/>
      <point x="980" y="1537"/>
      <point x="870" y="1635"/>
      <point x="738" y="1635" type="curve" smooth="yes"/>
      <point x="428" y="1635"/>
      <point x="179" y="1089"/>
      <point x="179" y="583" type="curve" smooth="yes"/>
      <point x="179" y="447"/>
      <point x="197" y="326"/>
      <point x="235" y="224" type="curve"/>
      <point x="174" y="171"/>
      <point x="105" y="127"/>
    </contour>
    <contour>
      <point x="416" y="424" type="curve"/>
      <point x="416" y="450" type="line" smooth="yes"/>
      <point x="356" y="1005"/>
      <point x="558" y="1568"/>
      <point x="663" y="1568" type="curve" smooth="yes"/>
      <point x="702" y="1568"/>
      <point x="710" y="1488"/>
      <point x="710" y="1387" type="curve" smooth="yes"/>
      <point x="710" y="1026"/>
      <point x="599" y="692"/>
    </contour>
  </outline>
</glyph>
<glyph name="numero" format="2">
  <advance width="2318"/>
  <unicode hex="2116"/>
  <outline>
    <contour>
      <point x="236" y="95" type="line"/>
      <point x="77" y="36" type="line"/>
      <point x="77" y="0" type="line"/>
      <point x="479" y="0" type="line"/>
      <point x="479" y="36" type="line"/>
      <point x="309" y="95" type="line"/>
      <point x="311" y="1170" type="line"/>
      <point x="389" y="1007" type="line"/>
      <point x="960" y="0" type="line"/>
      <point x="1193" y="0" type="line"/>
      <point x="1193" y="1392" type="line"/>
      <point x="1351" y="1450" type="line"/>
      <point x="1351" y="1486" type="line"/>
      <point x="954" y="1486" type="line"/>
      <point x="954" y="1450" type="line"/>
      <point x="1120" y="1392" type="line"/>
      <point x="1121" y="395" type="line"/>
      <point x="1020" y="599" type="line"/>
      <point x="529" y="1486" type="line"/>
      <point x="80" y="1486" type="line"/>
      <point x="80" y="1432" type="line"/>
      <point x="137" y="1432"/>
      <point x="229" y="1304"/>
      <point x="238" y="1241" type="curve"/>
    </contour>
    <contour>
      <point x="1777" y="509" type="curve" smooth="yes"/>
      <point x="2018" y="509"/>
      <point x="2237" y="679"/>
      <point x="2240" y="1028" type="curve" smooth="yes"/>
      <point x="2242" y="1327"/>
      <point x="2084" y="1510"/>
      <point x="1828" y="1510" type="curve" smooth="yes"/>
      <point x="1588" y="1510"/>
      <point x="1364" y="1350"/>
      <point x="1364" y="995" type="curve" smooth="yes"/>
      <point x="1364" y="692"/>
      <point x="1527" y="509"/>
    </contour>
    <contour>
      <point x="1809" y="580" type="curve" smooth="yes"/>
      <point x="1719" y="580"/>
      <point x="1665" y="711"/>
      <point x="1665" y="1027" type="curve" smooth="yes"/>
      <point x="1665" y="1306"/>
      <point x="1707" y="1452"/>
      <point x="1802" y="1448" type="curve" smooth="yes"/>
      <point x="1888" y="1445"/>
      <point x="1942" y="1323"/>
      <point x="1942" y="1001" type="curve" smooth="yes"/>
      <point x="1942" y="701"/>
      <point x="1895" y="580"/>
    </contour>
    <contour>
      <point x="2203" y="77" type="line"/>
      <point x="1396" y="77" type="line"/>
      <point x="1396" y="0" type="line"/>
      <point x="2203" y="0" type="line"/>
    </contour>
  </outline>
</glyph>
<glyph name="servicemark" format="2">
  <advance width="1524"/>
  <unicode hex="2120"/>
  <outline>
    <contour>
      <point x="340" y="887" type="curve" smooth="yes"/>
      <point x="495" y="887"/>
      <point x="587" y="957"/>
      <point x="587" y="1072" type="curve" smooth="yes"/>
      <point x="587" y="1187"/>
      <point x="494" y="1224"/>
      <point x="406" y="1260" type="curve" smooth="yes"/>
      <point x="328" y="1292"/>
      <point x="292" y="1331"/>
      <point x="292" y="1387" type="curve" smooth="yes"/>
      <point x="292" y="1440"/>
      <point x="324" y="1470"/>
      <point x="382" y="1470" type="curve" smooth="yes"/>
      <point x="409" y="1470"/>
      <point x="453" y="1463"/>
      <point x="462" y="1449" type="curve"/>
      <point x="485" y="1332" type="line"/>
      <point x="554" y="1332" type="line"/>
      <point x="554" y="1473" type="line"/>
      <point x="533" y="1481"/>
      <point x="463" y="1505"/>
      <point x="373" y="1505" type="curve" smooth="yes"/>
      <point x="228" y="1505"/>
      <point x="140" y="1443"/>
      <point x="140" y="1330" type="curve" smooth="yes"/>
      <point x="140" y="1213"/>
      <point x="233" y="1167"/>
      <point x="295" y="1142" type="curve" smooth="yes"/>
      <point x="358" y="1117"/>
      <point x="434" y="1092"/>
      <point x="434" y="1012" type="curve" smooth="yes"/>
      <point x="434" y="965"/>
      <point x="408" y="921"/>
      <point x="332" y="921" type="curve" smooth="yes"/>
      <point x="297" y="921"/>
      <point x="253" y="930"/>
      <point x="242" y="943" type="curve"/>
      <point x="226" y="1071" type="line"/>
      <point x="132" y="1072" type="line"/>
      <point x="132" y="919" type="line"/>
      <point x="205" y="898"/>
      <point x="279" y="887"/>
    </contour>
    <contour>
      <point x="694" y="938" type="line"/>
      <point x="618" y="916" type="line"/>
      <point x="618" y="897" type="line"/>
      <point x="829" y="897" type="line"/>
      <point x="829" y="916" type="line"/>
      <point x="760" y="938" type="line"/>
      <point x="785" y="1305" type="line"/>
      <point x="793" y="1442" type="line"/>
      <point x="833" y="1306" type="line"/>
      <point x="956" y="891" type="line"/>
      <point x="1076" y="891" type="line"/>
      <point x="1197" y="1305" type="line"/>
      <point x="1238" y="1442" type="line"/>
      <point x="1239" y="1305" type="line"/>
      <point x="1260" y="938" type="line"/>
      <point x="1198" y="916" type="line"/>
      <point x="1198" y="897" type="line"/>
      <point x="1487" y="897" type="line"/>
      <point x="1487" y="916" type="line"/>
      <point x="1408" y="938" type="line"/>
      <point x="1366" y="1450" type="line"/>
      <point x="1440" y="1470" type="line"/>
      <point x="1440" y="1495" type="line"/>
      <point x="1197" y="1495" type="line"/>
      <point x="1070" y="1023" type="line"/>
      <point x="1033" y="1201" type="line"/>
      <point x="952" y="1495" type="line"/>
      <point x="650" y="1495" type="line"/>
      <point x="650" y="1470" type="line"/>
      <point x="738" y="1450" type="line"/>
    </contour>
  </outline>
</glyph>
<glyph name="northWestArrow" format="2">
  <advance width="1346"/>
  <unicode hex="2196"/>
  <outline>
    <contour>
      <point x="1027" y="1297" type="line"/>
      <point x="194" y="1297" type="line"/>
      <point x="194" y="465" type="line"/>
      <point x="401" y="465" type="line"/>
      <point x="401" y="960" type="line"/>
      <point x="499" y="838" type="line"/>
      <point x="1037" y="302" type="line"/>
      <point x="1191" y="456" type="line"/>
      <point x="654" y="994" type="line"/>
      <point x="533" y="1089" type="line"/>
      <point x="1028" y="1090" type="line"/>
    </contour>
  </outline>
</glyph>
<glyph name="emptyset" format="2">
  <advance width="1160"/>
  <unicode hex="2205"/>
  <outline>
    <contour>
      <point x="31" y="550" type="curve" smooth="yes"/>
      <point x="28" y="221"/>
      <point x="266" y="-20"/>
      <point x="586" y="-20" type="curve"/>
      <point x="905" y="-20"/>
      <point x="1143" y="221"/>
      <point x="1141" y="550" type="curve" smooth="yes"/>
      <point x="1139" y="879"/>
      <point x="902" y="1121"/>
      <point x="586" y="1121" type="curve" smooth="yes"/>
      <point x="272" y="1121"/>
      <point x="34" y="879"/>
    </contour>
    <contour>
      <point x="210" y="545" type="curve" smooth="yes"/>
      <point x="210" y="785"/>
      <point x="370" y="960"/>
      <point x="584" y="960" type="curve" smooth="yes"/>
      <point x="802" y="960"/>
      <point x="964" y="785"/>
      <point x="962" y="545" type="curve" smooth="yes"/>
      <point x="960" y="311"/>
      <point x="798" y="141"/>
      <point x="584" y="141" type="curve" smooth="yes"/>
      <point x="370" y="141"/>
      <point x="210" y="311"/>
    </contour>
    <contour>
      <point x="1010" y="1195" type="line"/>
      <point x="113" y="-57" type="line"/>
      <point x="164" y="-96" type="line"/>
      <point x="1063" y="1156" type="line"/>
    </contour>
  </outline>
</glyph>
<glyph name="product" format="2">
  <advance width="1406"/>
  <unicode hex="220F"/>
  <outline>
    <contour>
      <point x="167" y="1418" type="line"/>
      <point x="167" y="-105" type="line"/>
      <point x="29" y="-143" type="line"/>
      <point x="29" y="-175" type="line"/>
      <point x="632" y="-175" type="line"/>
      <point x="632" y="-143" type="line"/>
      <point x="516" y="-105" type="line"/>
      <point x="516" y="1418" type="line"/>
      <point x="892" y="1418" type="line"/>
      <point x="892" y="-105" type="line"/>
      <point x="778" y="-143" type="line"/>
      <point x="778" y="-175" type="line"/>
      <point x="1376" y="-174" type="line"/>
      <point x="1376" y="-143" type="line"/>
      <point x="1241" y="-105" type="line"/>
      <point x="1241" y="1422" type="line"/>
      <point x="1376" y="1456" type="line"/>
      <point x="1376" y="1486" type="line"/>
      <point x="33" y="1486" type="line"/>
      <point x="33" y="1456" type="line"/>
    </contour>
  </outline>
</glyph>
<glyph name="bulletoperator" format="2">
  <advance width="697"/>
  <unicode hex="2219"/>
  <outline>
    <contour>
      <point x="332" y="506" type="curve" smooth="yes"/>
      <point x="453" y="506"/>
      <point x="539" y="572"/>
      <point x="539" y="687" type="curve" smooth="yes"/>
      <point x="539" y="773"/>
      <point x="474" y="855"/>
      <point x="363" y="855" type="curve" smooth="yes"/>
      <point x="252" y="855"/>
      <point x="162" y="781"/>
      <point x="162" y="673" type="curve" smooth="yes"/>
      <point x="162" y="575"/>
      <point x="244" y="506"/>
    </contour>
  </outline>
</glyph>
<glyph name="infinity" format="2">
  <advance width="1831"/>
  <unicode hex="221E"/>
  <outline>
    <contour>
      <point x="439" y="100" type="curve" smooth="yes"/>
      <point x="580" y="100"/>
      <point x="738" y="197"/>
      <point x="840" y="405" type="curve"/>
      <point x="958" y="193"/>
      <point x="1154" y="100"/>
      <point x="1333" y="100" type="curve" smooth="yes"/>
      <point x="1560" y="100"/>
      <point x="1753" y="250"/>
      <point x="1753" y="561" type="curve" smooth="yes"/>
      <point x="1753" y="839"/>
      <point x="1598" y="1022"/>
      <point x="1395" y="1022" type="curve" smooth="yes"/>
      <point x="1247" y="1022"/>
      <point x="1086" y="924"/>
      <point x="986" y="718" type="curve"/>
      <point x="863" y="925"/>
      <point x="702" y="1023"/>
      <point x="514" y="1023" type="curve" smooth="yes"/>
      <point x="282" y="1023"/>
      <point x="78" y="873"/>
      <point x="78" y="560" type="curve" smooth="yes"/>
      <point x="78" y="270"/>
      <point x="252" y="100"/>
    </contour>
    <contour>
      <point x="443" y="327" type="curve" smooth="yes"/>
      <point x="259" y="327"/>
      <point x="145" y="432"/>
      <point x="145" y="581" type="curve" smooth="yes"/>
      <point x="145" y="747"/>
      <point x="288" y="824"/>
      <point x="389" y="824" type="curve" smooth="yes"/>
      <point x="514" y="824"/>
      <point x="637" y="718"/>
      <point x="797" y="470" type="curve"/>
      <point x="707" y="376"/>
      <point x="569" y="327"/>
    </contour>
    <contour>
      <point x="1377" y="796" type="curve" smooth="yes"/>
      <point x="1590" y="796"/>
      <point x="1686" y="647"/>
      <point x="1686" y="521" type="curve" smooth="yes"/>
      <point x="1686" y="384"/>
      <point x="1577" y="297"/>
      <point x="1436" y="297" type="curve" smooth="yes"/>
      <point x="1301" y="297"/>
      <point x="1217" y="375"/>
      <point x="1033" y="653" type="curve"/>
      <point x="1114" y="744"/>
      <point x="1253" y="796"/>
    </contour>
  </outline>
</glyph>
<glyph name="lessequal" format="2">
  <advance width="1177"/>
  <unicode hex="2264"/>
  <outline>
    <contour>
      <point x="995" y="1375" type="line"/>
      <point x="137" y="989" type="line"/>
      <point x="137" y="918" type="line"/>
      <point x="995" y="534" type="line"/>
      <point x="995" y="626" type="line"/>
      <point x="242" y="953" type="line"/>
      <point x="995" y="1284" type="line"/>
    </contour>
    <contour>
      <point x="990" y="286" type="line"/>
      <point x="156" y="286" type="line"/>
      <point x="157" y="206" type="line"/>
      <point x="990" y="206" type="line"/>
    </contour>
  </outline>
</glyph>
<glyph name="lozenge" format="2">
  <advance width="1168"/>
  <unicode hex="25CA"/>
  <outline>
    <contour>
      <point x="583" y="-27" type="line"/>
      <point x="1149" y="749" type="line"/>
      <point x="585" y="1507" type="line"/>
      <point x="13" y="753" type="line"/>
    </contour>
    <contour>
      <point x="582" y="320" type="line"/>
      <point x="303" y="724" type="line"/>
      <point x="286" y="751" type="line"/>
      <point x="565" y="1141" type="line"/>
      <point x="584" y="1164" type="line"/>
      <point x="861" y="774" type="line"/>
      <point x="878" y="751" type="line"/>
      <point x="599" y="343" type="line"/>
    </contour>
  </outline>
</glyph>
<glyph name="leftanglebracket-math" format="2">
  <advance width="620"/>
  <unicode hex="27E8"/>
  <outline>
    <contour>
      <point x="483" y="1802" type="line"/>
      <point x="38" y="635" type="line"/>
      <point x="506" y="-510" type="line"/>
      <point x="582" y="-510" type="line"/>
      <point x="128" y="631" type="line"/>
      <point x="575" y="1802" type="line"/>
    </contour>
  </outline>
</glyph>
<glyph name="rightanglebracket-math" format="2">
  <advance width="620"/>
  <unicode hex="27E9"/>
  <outline>
    <contour>
      <point x="137" y="1802" type="line"/>
      <point x="45" y="1802" type="line"/>
      <point x="492" y="631" type="line"/>
      <point x="38" y="-510" type="line"/>
      <point x="114" y="-510" type="line"/>
      <point x="582" y="635" type="line"/>
    </contour>
  </outline>
</glyph>
<glyph name="De-cy.loclBGR" format="2">
  <advance width="1182"/>
  <outline>
    <contour>
      <point x="-113" y="-410" type="curve"/>
      <point x="45" y="-410" type="line"/>
      <point x="58" y="-324"/>
      <point x="118" y="-36"/>
      <point x="150" y="0" type="curve"/>
      <point x="953" y="0" type="line"/>
      <point x="976" y="-35"/>
      <point x="1025" y="-345"/>
      <point x="1027" y="-406" type="curve"/>
      <point x="1179" y="-406" type="line"/>
      <point x="1186" y="-383"/>
      <point x="1215" y="-26"/>
      <point x="1215" y="72" type="curve"/>
      <point x="1078" y="72" type="line"/>
      <point x="742" y="1496" type="line"/>
      <point x="438" y="1496" type="line"/>
      <point x="47" y="72" type="line"/>
      <point x="-94" y="72" type="line"/>
      <point x="-109" y="-55"/>
      <point x="-110" y="-352"/>
    </contour>
    <contour>
      <point x="125" y="72" type="line"/>
      <point x="405" y="1169" type="line"/>
      <point x="436" y="1297" type="line"/>
      <point x="463" y="1169" type="line"/>
      <point x="705" y="72" type="line"/>
    </contour>
  </outline>
</glyph>
<glyph name="acutecomb.case" format="2">
  <anchor x="0" y="1486" name="_top"/>
  <anchor x="0" y="1964" name="top"/>
  <outline>
    <contour>
      <point x="-104" y="1582" type="line"/>
      <point x="30" y="1624"/>
      <point x="205" y="1733"/>
      <point x="291" y="1823" type="curve"/>
      <point x="99" y="1995" type="line"/>
      <point x="-138" y="1617" type="line"/>
      <point x="-106" y="1582" type="line"/>
    </contour>
  </outline>
</glyph>
<glyph name="ae.sc" format="2">
  <advance width="1710"/>
  <anchor x="830" y="0" name="bottom"/>
  <anchor x="796" y="-144" name="mark0"/>
  <anchor x="1019" y="1340" name="top"/>
  <outline>
    <contour>
      <point x="-153" y="0" type="line"/>
      <point x="347" y="0" type="line"/>
      <point x="347" y="34" type="line"/>
      <point x="208" y="125" type="line"/>
      <point x="308" y="372" type="line"/>
      <point x="694" y="372" type="line"/>
      <point x="694" y="71" type="line"/>
      <point x="577" y="32" type="line"/>
      <point x="577" y="0" type="line"/>
      <point x="1606" y="0" type="line"/>
      <point x="1695" y="407" type="line"/>
      <point x="1540" y="424" type="line"/>
      <point x="1388" y="116" type="line"/>
      <point x="1036" y="59" type="line"/>
      <point x="1036" y="638" type="line"/>
      <point x="1220" y="635" type="line"/>
      <point x="1296" y="381" type="line"/>
      <point x="1339" y="381" type="line"/>
      <point x="1339" y="923" type="line"/>
      <point x="1296" y="923" type="line"/>
      <point x="1220" y="687" type="line"/>
      <point x="1036" y="685" type="line"/>
      <point x="1036" y="1238" type="line"/>
      <point x="1356" y="1199" type="line"/>
      <point x="1481" y="942" type="line"/>
      <point x="1607" y="942" type="line"/>
      <point x="1577" y="1292" type="line"/>
      <point x="360" y="1292" type="line"/>
      <point x="360" y="1251" type="line"/>
      <point x="569" y="1184" type="line"/>
      <point x="122" y="128" type="line"/>
      <point x="-153" y="34" type="line"/>
    </contour>
    <contour>
      <point x="332" y="427" type="line"/>
      <point x="546" y="979" type="line"/>
      <point x="650" y="1225" type="line"/>
      <point x="694" y="1225" type="line"/>
      <point x="694" y="427" type="line"/>
    </contour>
  </outline>
</glyph>
<glyph name="b.sc" format="2">
  <advance width="1178"/>
  <anchor x="663" y="0" name="bottom"/>
  <anchor x="679" y="-144" name="mark0"/>
  <anchor x="611" y="1340" name="top"/>
  <outline>
    <contour>
      <point x="161" y="65" type="line"/>
      <point x="35" y="32" type="line"/>
      <point x="35" y="0" type="line"/>
      <point x="314" y="0" type="line" smooth="yes"/>
      <point x="429" y="0"/>
      <point x="477" y="-10"/>
      <point x="600" y="-10" type="curve" smooth="yes"/>
      <point x="1001" y="-10"/>
      <point x="1138" y="144"/>
      <point x="1138" y="395" type="curve" smooth="yes"/>
      <point x="1138" y="591"/>
      <point x="1023" y="684"/>
      <point x="795" y="697" type="curve"/>
      <point x="947" y="717"/>
      <point x="1096" y="802"/>
      <point x="1096" y="1003" type="curve" smooth="yes"/>
      <point x="1096" y="1201"/>
      <point x="964" y="1303"/>
      <point x="605" y="1303" type="curve" smooth="yes"/>
      <point x="523" y="1303"/>
      <point x="442" y="1292"/>
      <point x="309" y="1292" type="curve" smooth="yes"/>
      <point x="36" y="1292" type="line"/>
      <point x="36" y="1261" type="line"/>
      <point x="161" y="1225" type="line"/>
    </contour>
    <contour>
      <point x="504" y="695" type="curve"/>
      <point x="504" y="1242" type="line"/>
      <point x="524" y="1246"/>
      <point x="556" y="1251"/>
      <point x="582" y="1251" type="curve" smooth="yes"/>
      <point x="714" y="1251"/>
      <point x="751" y="1154"/>
      <point x="751" y="986" type="curve" smooth="yes"/>
      <point x="751" y="844"/>
      <point x="714" y="691"/>
      <point x="581" y="691" type="curve" smooth="yes"/>
      <point x="550" y="691"/>
      <point x="526" y="692"/>
    </contour>
    <contour>
      <point x="504" y="60" type="curve"/>
      <point x="504" y="627" type="line"/>
      <point x="525" y="628"/>
      <point x="553" y="632"/>
      <point x="594" y="632" type="curve" smooth="yes"/>
      <point x="741" y="632"/>
      <point x="793" y="570"/>
      <point x="793" y="367" type="curve" smooth="yes"/>
      <point x="793" y="170"/>
      <point x="744" y="46"/>
      <point x="603" y="46" type="curve" smooth="yes"/>
      <point x="567" y="46"/>
      <point x="524" y="50"/>
    </contour>
  </outline>
</glyph>
<glyph name="brevebelowcomb.case" format="2">
  <anchor x="0" y="0" name="_bottom"/>
  <anchor x="0" y="1738" name="top"/>
  <outline>
    <contour>
      <point x="0" y="-492" type="curve" smooth="yes"/>
      <point x="162" y="-492"/>
      <point x="271" y="-367"/>
      <point x="271" y="-196" type="curve" smooth="yes"/>
      <point x="271" y="-166"/>
      <point x="270" y="-150"/>
      <point x="267" y="-129" type="curve"/>
      <point x="207" y="-129" type="line"/>
      <point x="207" y="-142"/>
      <point x="206" y="-159"/>
      <point x="201" y="-178" type="curve" smooth="yes"/>
      <point x="181" y="-253"/>
      <point x="105" y="-292"/>
      <point x="0" y="-292" type="curve" smooth="yes"/>
      <point x="-105" y="-292"/>
      <point x="-181" y="-253"/>
      <point x="-201" y="-178" type="curve" smooth="yes"/>
      <point x="-206" y="-159"/>
      <point x="-207" y="-142"/>
      <point x="-207" y="-129" type="curve"/>
      <point x="-267" y="-129" type="line"/>
      <point x="-270" y="-150"/>
      <point x="-271" y="-166"/>
      <point x="-271" y="-196" type="curve" smooth="yes"/>
      <point x="-271" y="-367"/>
      <point x="-162" y="-492"/>
    </contour>
  </outline>
</glyph>
<glyph name="brevecomb-cy" format="2">
  <anchor x="0" y="1110" name="_top"/>
  <outline>
    <contour>
      <point x="-154" y="1516" type="curve" smooth="yes"/>
      <point x="-323" y="1516" type="line"/>
      <point x="-326" y="1498"/>
      <point x="-327" y="1480"/>
      <point x="-327" y="1462" type="curve" smooth="yes"/>
      <point x="-327" y="1258"/>
      <point x="-208" y="1139"/>
      <point x="0" y="1139" type="curve" smooth="yes"/>
      <point x="208" y="1139"/>
      <point x="327" y="1258"/>
      <point x="327" y="1462" type="curve" smooth="yes"/>
      <point x="327" y="1480"/>
      <point x="326" y="1498"/>
      <point x="323" y="1516" type="curve"/>
      <point x="154" y="1516" type="line" smooth="yes"/>
      <point x="100" y="1516"/>
      <point x="90" y="1468"/>
      <point x="90" y="1391" type="curve" smooth="yes"/>
      <point x="90" y="1251"/>
      <point x="80" y="1197"/>
      <point x="0" y="1197" type="curve" smooth="yes"/>
      <point x="-80" y="1197"/>
      <point x="-90" y="1251"/>
      <point x="-90" y="1391" type="curve" smooth="yes"/>
      <point x="-90" y="1468"/>
      <point x="-100" y="1516"/>
    </contour>
  </outline>
</glyph>
<glyph name="brevecomb_gravecomb.case" format="2">
  <anchor x="0" y="1486" name="_top"/>
  <anchor x="0" y="1962" name="top"/>
  <outline>
    <contour>
      <point x="0" y="1589" type="curve" smooth="yes"/>
      <point x="147" y="1589"/>
      <point x="257" y="1693"/>
      <point x="257" y="1859" type="curve" smooth="yes"/>
      <point x="257" y="1889"/>
      <point x="256" y="1903"/>
      <point x="253" y="1924" type="curve"/>
      <point x="193" y="1924" type="line"/>
      <point x="193" y="1911"/>
      <point x="191" y="1894"/>
      <point x="186" y="1875" type="curve" smooth="yes"/>
      <point x="168" y="1808"/>
      <point x="111" y="1770"/>
      <point x="0" y="1770" type="curve" smooth="yes"/>
      <point x="-111" y="1770"/>
      <point x="-168" y="1808"/>
      <point x="-186" y="1875" type="curve" smooth="yes"/>
      <point x="-191" y="1894"/>
      <point x="-193" y="1911"/>
      <point x="-193" y="1924" type="curve"/>
      <point x="-253" y="1924" type="line"/>
      <point x="-256" y="1903"/>
      <point x="-257" y="1889"/>
      <point x="-257" y="1859" type="curve" smooth="yes"/>
      <point x="-257" y="1693"/>
      <point x="-147" y="1589"/>
    </contour>
    <contour>
      <point x="31" y="1920" type="curve"/>
      <point x="33" y="1920" type="line"/>
      <point x="72" y="1948" type="line"/>
      <point x="-109" y="2294" type="line"/>
      <point x="-282" y="2194" type="line"/>
      <point x="-219" y="2086"/>
      <point x="-65" y="1972"/>
    </contour>
  </outline>
</glyph>
<glyph name="brevecomb_gravecomb" format="2">
  <anchor x="0" y="1110" name="_top"/>
  <anchor x="0" y="1715" name="top"/>
  <outline>
    <contour>
      <point x="0" y="1140" type="curve" smooth="yes"/>
      <point x="147" y="1140"/>
      <point x="257" y="1249"/>
      <point x="257" y="1415" type="curve" smooth="yes"/>
      <point x="257" y="1445"/>
      <point x="256" y="1459"/>
      <point x="253" y="1480" type="curve"/>
      <point x="193" y="1480" type="line"/>
      <point x="193" y="1467"/>
      <point x="191" y="1450"/>
      <point x="186" y="1431" type="curve" smooth="yes"/>
      <point x="167" y="1364"/>
      <point x="111" y="1321"/>
      <point x="0" y="1321" type="curve" smooth="yes"/>
      <point x="-111" y="1321"/>
      <point x="-167" y="1364"/>
      <point x="-186" y="1431" type="curve" smooth="yes"/>
      <point x="-191" y="1450"/>
      <point x="-193" y="1467"/>
      <point x="-193" y="1480" type="curve"/>
      <point x="-253" y="1480" type="line"/>
      <point x="-256" y="1459"/>
      <point x="-257" y="1445"/>
      <point x="-257" y="1415" type="curve" smooth="yes"/>
      <point x="-257" y="1249"/>
      <point x="-147" y="1140"/>
    </contour>
    <contour>
      <point x="30" y="1495" type="curve"/>
      <point x="32" y="1495" type="line"/>
      <point x="71" y="1523" type="line"/>
      <point x="-110" y="1889" type="line"/>
      <point x="-283" y="1789" type="line"/>
      <point x="-220" y="1681"/>
      <point x="-66" y="1551"/>
    </contour>
  </outline>
</glyph>
<glyph name="brevecomb_tildecomb.case" format="2">
  <anchor x="0" y="1486" name="_top"/>
  <anchor x="0" y="1958" name="top"/>
  <outline>
    <contour>
      <point x="0" y="1589" type="curve" smooth="yes"/>
      <point x="147" y="1589"/>
      <point x="257" y="1693"/>
      <point x="257" y="1859" type="curve" smooth="yes"/>
      <point x="257" y="1889"/>
      <point x="256" y="1903"/>
      <point x="253" y="1924" type="curve"/>
      <point x="193" y="1924" type="line"/>
      <point x="193" y="1911"/>
      <point x="191" y="1894"/>
      <point x="186" y="1875" type="curve" smooth="yes"/>
      <point x="168" y="1808"/>
      <point x="111" y="1770"/>
      <point x="0" y="1770" type="curve" smooth="yes"/>
      <point x="-111" y="1770"/>
      <point x="-168" y="1808"/>
      <point x="-186" y="1875" type="curve" smooth="yes"/>
      <point x="-191" y="1894"/>
      <point x="-193" y="1911"/>
      <point x="-193" y="1924" type="curve"/>
      <point x="-253" y="1924" type="line"/>
      <point x="-256" y="1903"/>
      <point x="-257" y="1889"/>
      <point x="-257" y="1859" type="curve" smooth="yes"/>
      <point x="-257" y="1693"/>
      <point x="-147" y="1589"/>
    </contour>
    <contour>
      <point x="82" y="1976" type="curve" smooth="yes"/>
      <point x="173" y="1976"/>
      <point x="242" y="2065"/>
      <point x="256" y="2230" type="curve"/>
      <point x="209" y="2246" type="line"/>
      <point x="197" y="2185"/>
      <point x="176" y="2146"/>
      <point x="131" y="2146" type="curve" smooth="yes"/>
      <point x="71" y="2146"/>
      <point x="21" y="2256"/>
      <point x="-70" y="2256" type="curve" smooth="yes"/>
      <point x="-161" y="2256"/>
      <point x="-230" y="2165"/>
      <point x="-244" y="2002" type="curve"/>
      <point x="-197" y="1986" type="line"/>
      <point x="-185" y="2047"/>
      <point x="-154" y="2086"/>
      <point x="-119" y="2086" type="curve" smooth="yes"/>
      <point x="-59" y="2086"/>
      <point x="-10" y="1976"/>
    </contour>
  </outline>
</glyph>
<glyph name="brevecomb_tildecomb" format="2">
  <anchor x="0" y="1110" name="_top"/>
  <anchor x="0" y="1713" name="top"/>
  <outline>
    <contour>
      <point x="0" y="1140" type="curve" smooth="yes"/>
      <point x="147" y="1140"/>
      <point x="257" y="1249"/>
      <point x="257" y="1415" type="curve" smooth="yes"/>
      <point x="257" y="1445"/>
      <point x="256" y="1459"/>
      <point x="253" y="1480" type="curve"/>
      <point x="193" y="1480" type="line"/>
      <point x="193" y="1467"/>
      <point x="191" y="1450"/>
      <point x="186" y="1431" type="curve" smooth="yes"/>
      <point x="167" y="1364"/>
      <point x="111" y="1321"/>
      <point x="0" y="1321" type="curve" smooth="yes"/>
      <point x="-111" y="1321"/>
      <point x="-167" y="1364"/>
      <point x="-186" y="1431" type="curve" smooth="yes"/>
      <point x="-191" y="1450"/>
      <point x="-193" y="1467"/>
      <point x="-193" y="1480" type="curve"/>
      <point x="-253" y="1480" type="line"/>
      <point x="-256" y="1459"/>
      <point x="-257" y="1445"/>
      <point x="-257" y="1415" type="curve" smooth="yes"/>
      <point x="-257" y="1249"/>
      <point x="-147" y="1140"/>
    </contour>
    <contour>
      <point x="82" y="1553" type="curve" smooth="yes"/>
      <point x="173" y="1553"/>
      <point x="242" y="1644"/>
      <point x="256" y="1807" type="curve"/>
      <point x="209" y="1823" type="line"/>
      <point x="197" y="1762"/>
      <point x="176" y="1723"/>
      <point x="131" y="1723" type="curve" smooth="yes"/>
      <point x="71" y="1723"/>
      <point x="21" y="1833"/>
      <point x="-70" y="1833" type="curve" smooth="yes"/>
      <point x="-161" y="1833"/>
      <point x="-230" y="1742"/>
      <point x="-244" y="1579" type="curve"/>
      <point x="-197" y="1563" type="line"/>
      <point x="-185" y="1624"/>
      <point x="-154" y="1663"/>
      <point x="-119" y="1663" type="curve" smooth="yes"/>
      <point x="-59" y="1663"/>
      <point x="-10" y="1553"/>
    </contour>
  </outline>
</glyph>
<glyph name="breveinvertedcomb.case" format="2">
  <anchor x="0" y="1486" name="_top"/>
  <anchor x="0" y="1958" name="top"/>
  <outline>
    <contour>
      <point x="0" y="1972" type="curve" smooth="yes"/>
      <point x="-162" y="1972"/>
      <point x="-271" y="1837"/>
      <point x="-271" y="1656" type="curve" smooth="yes"/>
      <point x="-271" y="1626"/>
      <point x="-270" y="1610"/>
      <point x="-267" y="1589" type="curve"/>
      <point x="-207" y="1589" type="line"/>
      <point x="-207" y="1602"/>
      <point x="-207" y="1619"/>
      <point x="-202" y="1638" type="curve" smooth="yes"/>
      <point x="-182" y="1721"/>
      <point x="-105" y="1762"/>
      <point x="0" y="1762" type="curve" smooth="yes"/>
      <point x="105" y="1762"/>
      <point x="182" y="1721"/>
      <point x="202" y="1638" type="curve" smooth="yes"/>
      <point x="207" y="1619"/>
      <point x="207" y="1602"/>
      <point x="207" y="1589" type="curve"/>
      <point x="267" y="1589" type="line"/>
      <point x="270" y="1610"/>
      <point x="271" y="1626"/>
      <point x="271" y="1656" type="curve" smooth="yes"/>
      <point x="271" y="1837"/>
      <point x="162" y="1972"/>
    </contour>
  </outline>
</glyph>
<glyph name="c.sc" format="2">
  <advance width="1090"/>
  <anchor x="630" y="0" name="bottom"/>
  <anchor x="648" y="-144" name="mark0"/>
  <anchor x="628" y="1340" name="top"/>
  <outline>
    <contour>
      <point x="635" y="-20" type="curve" smooth="yes"/>
      <point x="882" y="-20"/>
      <point x="937" y="48"/>
      <point x="1026" y="47" type="curve"/>
      <point x="1056" y="437" type="line"/>
      <point x="922" y="437" type="line"/>
      <point x="848" y="169" type="line"/>
      <point x="826" y="88"/>
      <point x="749" y="33"/>
      <point x="668" y="33" type="curve" smooth="yes"/>
      <point x="467" y="33"/>
      <point x="403" y="335"/>
      <point x="403" y="663" type="curve" smooth="yes"/>
      <point x="403" y="1101"/>
      <point x="483" y="1261"/>
      <point x="645" y="1261" type="curve" smooth="yes"/>
      <point x="736" y="1261"/>
      <point x="783" y="1215"/>
      <point x="798" y="1127" type="curve"/>
      <point x="845" y="848" type="line"/>
      <point x="1019" y="848" type="line"/>
      <point x="1068" y="1250" type="line"/>
      <point x="896" y="1250"/>
      <point x="841" y="1315"/>
      <point x="623" y="1315" type="curve" smooth="yes"/>
      <point x="254" y="1315"/>
      <point x="42" y="1064"/>
      <point x="42" y="641" type="curve" smooth="yes"/>
      <point x="42" y="236"/>
      <point x="211" y="-20"/>
    </contour>
  </outline>
</glyph>
<glyph name="cedillacomb.case" format="2">
  <anchor x="0" y="0" name="_bottom"/>
  <anchor x="0" y="-513" name="bottom"/>
  <outline>
    <contour>
      <point x="-70" y="-479" type="curve" smooth="yes"/>
      <point x="61" y="-479"/>
      <point x="159" y="-417"/>
      <point x="159" y="-276" type="curve" smooth="yes"/>
      <point x="159" y="-151"/>
      <point x="71" y="-35"/>
      <point x="24" y="6" type="curve"/>
      <point x="-7" y="13" type="line"/>
      <point x="-44" y="6" type="line"/>
      <point x="-12" y="-29"/>
      <point x="12" y="-99"/>
      <point x="12" y="-155" type="curve" smooth="yes"/>
      <point x="12" y="-255"/>
      <point x="-34" y="-278"/>
      <point x="-119" y="-278" type="curve" smooth="yes"/>
      <point x="-139" y="-278"/>
      <point x="-171" y="-276"/>
      <point x="-192" y="-270" type="curve"/>
      <point x="-192" y="-454" type="line"/>
      <point x="-154" y="-470"/>
      <point x="-105" y="-479"/>
    </contour>
  </outline>
</glyph>
<glyph name="che-cy.loclBGR" format="2">
  <advance width="994"/>
  <outline>
    <contour>
      <point x="484" y="0" type="line"/>
      <point x="990" y="0" type="line"/>
      <point x="990" y="39" type="line"/>
      <point x="914" y="71" type="line"/>
      <point x="914" y="993" type="line"/>
      <point x="863" y="1035" type="line"/>
      <point x="825" y="1035" type="line"/>
      <point x="496" y="927" type="line"/>
      <point x="496" y="886" type="line"/>
      <point x="600" y="839" type="line"/>
      <point x="600" y="505" type="line"/>
      <point x="578" y="482"/>
      <point x="552" y="463"/>
      <point x="507" y="463" type="curve"/>
      <point x="402" y="463"/>
      <point x="400" y="567"/>
      <point x="400" y="736" type="curve"/>
      <point x="400" y="992" type="line"/>
      <point x="349" y="1035" type="line" smooth="yes"/>
      <point x="311" y="1035" type="line" smooth="yes"/>
      <point x="-12" y="927" type="line"/>
      <point x="-12" y="886" type="line"/>
      <point x="86" y="839" type="line"/>
      <point x="86" y="708" type="line"/>
      <point x="86" y="513"/>
      <point x="145" y="365"/>
      <point x="378" y="365" type="curve"/>
      <point x="489" y="365"/>
      <point x="564" y="400"/>
      <point x="600" y="449" type="curve"/>
      <point x="600" y="71" type="line" smooth="yes"/>
      <point x="484" y="39" type="line" smooth="yes"/>
    </contour>
  </outline>
</glyph>
<glyph name="che-cy.sc" format="2">
  <advance width="1236"/>
  <anchor x="1216" y="0" name="bottomright"/>
  <anchor x="618" y="1292" name="top"/>
  <outline>
    <contour>
      <point x="730" y="597" type="curve"/>
      <point x="730" y="73" type="line"/>
      <point x="561" y="37" type="line"/>
      <point x="561" y="0" type="line"/>
      <point x="1189" y="0" type="line"/>
      <point x="1189" y="37" type="line"/>
      <point x="1082" y="73" type="line"/>
      <point x="1082" y="1222" type="line"/>
      <point x="1189" y="1255" type="line"/>
      <point x="1189" y="1292" type="line"/>
      <point x="623" y="1292" type="line"/>
      <point x="623" y="1255" type="line"/>
      <point x="730" y="1221" type="line"/>
      <point x="730" y="658" type="line"/>
      <point x="706" y="631"/>
      <point x="664" y="603"/>
      <point x="599" y="603" type="curve" smooth="yes"/>
      <point x="489" y="603"/>
      <point x="468" y="657"/>
      <point x="468" y="966" type="curve" smooth="yes"/>
      <point x="468" y="1218" type="line"/>
      <point x="552" y="1255" type="line"/>
      <point x="552" y="1292" type="line"/>
      <point x="34" y="1292" type="line"/>
      <point x="34" y="1255" type="line"/>
      <point x="115" y="1219" type="line"/>
      <point x="115" y="922" type="line" smooth="yes"/>
      <point x="115" y="670"/>
      <point x="218" y="523"/>
      <point x="479" y="523" type="curve" smooth="yes"/>
      <point x="562" y="523"/>
      <point x="660" y="551"/>
    </contour>
  </outline>
</glyph>
<glyph name="cheabkhasian-cy.sc" format="2">
  <advance width="1384"/>
  <outline>
    <contour>
      <point x="1276" y="46" type="curve"/>
      <point x="1275" y="283" type="line"/>
      <point x="1046" y="280" type="line"/>
      <point x="1020" y="123" type="line"/>
      <point x="981" y="72"/>
      <point x="952" y="54"/>
      <point x="883" y="54" type="curve" smooth="yes"/>
      <point x="731" y="54"/>
      <point x="653" y="345"/>
      <point x="653" y="650" type="curve"/>
      <point x="1318" y="648" type="line"/>
      <point x="1324" y="680"/>
      <point x="1331" y="724"/>
      <point x="1331" y="802" type="curve" smooth="yes"/>
      <point x="1321" y="1116"/>
      <point x="1148" y="1306"/>
      <point x="863" y="1306" type="curve" smooth="yes"/>
      <point x="571" y="1306"/>
      <point x="350" y="1056"/>
      <point x="311" y="705" type="curve"/>
      <point x="265" y="705"/>
      <point x="245" y="747"/>
      <point x="245" y="805" type="curve" smooth="yes"/>
      <point x="245" y="854"/>
      <point x="267" y="898"/>
      <point x="292" y="925" type="curve"/>
      <point x="131" y="945" type="line"/>
      <point x="82" y="925"/>
      <point x="36" y="881"/>
      <point x="36" y="814" type="curve" smooth="yes"/>
      <point x="36" y="686"/>
      <point x="170" y="653"/>
      <point x="310" y="650" type="curve"/>
      <point x="334" y="205"/>
      <point x="535" y="-20"/>
      <point x="863" y="-20" type="curve" smooth="yes"/>
      <point x="1071" y="-20"/>
      <point x="1191" y="44"/>
    </contour>
    <contour>
      <point x="989" y="705" type="curve"/>
      <point x="653" y="705" type="line"/>
      <point x="653" y="1123"/>
      <point x="718" y="1240"/>
      <point x="836" y="1240" type="curve" smooth="yes"/>
      <point x="982" y="1240"/>
      <point x="993" y="1075"/>
      <point x="993" y="816" type="curve" smooth="yes"/>
      <point x="993" y="776"/>
      <point x="991" y="741"/>
    </contour>
  </outline>
</glyph>
<glyph name="cheverticalstroke-cy.sc" format="2">
  <advance width="1339"/>
  <outline>
    <contour>
      <point x="830" y="591" type="curve"/>
      <point x="830" y="69" type="line"/>
      <point x="647" y="37" type="line"/>
      <point x="647" y="0" type="line"/>
      <point x="1292" y="0" type="line"/>
      <point x="1292" y="58" type="line"/>
      <point x="1181" y="73" type="line"/>
      <point x="1181" y="1222" type="line"/>
      <point x="1292" y="1255" type="line"/>
      <point x="1292" y="1292" type="line"/>
      <point x="704" y="1292" type="line"/>
      <point x="704" y="1255" type="line"/>
      <point x="830" y="1220" type="line"/>
      <point x="830" y="658" type="line"/>
      <point x="801" y="630"/>
      <point x="748" y="604"/>
      <point x="688" y="596" type="curve"/>
      <point x="688" y="871" type="line"/>
      <point x="628" y="871" type="line"/>
      <point x="628" y="595" type="line"/>
      <point x="507" y="602"/>
      <point x="479" y="675"/>
      <point x="479" y="904" type="curve" smooth="yes"/>
      <point x="479" y="1218" type="line"/>
      <point x="592" y="1255" type="line"/>
      <point x="592" y="1292" type="line"/>
      <point x="49" y="1292" type="line"/>
      <point x="49" y="1255" type="line"/>
      <point x="127" y="1216" type="line"/>
      <point x="127" y="922" type="line" smooth="yes"/>
      <point x="127" y="659"/>
      <point x="259" y="523"/>
      <point x="583" y="523" type="curve" smooth="yes"/>
      <point x="599" y="523"/>
      <point x="614" y="523"/>
      <point x="628" y="524" type="curve"/>
      <point x="628" y="319" type="line"/>
      <point x="688" y="319" type="line"/>
      <point x="688" y="531" type="line"/>
      <point x="756" y="542"/>
      <point x="799" y="565"/>
    </contour>
  </outline>
</glyph>
<glyph name="circumflexcomb_gravecomb.case" format="2">
  <anchor x="0" y="1486" name="_top"/>
  <anchor x="0" y="1978" name="top"/>
  <outline>
    <contour>
      <point x="-268" y="1569" type="line"/>
      <point x="0" y="1722" type="line"/>
      <point x="268" y="1569" type="line"/>
      <point x="305" y="1601" type="line"/>
      <point x="76" y="1918" type="line"/>
      <point x="-76" y="1918" type="line"/>
      <point x="-305" y="1601" type="line"/>
    </contour>
    <contour>
      <point x="310" y="1872" type="curve"/>
      <point x="312" y="1872" type="line"/>
      <point x="351" y="1900" type="line"/>
      <point x="170" y="2246" type="line"/>
      <point x="-3" y="2146" type="line"/>
      <point x="60" y="2038"/>
      <point x="214" y="1924"/>
    </contour>
  </outline>
</glyph>
<glyph name="circumflexcomb_gravecomb" format="2">
  <anchor x="0" y="1110" name="_top"/>
  <anchor x="0" y="1737" name="top"/>
  <outline>
    <contour>
      <point x="-268" y="1121" type="line"/>
      <point x="0" y="1274" type="line"/>
      <point x="268" y="1121" type="line"/>
      <point x="305" y="1153" type="line"/>
      <point x="76" y="1480" type="line"/>
      <point x="-76" y="1480" type="line"/>
      <point x="-305" y="1153" type="line"/>
    </contour>
    <contour>
      <point x="291" y="1444" type="curve"/>
      <point x="293" y="1444" type="line"/>
      <point x="332" y="1472" type="line"/>
      <point x="151" y="1838" type="line"/>
      <point x="-22" y="1738" type="line"/>
      <point x="41" y="1630"/>
      <point x="195" y="1500"/>
    </contour>
  </outline>
</glyph>
<glyph name="circumflexcomb_hookabovecomb" format="2">
  <anchor x="0" y="1110" name="_top"/>
  <anchor x="0" y="1739" name="top"/>
  <outline>
    <contour>
      <point x="-268" y="1121" type="line"/>
      <point x="0" y="1274" type="line"/>
      <point x="268" y="1121" type="line"/>
      <point x="305" y="1153" type="line"/>
      <point x="76" y="1480" type="line"/>
      <point x="-76" y="1480" type="line"/>
      <point x="-305" y="1153" type="line"/>
    </contour>
    <contour>
      <point x="210" y="1449" type="curve"/>
      <point x="262" y="1449" type="line"/>
      <point x="250" y="1497"/>
      <point x="261" y="1530"/>
      <point x="292" y="1553" type="curve" smooth="yes"/>
      <point x="351" y="1597"/>
      <point x="411" y="1636"/>
      <point x="411" y="1714" type="curve" smooth="yes"/>
      <point x="411" y="1812"/>
      <point x="332" y="1876"/>
      <point x="211" y="1876" type="curve" smooth="yes"/>
      <point x="176" y="1876"/>
      <point x="142" y="1870"/>
      <point x="116" y="1861" type="curve"/>
      <point x="116" y="1714" type="line"/>
      <point x="134" y="1718"/>
      <point x="150" y="1722"/>
      <point x="173" y="1722" type="curve" smooth="yes"/>
      <point x="218" y="1722"/>
      <point x="244" y="1703"/>
      <point x="244" y="1672" type="curve" smooth="yes"/>
      <point x="244" y="1619"/>
      <point x="183" y="1593"/>
      <point x="183" y="1524" type="curve" smooth="yes"/>
      <point x="183" y="1489"/>
      <point x="196" y="1471"/>
    </contour>
  </outline>
</glyph>
